/* XPM */
static char *dummy[]={
"64 64 603 2",
"gO c #6f2101",
"gQ c #702201",
"fN c #702301",
"hl c #702708",
"gR c #702a0c",
"gP c #712401",
"fP c #722401",
"fO c #722501",
"fQ c #722e10",
"hr c #726660",
"hm c #726864",
"g3 c #726a65",
"gS c #726b68",
"hy c #726c6a",
"gd c #726d6a",
"fR c #726d6b",
"ak c #726e6b",
"#8 c #726f6d",
"#O c #726f6e",
"am c #727170",
"al c #727171",
"Qt c #727272",
"g1 c #732502",
"gb c #732602",
"#M c #733b20",
"fC c #733b21",
"gC c #73412a",
"he c #734734",
"hw c #734f3d",
"hx c #735140",
".S c #737270",
"#9 c #737271",
"#6 c #742501",
"ai c #742602",
"a5 c #742701",
"hp c #742702",
"aK c #743718",
"aL c #743719",
"fE c #743c21",
"fD c #743d22",
"gD c #74422a",
"#N c #74452e",
"hg c #744833",
"gE c #744933",
"hf c #744934",
"hh c #744c39",
".H c #74716f",
".m c #74726f",
"fg c #752702",
"a6 c #752802",
"eY c #752803",
"hq c #752a05",
"g2 c #752d09",
"gc c #75300e",
"fh c #753111",
"#7 c #753212",
"aj c #753415",
".l c #75716d",
".# c #75716e",
".h c #76716c",
"#t c #76726d",
".G c #77716b",
"aJ c #783c1b",
"hv c #78543e",
".d c #787169",
".g c #78716a",
"bH c #792e05",
"a4 c #792f06",
"#L c #794223",
"fB c #794323",
"hk c #7a2c03",
"#5 c #7a2f06",
"ah c #7b3007",
"gB c #7b4827",
"ff c #7c3107",
"eX c #7c3208",
"hd c #7d4e2d",
"fM c #7e3204",
"ho c #7f3204",
"ga c #803504",
"gN c #823703",
"g0 c #853b04",
"hs c #8a6d4e",
".a c #8d6c49",
"g4 c #8e6c48",
"hu c #8f6a44",
"ht c #906b44",
".w c #916b42",
".b c #916b43",
".c c #916b44",
".T c #936b3f",
".p c #95693b",
"#u c #956a3d",
".v c #96693b",
".n c #966a3b",
".o c #966a3c",
"#. c #9b6832",
".W c #9b6833",
"ge c #9b6933",
"gf c #9b6934",
".q c #9b6e3a",
".U c #9c6932",
".V c #9c6933",
"#w c #9f672c",
".X c #9f6d33",
"#v c #a0682c",
".9 c #a06d34",
"gF c #a16529",
"fF c #a16629",
"#x c #a1692c",
"hi c #a26527",
"a. c #a26729",
"#i c #a36424",
"#P c #a36626",
"ap c #a46524",
"fS c #a46727",
".I c #a5611e",
"ao c #a56624",
"an c #a56725",
"hn c #a66724",
".R c #a7611c",
"## c #a76622",
".i c #a8611a",
"#s c #a8641f",
".x c #aa661d",
".F c #ab651b",
"hj c #ad5d0e",
".e c #ad6519",
".K c #ae5c0d",
".J c #af5e0e",
".j c #af5f0e",
".k c #af5f0f",
"#r c #af600f",
"#k c #b0610f",
"gG c #b06111",
"#j c #b06210",
".y c #b16210",
"#S c #b16211",
"bm c #b16310",
"a# c #b16311",
"#Q c #b26310",
"#R c #b26311",
".f c #b26411",
"hc c #b2730f",
"#T c #b36511",
"#l c #b36712",
".Q c #b46712",
".L c #b46812",
"#q c #b46a14",
"#a c #b56a14",
"ha c #b5740c",
"#h c #b66c15",
"hb c #b6750c",
".E c #b76c15",
".z c #b76d15",
"gu c #b76e0d",
"gv c #b8700d",
"gA c #b97c11",
"h# c #bc7d13",
"gt c #bd760e",
"gw c #bf7e0e",
"gy c #c0800e",
"gx c #c0810e",
"gz c #c1820e",
"g5 c #c4871b",
"gg c #c88c1b",
"fA c #c89935",
"fu c #c98b0f",
"fv c #ca8e13",
"ft c #cb8d10",
"fi c #cb8f1a",
"eK c #cda137",
"aI c #cfb447",
"g7 c #d08f13",
"g6 c #d19013",
".u c #d29f32",
".r c #d39f32",
"fw c #d3a433",
"fy c #d4a637",
"fx c #d4a737",
"gi c #d59613",
"fz c #d5a837",
"gh c #d69713",
"#K c #d6a738",
".Y c #d6b442",
"g8 c #d8a02b",
"#y c #d8a838",
".8 c #d8b742",
"h. c #d9a330",
"bZ c #da920d",
"c2 c #da9411",
"fk c #da9c13",
"fj c #da9d13",
".t c #daa431",
"g9 c #daa432",
".s c #daa531",
"cp c #db9411",
"c1 c #db9412",
"f3 c #db9413",
"cL c #db9512",
"eL c #db9e14",
"aq c #dbbf95",
"d8 c #dc9412",
"c0 c #dc9510",
"d9 c #dc9512",
"e. c #dc9513",
"cK c #dc9613",
"e# c #dc9712",
"dN c #dc9713",
"gH c #dc9e12",
"fG c #dc9e13",
"eZ c #dc9f14",
"cZ c #dd9710",
"d7 c #dd9812",
"dq c #dd9813",
"bY c #dd9913",
"dM c #dd9915",
"dL c #dd9916",
"dK c #dd991b",
"fs c #dd9c13",
"fT c #dda114",
"f2 c #de9913",
"ex c #de9a13",
"dr c #de9a14",
"co c #de9a17",
"ey c #de9b13",
"ez c #de9c14",
"cJ c #de9c18",
"dJ c #de9c1b",
"gs c #de9d13",
"cI c #de9d19",
"cH c #de9d22",
"cG c #de9e23",
"gT c #dea214",
"eH c #deb33d",
"eG c #deb43b",
"eI c #deb43c",
"f4 c #df9913",
"fp c #df9c13",
"b0 c #df9c17",
"fq c #df9d13",
"ds c #df9e19",
"cF c #df9f23",
"bC c #dfa12d",
"eJ c #dfb63e",
"f5 c #e09a14",
"f6 c #e09b14",
"fr c #e09d13",
"c3 c #e09d19",
"cq c #e09e1a",
"gr c #e09f13",
"fL c #e0a613",
"eA c #e1a21d",
"eB c #e1a21e",
".1 c #e1c243",
"aH c #e1cd4e",
"aG c #e1cd53",
"gq c #e2a213",
"eC c #e2a41d",
"bB c #e2a732",
".0 c #e2c244",
".7 c #e2c344",
".Z c #e2c345",
"dt c #e3a620",
"g# c #e3aa14",
"bD c #e3aa32",
"gM c #e3ac14",
".2 c #e4c545",
"ew c #e5aa14",
"b3 c #e5bc3f",
"bG c #e5bf42",
"ev c #e6aa13",
"dp c #e6ab14",
"eg c #e6b534",
"#A c #e6b73a",
"do c #e7ac13",
"cY c #e7ad11",
"dO c #e7ae14",
"gZ c #e7b015",
"#J c #e7b83a",
"#z c #e7b83b",
"#I c #e7ba3c",
"ef c #e7bf40",
"ag c #e7bf41",
"#B c #e7c847",
"#D c #e7cc49",
"#C c #e7cd4a",
"bl c #e7d451",
"ea c #e8ae13",
"d6 c #e8af14",
"fI c #e8b013",
"dP c #e8b014",
"eS c #e8b015",
"dn c #e8b21a",
"eu c #e8b31c",
"bI c #e8b93a",
"b4 c #e8ba3c",
"dU c #e8bb3d",
"bn c #e8be4b",
"eW c #e8c141",
"#4 c #e8c142",
"#E c #e8ce4a",
"cX c #e9af11",
"e8 c #e9b012",
"d5 c #e9b013",
"gK c #e9b014",
"fH c #e9b113",
"eT c #e9b114",
"eN c #e9b115",
"fK c #e9b215",
"dI c #e9b21d",
"cE c #e9b425",
"a3 c #e9d953",
"e9 c #eab215",
"dH c #eab21c",
"eM c #eab315",
"gL c #eab415",
"eU c #eab419",
"dQ c #eab41a",
"cD c #eab624",
"eF c #eab723",
"f7 c #ebb215",
"e1 c #ebb315",
"fV c #ebb415",
"eb c #ebb51a",
"eD c #ebb61f",
"cW c #ebb719",
"gJ c #ebb71e",
"d4 c #ebba1e",
"fe c #ebc543",
"a7 c #ebd5aa",
"e0 c #ecb515",
"fU c #ecb615",
"eE c #ecb81f",
"gp c #ecba20",
"e7 c #ecbc20",
"eR c #ecbc21",
"dG c #ecbc27",
"cC c #ecbc2c",
"aa c #ecc03f",
"aM c #ecd8b3",
"f. c #edb615",
"f9 c #edb616",
"f8 c #edb716",
"gj c #edbe2f",
"#U c #edc240",
"au c #edd84d",
"av c #edd850",
"at c #edd967",
"gX c #eeb515",
"gY c #eeb616",
"f# c #eeb91a",
"as c #eedcb8",
"g. c #efb816",
"gW c #efbc1f",
"ar c #efdebd",
"fl c #f0d23e",
"#m c #f1df54",
".P c #f2c843",
".M c #f2c943",
"#p c #f3e255",
"#b c #f3e356",
"gl c #f4c937",
"gk c #f4ca38",
".D c #f4ce46",
".A c #f4cf46",
"et c #f5df4d",
"#g c #f5e657",
"fJ c #f6ce3e",
"ei c #f6ce3f",
"es c #f6e24e",
"dm c #f6e24f",
"cn c #f6e250",
"er c #f6e35f",
"fW c #f7d040",
"fn c #f7e24a",
"eh c #f8d140",
"dR c #f8d145",
"b1 c #f8d246",
"eV c #f8d345",
"cr c #f8d347",
"bE c #f8d74b",
"fm c #f8e44c",
"eO c #f8e54e",
"dl c #f8e853",
"dk c #f8e860",
"bX c #f8ea54",
"gU c #f9d342",
"dS c #f9d349",
"dT c #f9d448",
"fo c #f9d84a",
".6 c #f9e655",
".3 c #f9e656",
"e2 c #f9e750",
"aw c #f9ea58",
"bA c #f9ec68",
"dj c #f9edbc",
"di c #f9edc5",
"dh c #f9eec4",
"#F c #f9ef5c",
"aF c #f9efb3",
"bK c #fad547",
"el c #fad548",
".O c #fad549",
"ac c #fad64a",
"dW c #fad64b",
"dw c #fad64d",
"ae c #fad74b",
"dx c #fad751",
"bp c #fadb5d",
"dV c #fadc4d",
"ek c #fadc4e",
"e5 c #fadc4f",
"dv c #fadd52",
"gm c #fae351",
"eq c #faecb5",
"ep c #faecb8",
"#H c #faed5a",
"cl c #faed61",
"gI c #fbd64b",
".N c #fbd74a",
"fY c #fbd74c",
"fX c #fbd84d",
"go c #fbe856",
".5 c #fbea57",
"ej c #fbec58",
"cm c #fbef58",
"eo c #fbefbe",
"cB c #fbf064",
"dg c #fbf1c4",
"ck c #fbf2c3",
"ci c #fbf3cf",
"cj c #fbf3d1",
"ec c #fcd749",
"bJ c #fcd848",
"ab c #fcd84b",
"fa c #fcd947",
"b5 c #fcd94b",
"#W c #fcd94c",
"#2 c #fcda4c",
"bo c #fcde5f",
".4 c #fcea58",
"gn c #fceb58",
"cM c #fcee59",
"c4 c #fcee5a",
"cs c #fcee62",
"ad c #fcef5b",
"fZ c #fcf05c",
"cV c #fcf158",
"#1 c #fcf15c",
"dF c #fcf260",
"df c #fcf2c5",
"e6 c #fcf35c",
"eQ c #fcf35d",
"f1 c #fcf45e",
"bj c #fcf464",
"ch c #fcf5cf",
"bi c #fcf7c8",
"af c #fdd94b",
".C c #fdda4c",
"ed c #fdda4d",
"ax c #fdf35e",
"b6 c #fdf3b6",
"d3 c #fdf45c",
"du c #fdf45f",
"bq c #fdf4b5",
"bL c #fdf4c1",
"bP c #fdf559",
"aT c #fdf55c",
"bQ c #fdf55d",
"ay c #fdf55e",
"#o c #fdf55f",
"b# c #fdf560",
"ca c #fdf561",
"bc c #fdf562",
"ba c #fdf563",
"bb c #fdf564",
"bt c #fdf565",
"c. c #fdf566",
"cb c #fdf568",
"c# c #fdf569",
"ct c #fdf56a",
"em c #fdf5be",
"cg c #fdf5cf",
"cN c #fdf65d",
"#0 c #fdf65e",
"#G c #fdf65f",
"#e c #fdf660",
"dE c #fdf662",
"bV c #fdf667",
"cA c #fdf668",
"az c #fdf669",
"aU c #fdf66c",
"bd c #fdf66f",
"da c #fdf670",
"d# c #fdf671",
"c9 c #fdf672",
"db c #fdf673",
"d. c #fdf674",
"cw c #fdf675",
"bs c #fdf676",
"bO c #fdf679",
"b. c #fdf67e",
"b9 c #fdf680",
"c8 c #fdf684",
"c5 c #fdf6b4",
"cf c #fdf6d0",
"dy c #fdf6d3",
"#f c #fdf760",
"f0 c #fdf761",
"bg c #fdf8d8",
"bh c #fdf8da",
"b2 c #feda4c",
"#V c #fedb4c",
"gV c #fedb4e",
"fc c #fedc4c",
".B c #fedc4d",
"fb c #fedd4d",
"bF c #fedf4e",
"#X c #fef35d",
"aD c #fef5c3",
"aE c #fef5c5",
"e4 c #fef661",
"dX c #fef6dd",
"eP c #fef761",
"c7 c #fef7ca",
"c6 c #fef7cf",
"cU c #fef85d",
"d2 c #fef85e",
"#n c #fef860",
"cT c #fef86d",
"bz c #fef86f",
"d1 c #fef874",
"dc c #fefac0",
"aC c #fefac6",
"cu c #fefbbe",
"aA c #fefbbf",
"bu c #fefbc3",
"by c #fefbc5",
"aB c #fefbc8",
"cc c #fefbca",
"de c #fefbcd",
"br c #fefbce",
"bw c #fefbcf",
"bx c #fefbd0",
"bv c #fefbd1",
"ce c #fefbd5",
"a9 c #fefbda",
"cO c #fefcc7",
"cz c #fefccf",
"dd c #fefcd0",
"be c #fefcd3",
"b8 c #fefcd4",
"cy c #fefcd5",
"bR c #fefcd6",
"cd c #fefcd7",
"cx c #fefcd8",
"cv c #fefcd9",
"aV c #fefcdb",
"b7 c #fefdda",
"en c #fefddd",
"#3 c #ffdc4c",
"ee c #ffde4e",
"fd c #ffdf4d",
"aQ c #fff85c",
"bW c #fff85e",
"aR c #fff860",
"aS c #fff861",
"bk c #fff95f",
"#Z c #fff961",
"e3 c #fff963",
"aP c #fff97d",
"#Y c #fffa61",
"#d c #fffa62",
"a1 c #fffa67",
"dD c #fffcd7",
"dC c #fffcdb",
"bf c #fffcdd",
"#c c #fffd63",
"a0 c #fffdd4",
"dB c #fffddf",
"a8 c #fffde0",
"bN c #fffde3",
"aX c #fffde4",
"aW c #fffde6",
"cQ c #fffde8",
"bU c #fffed8",
"cS c #fffedd",
"d0 c #fffee1",
"cP c #fffee3",
"bS c #fffee5",
"cR c #fffee6",
"bM c #fffeea",
"dA c #fffef5",
"a2 c #ffff62",
"aY c #ffffe5",
"aO c #ffffe6",
"aZ c #ffffe7",
"bT c #ffffe8",
"dZ c #ffffea",
"aN c #ffffec",
"dz c #fffff7",
"dY c #ffffff",
"QtQtQtQtQtQtQtQtQtQtQtQtQtQtQtQtQtQtQtQtQtQtQtQtQtQtQtQtQtQtQtQtQtQtQtQtQtQtQtQtQtQtQtQtQtQtQtQtQtQtQtQtQtQtQtQtQtQtQtQtQtQtQtQt",
"QtQtQtQtQtQtQtQtQtQtQtQtQtQtQtQtQtQtQtQtQtQtQtQtQtQtQtQtQtQtQtQtQtQtQtQtQtQtQtQtQtQtQtQtQtQtQtQtQtQtQtQtQtQtQtQtQtQtQtQtQtQtQtQt",
"QtQtQtQtQtQtQtQtQtQtQtQtQtQtQtQtQtQtQtQtQtQtQtQtQtQtQtQtQtQtQtQtQtQtQtQtQtQtQtQtQtQtQtQtQtQtQtQtQtQtQtQtQtQtQtQtQtQtQtQtQtQtQtQt",
"QtQtQtQtQtQtQtQtQtQtQtQtQtQtQtQtQtQtQtQtQtQtQtQtQtQtQtQtQtQtQtQtQtQtQtQtQtQtQtQtQtQtQtQtQtQtQtQtQtQtQtQtQtQtQtQtQtQtQtQtQtQtQtQt",
"QtQtQtQtQtQtQtQtQtQtQtQtQtQtQtQtQtQtQtQtQtQtQtQtQtQtQtQtQtQtQtQtQtQtQtQtQtQtQtQtQtQtQtQtQtQtQtQtQtQtQtQtQtQtQtQtQtQtQtQtQtQtQtQt",
"QtQtQtQtQtQtQtQtQtQtQtQtQtQtQtQtQtQtQtQtQtQtQtQtQtQtQtQtQtQtQtQtQtQtQtQtQtQtQtQtQtQtQtQtQtQtQtQtQtQtQtQtQtQtQtQtQtQtQtQtQtQtQtQt",
"QtQtQtQtQtQtQtQtQtQtQtQtQtQtQtQtQtQtQtQtQtQtQtQtQtQtQtQtQtQtQtQtQtQtQtQtQtQtQtQtQtQtQtQtQtQtQtQtQtQtQtQtQtQtQtQtQtQtQtQtQtQtQtQt",
"QtQtQtQtQtQtQtQtQtQtQtQtQtQtQtQtQtQtQtQtQtQtQtQtQtQtQtQtQtQtQtQtQtQtQtQtQtQtQtQtQtQtQtQtQtQtQtQtQtQtQtQtQtQtQtQtQtQtQtQtQtQtQtQt",
"QtQtQtQtQtQtQtQtQtQtQtQtQtQtQtQtQtQtQtQtQtQtQtQtQtQtQtQtQtQtQtQtQtQtQtQtQtQtQtQtQtQtQtQtQtQtQtQtQtQtQtQtQtQtQtQtQtQtQtQtQtQtQtQt",
"QtQtQtQtQtQtQtQtQtQtQtQtQtQtQtQtQtQtQtQtQtQtQtQtQtQtQtQtQtQtQtQtQtQtQtQtQtQtQtQtQtQtQtQtQtQtQtQtQtQtQtQtQtQtQtQtQtQtQtQtQtQtQtQt",
"QtQtQtQtQtQtQtQtQtQtQtQtQtQtQtQtQtQtQtQtQtQtQtQtQtQtQtQtQtQtQtQtQtQtQtQtQtQtQtQtQtQtQtQtQtQtQtQtQtQtQtQtQtQtQtQtQtQtQtQtQtQtQtQt",
"QtQtQtQtQtQtQtQtQtQtQtQtQtQtQtQtQtQtQtQtQtQtQtQtQtQtQtQtQtQtQtQtQtQtQtQtQtQtQtQtQtQtQtQtQtQtQtQtQtQtQtQtQtQtQtQtQtQtQtQtQtQtQtQt",
"QtQtQtQtQtQtQtQtQtQtQtQtQtQtQtQtQtQtQtQtQtQtQtQtQtQtQtQtQtQtQtQtQtQtQtQtQtQtQtQtQtQtQtQtQtQtQtQtQtQtQtQtQtQtQtQtQtQtQtQtQtQtQtQt",
"QtQtQtQtQtQtQtQtQtQtQtQtQtQtQtQtQtQtQtQtQtQtQtQtQtQtQtQtQtQtQtQtQtQtQtQtQtQtQtQtQtQtQtQtQtQtQtQtQtQtQtQtQtQtQtQtQtQtQtQtQtQtQtQt",
"QtQtQtQtQtQtQtQtQtQtQtQtQtQtQtQtQtQtQtQtQtQtQtQtQtQtQtQtQtQtQtQtQtQtQtQtQt.#.a.b.c.c.b.a.#QtQtQtQtQtQtQtQtQtQtQtQtQtQtQtQtQtQtQt",
"QtQtQtQtQtQtQtQtQtQtQtQtQtQtQtQtQtQtQtQtQtQtQtQtQtQtQtQtQtQtQtQtQtQtQtQtQt.d.e.f.f.f.f.e.gQtQtQtQtQtQtQtQtQtQtQtQtQtQtQtQtQtQtQt",
"QtQtQtQtQtQtQtQtQtQtQtQtQtQtQtQtQtQtQtQtQtQtQtQtQtQtQtQtQtQtQtQtQtQtQtQtQt.h.i.j.k.k.j.i.lQtQtQtQtQtQtQtQtQtQtQtQtQtQtQtQtQtQtQt",
"QtQtQtQtQtQtQtQtQtQtQtQtQtQtQtQtQtQtQtQtQtQtQtQtQtQtQtQt.m.c.n.o.o.o.o.o.p.q.r.s.t.t.s.u.q.v.w.#QtQtQtQtQtQtQtQtQtQtQtQtQtQtQtQt",
"QtQtQtQtQtQtQtQtQtQtQtQtQtQtQtQtQtQtQtQtQtQtQtQtQtQtQtQt.h.x.f.f.f.f.f.f.y.z.A.B.C.C.B.D.E.y.F.GQtQtQtQtQtQtQtQtQtQtQtQtQtQtQtQt",
"QtQtQtQtQtQtQtQtQtQtQtQtQtQtQtQtQtQtQtQtQtQtQtQtQtQtQtQt.H.I.J.J.J.J.J.J.K.L.M.N.O.O.N.P.Q.K.R.#QtQtQtQtQtQtQtQtQtQtQtQtQtQtQtQt",
"QtQtQtQtQtQtQtQtQtQtQtQtQtQtQtQtQtQtQt.S.T.U.V.V.V.V.V.W.X.Y.Z.0.0.0.0.0.1.2.3.4.5.5.4.6.2.7.8.9#..o.#QtQtQtQtQtQtQtQtQtQtQtQtQt",
"QtQtQtQtQtQtQtQtQtQtQtQtQtQtQtQtQtQtQt.m##.f.f.f.f.f.f.y#a#b#c#d#d#d#d#d#d#d#e#e#e#e#e#f#d#c#g#h.y.x.hQtQtQtQtQtQtQtQtQtQtQtQtQt",
"QtQtQtQtQtQtQtQtQtQtQtQtQtQtQtQtQtQtQt.S#i#j#j#k#k#k#k.j#l#m#n#o#o#o#o#o#o#o#o#o#o#o#o#o#o#n#p#q#r#s#tQtQtQtQtQtQtQtQtQtQtQtQtQt",
"QtQtQtQtQtQtQtQtQtQtQt#u#v#v#v#v#v#v#w#x#y#z#A#B#C#D#D#D#E#F#G#o#o#o#o#o#o#o#o#o#o#o#o#o#o#G#H#I#J#K#L#M#N#OQtQtQtQtQtQtQtQtQtQt",
"QtQtQtQtQtQtQtQtQtQtQt#P#Q#Q#R.f.f.f#S#T#U#V#W#X#Y#Z#Z#Z#Z#G#o#o#o#o#o#o#o#o#o#o#o#o#o#o#o#0#1#2#3#4#5#6#7#8QtQtQtQtQtQtQtQtQtQt",
"QtQtQtQtQtQtQtQt.S#9.Sa..f.f.f.f.f.fa##Taaabacad#G#o#o#o#o#o#o#o#o#o#o#o#o#o#o#o#o#o#o#o#o#G#1aeafagahaiajakalamQtQtQtQtQtQtQtQt",
"QtQtQtQtQtQtQtQtanaoapaqarasatauavavavavawadadax#o#o#o#o#o#o#o#o#o#o#o#o#o#o#o#o#o#oayazaAaBaCaDaEaFaGaHaIaJaKaLQtQtQtQtQtQtQtQt",
"QtQtQtQtQtQtQtQt.f#Q.yaMaNaOaPaQaRaSaSaS#e#G#G#o#o#o#o#o#o#o#o#o#o#o#oayayayayayayayaTaUaVaWaXaYaZa0a1a2a3a4a5a6QtQtQtQtQtQtQtQt",
"QtQtQtQtQtQtQtQt.f#Q.ya7a8a9b.b#bab##o#o#o#o#o#o#o#o#o#o#o#o#o#o#o#o#obabbbabababababcbdbebfaVbgbhbibjbkbla4a5a6QtQtQtQtQtQtQtQt",
"QtQtQtQtQtQtQtQt.f#RbmbnbobpbqbebrbsaT#o#o#o#o#o#o#o#o#o#o#o#o#o#oaybtbubvbwbwbwbwbwbxbybsbzbAbBbCbDbEbFbGbHa5a6QtQtQtQtQtQtQtQt",
"QtQtQtQtQtQtQtQt.f#RbmbIbJbKbLbMbNbObPbQ#o#o#o#o#o#obQbQbQbQbQbQbQaTbbbRaWaXbSbSbSaObTbUbVbWbXbYbZb0b1b2b3bHa5a6QtQtQtQtQtQtQtQt",
"QtQtQtQtQtQtQtQt.f#Rbmb4b5acb6b7b8b9c.c#ca#o#o#o#o#ocbc#c#c#c#c#c#cbbdcccdcecfcgchcicjckclcmcncocpcqcr#Vb3bHa5a6QtQtQtQtQtQtQtQt",
"QtQtQtQtQtQtQtQt.f#Rbmb4b5accsazctcucvb8cwaT#o#oaybcbucxcycycycycybRczcwcAcBcCcDcEcFcGcHcIcIcJcKcLcqcr#Vb3bHa5a6QtQtQtQtQtQtQtQt",
"QtQtQtQtQtQtQtQt.f#Rbmb4b5accMcNaycObMcPbsbPaTaTaTb#bwcQaXcRaOaOaOaZcScTcUcVcWcXcYcZc0c0c1c1c1cLc2c3cr#Vb3bHa5a6QtQtQtQtQtQtQtQt",
"QtQtQtQtQtQtQtQt.f#Rbmb4b5acc4#G#oc5c6c7c8c9d.d#dadbdcdddedfdgdgdhdidjdkdldmdndodpdqcKcKbYbYdrcqdsdtcr#Vb3bHa5a6QtQtQtQtQtQtQtQt",
"QtQtQtQtQtQtQtQt.f#Rbmb4b5acc4#edudvdwdxdydzdAdBdCdDcwdEdFdGdHdIdJdKdKdLdMdMdNdNdNcKcKdqdOdPdQdRdSdTac.Cb3bHa5a6QtQtQtQtQtQtQtQt",
"QtQtQtQtQtQtQtQt.f#RbmdU#2aec4#edudVbKdWdXdYdYdZaOd0d1d2d3d4d5d6d7d8d9d9e.e.e.e.e.cLcLe#ead5ebeced.C.CeeefbHa5a6QtQtQtQtQtQtQtQt",
"QtQtQtQtQtQtQtQt.f#Rbmegeheiej#eduekeldWemenaVeoepeqereseteuevewdqcKcKcKcKcKexeyezeAeBeCeDeEeFeGeHeIeIeJeKaJaLaLQtQtQtQtQtQtQtQt",
"QtQtQtQtQtQtQtQt.f.fa#eLeMeNeOePduek.Oacad#eeQeRd5eSexe.cKcKcKcKcKcKcKcKcKdqdOeTeUeVaeacacafeWeXaieYeYeYajakalamQtQtQtQtQtQtQtQt",
"QtQtQtQtQtQtQtQt.f.fa#eZe0e1e2e3e4e5.Oacad#Ge6e7e8dPexe.cKcKcKcKe.e.e.e.e.dqe9f.f#fafbfcfcfdfeff#6fgfgfgfh#8QtQtQtQtQtQtQtQtQtQt",
"QtQtQtQtQtQtQtQt#v#v#wfifjfkflfmfnfoacacad#eeQeRd5eSexe.cKcKcKcKfpfqfqfqfrfsftfufvfwfxfyfyfzfAfBfCfDfDfE#N#OQtQtQtQtQtQtQtQtQtQt",
"QtQtQtQtQtQtQtQtQtQtQtfF#S#SfGfHfIfJaeacad#eeQeRd5eSexe.cKcKcKdNdOfKeNeNe1fLfMfNfOfPfPfPfPfPfQfRQtQtQtQtQtQtQtQtQtQtQtQtQtQtQtQt",
"QtQtQtQtQtQtQtQtQtQtQtfS.f.ffTfUfVfWfXfYfZf0f1eRd5eSf2f3e.f4f5f6f7f8f9f9g.g#gagba6a6a6a6a6a6gcgdQtQtQtQtQtQtQtQtQtQtQtQtQtQtQtQt",
"QtQtQtQtQtQtQtQtQtQtQt.bgegfggghgigjgkglgmgngogpd5eSgqgrgsgtgugvgwgxgygygzgAgBgCgDgDgDgDgDgDgE#8QtQtQtQtQtQtQtQtQtQtQtQtQtQtQtQt",
"QtQtQtQtQtQtQtQtQtQtQtQtQtQtgFgGgGgHfHfIeigIdTgJgKeNfKgLgMgNgOgPfNgQgQgQgQgRgSQtQtQtQtQtQtQtQtQtQtQtQtQtQtQtQtQtQtQtQtQtQtQtQtQt",
"QtQtQtQtQtQtQtQtQtQtQtQtQt#9an.f.fgTfUfVgUgVb5gWgXgYgYg.gZg0g1a6a6a6a6a6a6g2g3QtQtQtQtQtQtQtQtQtQtQtQtQtQtQtQtQtQtQtQtQtQtQtQtQt",
"QtQtQtQtQtQtQtQtQtQtQtQtQt#9g4.n.ng5g6g7g8g9h.h#hahbhbhbhchdhehfhfhfhfhfhghhfRQtQtQtQtQtQtQtQtQtQtQtQtQtQtQtQtQtQtQtQtQtQtQtQtQt",
"QtQtQtQtQtQtQtQtQtQtQtQtQtQtQtQtQthigGgG.k.jhjhkgOgQgQgQhlhmQtQtQtQtQtQtQtQtQtQtQtQtQtQtQtQtQtQtQtQtQtQtQtQtQtQtQtQtQtQtQtQtQtQt",
"QtQtQtQtQtQtQtQtQtQtQtQtQtQtQtQt.Shn.f.f.f.f#jhohpa6a6a6hqhrQtQtQtQtQtQtQtQtQtQtQtQtQtQtQtQtQtQtQtQtQtQtQtQtQtQtQtQtQtQtQtQtQtQt",
"QtQtQtQtQtQtQtQtQtQtQtQtQtQtQtQt#9hs.chthththuhvhwhwhwhwhxhyQtQtQtQtQtQtQtQtQtQtQtQtQtQtQtQtQtQtQtQtQtQtQtQtQtQtQtQtQtQtQtQtQtQt",
"QtQtQtQtQtQtQtQtQtQtQtQtQtQtQtQtQtQtQtQtQtQtQtQtQtQtQtQtQtQtQtQtQtQtQtQtQtQtQtQtQtQtQtQtQtQtQtQtQtQtQtQtQtQtQtQtQtQtQtQtQtQtQtQt",
"QtQtQtQtQtQtQtQtQtQtQtQtQtQtQtQtQtQtQtQtQtQtQtQtQtQtQtQtQtQtQtQtQtQtQtQtQtQtQtQtQtQtQtQtQtQtQtQtQtQtQtQtQtQtQtQtQtQtQtQtQtQtQtQt",
"QtQtQtQtQtQtQtQtQtQtQtQtQtQtQtQtQtQtQtQtQtQtQtQtQtQtQtQtQtQtQtQtQtQtQtQtQtQtQtQtQtQtQtQtQtQtQtQtQtQtQtQtQtQtQtQtQtQtQtQtQtQtQtQt",
"QtQtQtQtQtQtQtQtQtQtQtQtQtQtQtQtQtQtQtQtQtQtQtQtQtQtQtQtQtQtQtQtQtQtQtQtQtQtQtQtQtQtQtQtQtQtQtQtQtQtQtQtQtQtQtQtQtQtQtQtQtQtQtQt",
"QtQtQtQtQtQtQtQtQtQtQtQtQtQtQtQtQtQtQtQtQtQtQtQtQtQtQtQtQtQtQtQtQtQtQtQtQtQtQtQtQtQtQtQtQtQtQtQtQtQtQtQtQtQtQtQtQtQtQtQtQtQtQtQt",
"QtQtQtQtQtQtQtQtQtQtQtQtQtQtQtQtQtQtQtQtQtQtQtQtQtQtQtQtQtQtQtQtQtQtQtQtQtQtQtQtQtQtQtQtQtQtQtQtQtQtQtQtQtQtQtQtQtQtQtQtQtQtQtQt",
"QtQtQtQtQtQtQtQtQtQtQtQtQtQtQtQtQtQtQtQtQtQtQtQtQtQtQtQtQtQtQtQtQtQtQtQtQtQtQtQtQtQtQtQtQtQtQtQtQtQtQtQtQtQtQtQtQtQtQtQtQtQtQtQt",
"QtQtQtQtQtQtQtQtQtQtQtQtQtQtQtQtQtQtQtQtQtQtQtQtQtQtQtQtQtQtQtQtQtQtQtQtQtQtQtQtQtQtQtQtQtQtQtQtQtQtQtQtQtQtQtQtQtQtQtQtQtQtQtQt",
"QtQtQtQtQtQtQtQtQtQtQtQtQtQtQtQtQtQtQtQtQtQtQtQtQtQtQtQtQtQtQtQtQtQtQtQtQtQtQtQtQtQtQtQtQtQtQtQtQtQtQtQtQtQtQtQtQtQtQtQtQtQtQtQt",
"QtQtQtQtQtQtQtQtQtQtQtQtQtQtQtQtQtQtQtQtQtQtQtQtQtQtQtQtQtQtQtQtQtQtQtQtQtQtQtQtQtQtQtQtQtQtQtQtQtQtQtQtQtQtQtQtQtQtQtQtQtQtQtQt",
"QtQtQtQtQtQtQtQtQtQtQtQtQtQtQtQtQtQtQtQtQtQtQtQtQtQtQtQtQtQtQtQtQtQtQtQtQtQtQtQtQtQtQtQtQtQtQtQtQtQtQtQtQtQtQtQtQtQtQtQtQtQtQtQt",
"QtQtQtQtQtQtQtQtQtQtQtQtQtQtQtQtQtQtQtQtQtQtQtQtQtQtQtQtQtQtQtQtQtQtQtQtQtQtQtQtQtQtQtQtQtQtQtQtQtQtQtQtQtQtQtQtQtQtQtQtQtQtQtQt",
"QtQtQtQtQtQtQtQtQtQtQtQtQtQtQtQtQtQtQtQtQtQtQtQtQtQtQtQtQtQtQtQtQtQtQtQtQtQtQtQtQtQtQtQtQtQtQtQtQtQtQtQtQtQtQtQtQtQtQtQtQtQtQtQt",
"QtQtQtQtQtQtQtQtQtQtQtQtQtQtQtQtQtQtQtQtQtQtQtQtQtQtQtQtQtQtQtQtQtQtQtQtQtQtQtQtQtQtQtQtQtQtQtQtQtQtQtQtQtQtQtQtQtQtQtQtQtQtQtQt"};
