/* XPM */
static char *dummy[]={
"64 64 161 2",
"ag c #301e0d",
".2 c #301f0d",
"ae c #301f0e",
"au c #301f0f",
".o c #30200e",
".s c #30200f",
".3 c #30210f",
"af c #311f0d",
".w c #311f0e",
".1 c #31200d",
".x c #31200e",
".a c #31200f",
".p c #31210f",
".v c #32200e",
"#9 c #32210e",
".# c #32210f",
".t c #32220f",
".C c #33210f",
".y c #33220f",
"#h c #332210",
".A c #332212",
"#7 c #332312",
"## c #34220f",
"#g c #342210",
"#b c #342310",
".z c #342312",
"#6 c #342412",
"#a c #352310",
"a# c #352410",
".f c #362310",
".k c #362311",
".H c #362411",
".g c #372411",
"ac c #37250e",
".9 c #372819",
".4 c #382411",
".L c #382412",
".l c #382511",
"av c #382512",
"ad c #38260f",
".8 c #382918",
".Z c #38291a",
"ax c #392511",
".S c #392512",
"ay c #392612",
"ab c #392711",
"aa c #392812",
".Y c #392a1a",
"#c c #3a2612",
"at c #3d2813",
"ai c #3d2f21",
".r c #3e2813",
"a. c #3f2813",
"aB c #3f2914",
"as c #3f2a14",
"#f c #402914",
".n c #402a14",
".6 c #412915",
".j c #412a14",
".5 c #422915",
".7 c #422a16",
".J c #422b15",
"#i c #422d15",
".I c #432b15",
".e c #432c15",
"aw c #442c15",
".R c #442c16",
".Q c #452c16",
"#e c #452d16",
"#W c #462c16",
"#d c #462d16",
"aA c #472e17",
"#q c #482c17",
"az c #482e17",
"#D c #492d17",
"ah c #492f16",
".b c #492f17",
"aE c #493017",
".B c #493018",
"aC c #4a2f17",
"#8 c #4a3018",
"#. c #4a3119",
".0 c #4b311a",
".q c #4c3118",
"aj c #4c331b",
".h c #4d3118",
".u c #4d3219",
".m c #4e3219",
"#A c #4f321b",
".K c #4f3319",
".G c #503218",
"ar c #503318",
".M c #50331a",
"#p c #50341a",
".d c #51341a",
"#m c #513614",
".i c #52341a",
".c c #52351a",
"aD c #53361a",
"#l c #553c1b",
"aq c #553e2a",
"#k c #563d1d",
".F c #56402c",
"#j c #573e1d",
".X c #57412e",
".P c #58422f",
"an c #584330",
"#5 c #5d3e17",
"#z c #5e3e17",
"#M c #5f3f17",
"ao c #625f5b",
"ap c #63605d",
".D c #676563",
"#U c #686664",
".E c #686765",
"#V c #696866",
"#n c #6c6b6a",
".V c #6c6c6b",
"#o c #6d6d6c",
".W c #6d6e6d",
"ak c #6f6f6f",
".T c #6f7070",
"#B c #707070",
".N c #707171",
".U c #707272",
"al c #717172",
"#C c #717272",
".O c #717373",
"Qt c #727272",
"am c #727374",
"#X c #896b2e",
"#r c #8f7030",
"#E c #957532",
"#N c #967633",
"#4 c #b78403",
"#2 c #ba8702",
"#3 c #bb8802",
"#y c #c18b02",
"#w c #c58e01",
"#x c #c58f01",
"#L c #ca9201",
"#T c #cb9301",
"#J c #ce9500",
"#K c #cf9600",
"#S c #d09700",
"#1 c #e0ba42",
"#Z c #e8c651",
"#0 c #e8c852",
"#Y c #e8cc52",
"#v c #ecc546",
"#t c #f5d155",
"#u c #f5d357",
"#s c #f5d857",
"#I c #f8d04a",
"#R c #fad14a",
"#G c #ffdd5a",
"#P c #ffdf5a",
"#H c #ffdf5c",
"#Q c #ffe15c",
"#F c #ffe45c",
"#O c #ffe65c",
"QtQtQtQtQtQtQtQtQtQtQtQtQtQtQtQtQtQtQtQtQtQtQtQtQtQtQtQtQtQtQtQtQtQtQtQtQtQtQtQtQtQtQtQtQtQtQtQtQtQtQtQtQtQtQtQtQtQtQtQtQtQtQtQt",
"QtQtQtQtQtQtQtQtQtQtQtQtQtQtQtQtQtQtQtQtQtQtQtQtQtQtQtQtQtQtQtQtQtQtQtQtQtQtQtQtQtQtQtQtQtQtQtQtQtQtQtQtQtQtQtQtQtQtQtQtQtQtQtQt",
"QtQtQtQtQtQtQtQtQtQtQtQtQtQtQtQtQtQtQtQtQtQtQtQtQtQtQtQtQtQtQtQtQtQtQtQtQtQtQtQtQtQtQtQtQtQtQtQtQtQtQtQtQtQtQtQtQtQtQtQtQtQtQtQt",
"QtQtQtQtQtQtQtQtQtQtQtQtQtQtQtQtQtQtQtQtQtQtQtQtQtQtQtQtQtQtQtQtQtQtQtQtQtQtQtQtQtQtQtQtQtQtQtQtQtQtQtQtQtQtQtQtQtQtQtQtQtQtQtQt",
"QtQtQtQtQtQtQtQtQtQtQtQtQtQtQtQtQtQtQtQtQtQtQtQtQtQtQtQtQtQtQtQtQtQtQtQtQtQtQtQtQtQtQtQtQtQtQtQtQtQtQtQtQtQtQtQtQtQtQtQtQtQtQtQt",
"QtQtQtQtQtQtQtQtQtQtQtQtQtQtQtQtQtQtQtQtQtQtQtQtQtQtQtQtQtQtQtQtQtQtQtQtQtQtQtQtQtQtQtQtQtQtQtQtQtQtQtQtQtQtQtQtQtQtQtQtQtQtQtQt",
"QtQtQtQtQtQtQtQtQtQtQtQtQtQtQtQtQtQtQtQtQtQtQtQtQtQtQtQtQtQtQtQtQtQtQtQtQtQtQtQtQtQtQtQtQtQtQtQtQtQtQtQtQtQtQtQtQtQtQtQtQtQtQtQt",
"QtQtQtQtQtQtQtQtQtQtQtQtQtQtQtQtQtQtQtQtQtQtQtQtQtQtQtQtQtQtQtQtQtQtQtQtQtQtQtQtQtQtQtQtQtQtQtQtQtQtQtQtQtQtQtQtQtQtQtQtQtQtQtQt",
"QtQtQtQtQtQtQtQtQtQtQt.#.#.#.a.b.c.d.d.d.d.d.d.d.d.d.d.d.d.d.d.d.d.d.d.d.d.d.d.d.d.d.d.d.d.d.d.d.d.d.d.d.dQtQtQtQtQtQtQtQtQtQtQt",
"QtQtQtQtQtQtQtQtQtQtQt.#.#.#.a.b.c.d.d.d.d.d.d.d.d.d.d.d.d.d.d.d.d.d.d.d.d.d.d.d.d.d.d.d.d.d.d.d.d.d.d.d.dQtQtQtQtQtQtQtQtQtQtQt",
"QtQtQtQtQtQtQtQtQtQtQt.#.#.#.a.b.c.d.d.d.d.d.d.d.d.d.d.d.d.d.d.d.d.d.d.d.d.d.d.d.d.d.d.d.d.d.d.d.d.d.d.d.dQtQtQtQtQtQtQtQtQtQtQt",
"QtQtQtQtQtQtQtQtQtQtQt.#.#.#.a.b.c.d.d.d.d.d.d.d.d.d.d.d.d.d.d.d.d.d.d.d.d.d.d.d.d.d.d.d.d.d.d.d.d.d.d.d.dQtQtQtQtQtQtQtQtQtQtQt",
"QtQtQtQtQtQtQtQtQtQtQt.#.#.#.a.b.c.d.c.e.f.g.g.g.g.g.g.g.g.g.g.g.h.i.d.c.j.k.g.g.g.g.g.g.g.g.g.g.l.m.i.d.dQtQtQtQtQtQtQtQtQtQtQt",
"QtQtQtQtQtQtQtQtQtQtQt.#.#.#.a.b.c.d.c.n.o.p.p.p.p.p.p.p.p.p.p.p.q.i.d.c.r.s.p.p.p.p.p.p.p.p.p.p.t.u.i.d.dQtQtQtQtQtQtQtQtQtQtQt",
"QtQtQtQtQtQtQtQtQtQtQt.v.v.v.w.b.c.d.c.n.x.#.#.#.#.#.#.#.#.#.#.#.q.i.d.c.r.a.#.#.#.#.#.#.#.#.#.#.y.u.i.d.dQtQtQtQtQtQtQtQtQtQtQt",
"QtQtQtQtQtQtQtQtQtQtQt.z.z.z.A.B.c.d.c.n.x.#.#.#.C.#.#.#.#.#.#.#.q.i.d.c.r.a.#.#.#.C.#.#.#.#.#.#.y.u.i.d.dQtQtQtQtQtQtQtQtQtQtQt",
"QtQtQtQtQtQtQtQtQtQtQt.D.D.D.E.F.G.d.c.n.x.#.p.H.I.J.J.J.J.J.J.J.K.d.d.c.r.a.#.p.L.I.J.J.J.J.J.J.J.M.d.d.dQtQtQtQtQtQtQtQtQtQtQt",
"QtQtQtQtQtQtQtQtQtQtQt.N.N.N.O.P.G.d.c.n.x.#.p.g.Q.R.R.R.R.R.R.R.K.d.d.c.r.a.#.p.S.Q.R.R.R.R.R.R.R.M.d.d.dQtQtQtQtQtQtQtQtQtQtQt",
"QtQtQtQtQtQtQtQtQtQtQt.T.T.T.U.P.G.d.c.n.x.#.p.g.Q.R.R.R.R.R.R.R.K.d.d.c.r.a.#.p.S.Q.R.R.R.R.R.R.R.M.d.d.dQtQtQtQtQtQtQtQtQtQtQt",
"QtQtQtQtQtQtQtQtQtQtQt.V.V.V.W.X.G.d.c.n.x.#.p.g.Q.R.R.R.R.R.R.R.K.d.d.c.r.a.#.p.S.Q.R.R.R.R.R.R.R.M.d.d.dQtQtQtQtQtQtQtQtQtQtQt",
"QtQtQtQtQtQtQtQtQtQtQt.Y.Y.Y.Z.0.c.d.c.n.x.#.p.g.Q.R.R.R.R.R.R.R.K.d.d.c.r.a.#.p.S.Q.R.R.R.R.R.R.R.M.d.d.dQtQtQtQtQtQtQtQtQtQtQt",
"QtQtQtQtQtQtQtQtQtQtQt.1.1.1.2.b.c.d.c.n.x.#.p.g.Q.R.R.R.R.R.R.R.K.d.d.c.r.a.#.p.S.Q.R.R.R.R.R.R.R.M.d.d.dQtQtQtQtQtQtQtQtQtQtQt",
"QtQtQtQtQtQtQtQtQtQtQt.#.#.#.a.b.c.d.c.n.x.#.p.g.Q.R.R.R.R.R.R.R.K.d.d.c.r.a.#.p.S.Q.R.R.R.R.R.R.R.M.d.d.dQtQtQtQtQtQtQtQtQtQtQt",
"QtQtQtQtQtQtQtQtQtQtQt.#.#.#.a.b.c.d.c.n.x.#.p.g.Q.R.R.R.R.R.R.R.K.d.d.c.r.a.#.p.S.Q.R.R.R.R.R.R.R.M.d.d.dQtQtQtQtQtQtQtQtQtQtQt",
"QtQtQtQtQtQtQtQtQtQtQt.#.#.#.a.b.c.d.c.n.x.#.p.g.Q.R.R.R.R.R.R.R.K.d.d.c.r.a.#.p.S.Q.R.R.R.R.R.R.R.M.d.d.dQtQtQtQtQtQtQtQtQtQtQt",
"QtQtQtQtQtQtQtQtQtQtQt.#.#.#.a.b.c.d.c.n.x.#.p.g.Q.R.R.R.R.R.R.R.K.d.d.c.r.a.#.p.S.Q.R.R.R.R.R.R.R.M.d.d.dQtQtQtQtQtQtQtQtQtQtQt",
"QtQtQtQtQtQtQtQtQtQtQt.#.#.#.a.b.c.d.c.n.x.#.p.g.Q.R.R.R.R.R.R.R.K.d.d.c.r.a.#.p.S.Q.R.R.R.R.R.R.R.M.d.d.dQtQtQtQtQtQtQtQtQtQtQt",
"QtQtQtQtQtQtQtQtQtQtQt.#.#.#.a.b.c.d.c.n.x.#.p.g.Q.R.R.R.R.R.R.R.K.d.d.c.r.a.#.p.S.Q.R.R.R.R.R.R.R.M.d.d.dQtQtQtQtQtQtQtQtQtQtQt",
"QtQtQtQtQtQtQtQtQtQtQt.#.#.#.a.b.c.d.c.n.x.#.p.g.Q.R.R.R.R.R.R.R.K.d.d.c.r.a.#.p.S.Q.R.R.R.R.R.R.R.M.d.d.dQtQtQtQtQtQtQtQtQtQtQt",
"QtQtQtQtQtQtQtQtQtQtQt.#.#.#.a.b.c.d.c.n.x.#.p.g.Q.R.R.R.R.R.R.R.K.d.d.c.r.a.#.p.S.Q.R.R.R.R.R.R.R.M.d.d.dQtQtQtQtQtQtQtQtQtQtQt",
"QtQtQtQtQtQtQtQtQtQtQt.1.1.1.2.b.c.d.c.n.o.#.3.g.Q.R.R.R.R.R.R.R.K.d.d.c.r.s.#.p.4.5.6.6.6.7.7.7.7.M.d.d.dQtQtQtQtQtQtQtQtQtQtQt",
"QtQtQtQtQtQtQtQtQtQtQt.8.8.8.9#..c.d.c.J###a#b#c#d#e#e#e#e#e#e#e.K.d.d.c#f#g#a#h#i#j#k#k#l#m#m#m#m.d.d.d.dQtQtQtQtQtQtQtQtQtQtQt",
"QtQtQtQtQtQtQtQtQtQtQt#n#n#n#o.X.G.d.d.M.K.K.K.M#p#p#p#p#p#p#p#p.d.d.d.d.M.K.K#q#r#s#t#u#v#w#w#x#y#z#A.d.dQtQtQtQtQtQtQtQtQtQtQt",
"QtQtQtQtQtQtQtQtQtQtQt#B#B#B#C.P.G.d.d.d.d.d.d.d.d.d.d.d.d.d.d.d.d.d.d.d.d.d.d#D#E#F#G#H#I#J#J#K#L#M#A.d.dQtQtQtQtQtQtQtQtQtQtQt",
"QtQtQtQtQtQtQtQtQtQtQt.N.N.N.O.P.G.d.d.d.i.i.i.i.i.i.i.i.i.i.i.i.d.d.d.d.d.i.i#D#N#O#P#Q#R#K#K#S#T#M#A.d.dQtQtQtQtQtQtQtQtQtQtQt",
"QtQtQtQtQtQtQtQtQtQtQt#U#U#U#V.F.G.d.d.K.u.u.u.u.u.u.u.u.u.u.u.u#p.d.d.d.K.u.u#W#X#Y#Z#0#1#2#2#3#4#5#A.d.dQtQtQtQtQtQtQtQtQtQtQt",
"QtQtQtQtQtQtQtQtQtQtQt#6#6#6#7#8.c.d.c.j#9.y.y.y.y.y.y.y.y.y.y.y.q.i.d.ca..#.y.Ca#aaaaaaabacacacad.m.i.d.dQtQtQtQtQtQtQtQtQtQtQt",
"QtQtQtQtQtQtQtQtQtQtQt.v.v.v.w.b.c.d.c.n.x.#.#.#.#.#.#.#.#.#.#.#.q.i.d.c.r.a.#.#.aae.o.o.s.a.a.a.#.u.i.d.dQtQtQtQtQtQtQtQtQtQtQt",
"QtQtQtQtQtQtQtQtQtQtQt.#.#.#.a.b.c.d.c.n.x.#.#.#.#.#.#.#.#.#.#.#.q.i.d.c.r.a.#.#.#.#.#.#.#.#.#.#.y.u.i.d.dQtQtQtQtQtQtQtQtQtQtQt",
"QtQtQtQtQtQtQtQtQtQtQt.#.#.#.a.b.c.d.c.n.x.#.#.C#a#b#b#b#b#b#b#b.q.i.d.c.r.a.#.#.y#a#b#b#b#b#b#b#a.u.i.d.dQtQtQtQtQtQtQtQtQtQtQt",
"QtQtQtQtQtQtQtQtQtQtQt.#.#.#.a.b.c.d.c.n.x.#.p.g.Q.R.R.R.R.R.R.R.K.d.d.c.r.a.#.p.S.Q.R.R.R.R.R.R.R.M.d.d.dQtQtQtQtQtQtQtQtQtQtQt",
"QtQtQtQtQtQtQtQtQtQtQt.#.#.#.a.b.c.d.c.n.x.#.p.g.Q.R.R.R.R.R.R.R.K.d.d.c.r.a.#.p.S.Q.R.R.R.R.R.R.R.M.d.d.dQtQtQtQtQtQtQtQtQtQtQt",
"QtQtQtQtQtQtQtQtQtQtQt.#.#.#.a.b.c.d.c.n.x.#.p.g.Q.R.R.R.R.R.R.R.K.d.d.c.r.a.#.p.S.Q.R.R.R.R.R.R.R.M.d.d.dQtQtQtQtQtQtQtQtQtQtQt",
"QtQtQtQtQtQtQtQtQtQtQt.#.#.#.a.b.c.d.c.n.x.#.p.g.Q.R.R.R.R.R.R.R.K.d.d.c.r.a.#.p.S.Q.R.R.R.R.R.R.R.M.d.d.dQtQtQtQtQtQtQtQtQtQtQt",
"QtQtQtQtQtQtQtQtQtQtQt.#.#.#.a.b.c.d.c.n.x.#.p.g.Q.R.R.R.R.R.R.R.K.d.d.c.r.a.#.p.S.Q.R.R.R.R.R.R.R.M.d.d.dQtQtQtQtQtQtQtQtQtQtQt",
"QtQtQtQtQtQtQtQtQtQtQt.#.#.#.a.b.c.d.c.n.x.#.p.g.Q.R.R.R.R.R.R.R.K.d.d.c.r.a.#.p.S.Q.R.R.R.R.R.R.R.M.d.d.dQtQtQtQtQtQtQtQtQtQtQt",
"QtQtQtQtQtQtQtQtQtQtQtafafafagah.c.d.c.n.x.#.p.g.Q.R.R.R.R.R.R.R.K.d.d.c.r.a.#.p.S.Q.R.R.R.R.R.R.R.M.d.d.dQtQtQtQtQtQtQtQtQtQtQt",
"QtQtQtQtQtQtQtQtQtQtQtaiaiaiaiaj.i.d.c.n.x.#.p.g.Q.R.R.R.R.R.R.R.K.d.d.c.r.a.#.p.S.Q.R.R.R.R.R.R.R.M.d.d.dQtQtQtQtQtQtQtQtQtQtQt",
"QtQtQtQtQtQtQtQtQtQtQtakakak.N.P.G.d.c.n.x.#.p.g.Q.R.R.R.R.R.R.R.K.d.d.c.r.a.#.p.S.Q.R.R.R.R.R.R.R.M.d.d.dQtQtQtQtQtQtQtQtQtQtQt",
"QtQtQtQtQtQtQtQtQtQtQtakakak.N.P.G.d.c.n.x.#.p.g.Q.R.R.R.R.R.R.R.K.d.d.c.r.a.#.p.S.Q.R.R.R.R.R.R.R.M.d.d.dQtQtQtQtQtQtQtQtQtQtQt",
"QtQtQtQtQtQtQtQtQtQtQtalalalaman.G.d.c.n.x.#.p.g.Q.R.R.R.R.R.R.R.K.d.d.c.r.a.#.p.S.Q.R.R.R.R.R.R.R.M.d.d.dQtQtQtQtQtQtQtQtQtQtQt",
"QtQtQtQtQtQtQtQtQtQtQtaoaoaoapaqar.d.c.n.x.#.p.g.Q.R.R.R.R.R.R.R.K.d.d.c.r.a.#.p.S.Q.R.R.R.R.R.R.R.M.d.d.dQtQtQtQtQtQtQtQtQtQtQt",
"QtQtQtQtQtQtQtQtQtQtQt.x.x.xae.b.c.d.c.n.x.#.p.g.Q.R.R.R.R.R.R.R.K.d.d.c.r.a.#.p.S.Q.R.R.R.R.R.R.R.M.d.d.dQtQtQtQtQtQtQtQtQtQtQt",
"QtQtQtQtQtQtQtQtQtQtQt.#.#.#.a.b.c.d.c.n.x.#.p.g.Q.R.R.R.R.R.R.R.K.d.d.c.r.a.#.p.S.Q.R.R.R.R.R.R.R.M.d.d.dQtQtQtQtQtQtQtQtQtQtQt",
"QtQtQtQtQtQtQtQtQtQtQt.#.#.#.a.b.c.d.casae.a.s.k.Q.R.R.R.R.R.R.R.K.d.d.catau.a.sav.Q.R.R.R.R.R.R.R.M.d.d.dQtQtQtQtQtQtQtQtQtQtQt",
"QtQtQtQtQtQtQtQtQtQtQt.#.#.#.a.b.c.d.cawax#cayatazaAaAaAaAaAaAaA.K.d.d.c.I.S#cayaBazaAaAaAaAaAaAaA.M.d.d.dQtQtQtQtQtQtQtQtQtQtQt",
"QtQtQtQtQtQtQtQtQtQtQt.#.#.#.a.b.c.d.d.d.i.i.i.i.d.d.d.d.d.d.d.d.d.d.d.d.d.i.i.i.i.d.d.d.d.d.d.d.d.d.d.d.dQtQtQtQtQtQtQtQtQtQtQt",
"QtQtQtQtQtQtQtQtQtQtQt.#.#.#.a.b.c.d.d.d.d.d.d.d.d.d.d.d.d.d.d.d.d.d.d.d.d.d.d.d.d.d.d.d.d.d.d.d.d.d.d.d.dQtQtQtQtQtQtQtQtQtQtQt",
"QtQtQtQtQtQtQtQtQtQtQt.#.#.#.aaCaD.c.c.c.c.c.c.c.c.c.c.c.c.c.c.c.c.c.c.c.c.c.c.c.c.c.c.c.c.c.c.c.c.c.c.c.cQtQtQtQtQtQtQtQtQtQtQt",
"QtQtQtQtQtQtQtQtQtQtQt.#.#.#.a.IaE.b.b.b.b.b.b.b.b.b.b.b.b.b.b.b.b.b.b.b.b.b.b.b.b.b.b.b.b.b.b.b.b.b.b.b.bQtQtQtQtQtQtQtQtQtQtQt",
"QtQtQtQtQtQtQtQtQtQtQt.#.#.#.#.p.a.a.a.a.a.a.a.a.a.a.a.a.a.a.a.a.a.a.a.a.a.a.a.a.a.a.a.a.a.a.a.a.a.a.a.a.aQtQtQtQtQtQtQtQtQtQtQt",
"QtQtQtQtQtQtQtQtQtQtQt.#.#.#.#.#.#.#.#.#.#.#.#.#.#.#.#.#.#.#.#.#.#.#.#.#.#.#.#.#.#.#.#.#.#.#.#.#.#.#.#.#.#QtQtQtQtQtQtQtQtQtQtQt",
"QtQtQtQtQtQtQtQtQtQtQt.#.#.#.#.#.#.#.#.#.#.#.#.#.#.#.#.#.#.#.#.#.#.#.#.#.#.#.#.#.#.#.#.#.#.#.#.#.#.#.#.#.#QtQtQtQtQtQtQtQtQtQtQt",
"QtQtQtQtQtQtQtQtQtQtQt.#.#.#.#.#.#.#.#.#.#.#.#.#.#.#.#.#.#.#.#.#.#.#.#.#.#.#.#.#.#.#.#.#.#.#.#.#.#.#.#.#.#QtQtQtQtQtQtQtQtQtQtQt"};
