/* XPM */
static char *dummy[]={
"64 64 289 2",
"bz c #018a88",
"au c #028485",
"at c #028687",
"bD c #028886",
"aU c #036162",
"bv c #038788",
"aT c #046465",
"aY c #058586",
"aX c #058687",
"av c #059a9b",
"bp c #06a8a9",
"ax c #07afb1",
"bc c #07b0b1",
"bl c #07b1b2",
"aw c #07b1b3",
"bC c #088986",
"bB c #088987",
"bA c #088a87",
"br c #08a7a8",
"aL c #096c6c",
"aK c #096f6f",
"aV c #098787",
"bd c #09afb0",
"bm c #09b0b1",
"aB c #0a8585",
"aH c #0a8686",
"aA c #0a8787",
"aG c #0a8888",
"aM c #0b8d8d",
"aQ c #0b9292",
"aP c #0b9393",
"aC c #0c9a9a",
"aW c #0ca9a9",
"a4 c #0cb2b2",
"bq c #0da8a8",
"aO c #0dabab",
"a5 c #0db0b0",
"aE c #0eafaf",
"aI c #0eb0b0",
"aD c #0eb1b1",
"aN c #0eb2b2",
"a6 c #15aaa9",
"a3 c #218d89",
"bO c #235c80",
"bP c #265c80",
"bQ c #265d82",
"bE c #2b8e85",
"bw c #2c8c86",
"bS c #2f6a9b",
"bs c #2fa8a2",
"#m c #30241c",
"#r c #30251d",
"bR c #306997",
"be c #30aea8",
"bn c #30afa9",
"#H c #31251d",
"#K c #31261e",
"a1 c #317069",
"a2 c #336d66",
"b9 c #36437c",
"cd c #36437d",
"#z c #372920",
"#C c #372a21",
"c. c #37447f",
"ce c #374480",
"bZ c #38407b",
"b0 c #38407c",
"ci c #384275",
"a7 c #388f87",
"#l c #392b22",
"b1 c #39417f",
"cj c #394377",
"#G c #3a2c23",
"a8 c #3a8e86",
"am c #3b8d84",
"al c #3b8f86",
"an c #3c9d95",
"bT c #3e6c9a",
"ap c #3eada5",
"ao c #3eafa6",
"#y c #403026",
"#s c #413126",
"b6 c #4156a7",
"b5 c #4256a7",
"#L c #433227",
"cp c #43373c",
"cv c #443637",
"cB c #443638",
"cq c #45383d",
"cw c #463738",
"cC c #463739",
"c# c #4657a0",
"cf c #4657a1",
"#D c #48362a",
"ck c #485596",
"cb c #4859a5",
"ca c #4859a6",
"cg c #4859a7",
"aZ c #48797a",
"ay c #48898a",
"b2 c #4955a1",
"b4 c #4957a6",
"cm c #4a579b",
"cl c #4a579c",
"aR c #4a7e7e",
"b3 c #4b57a7",
"aF c #4b8a8a",
"aS c #506e6e",
"aJ c #517171",
"as c #517778",
"az c #527979",
"bY c #555a76",
"b8 c #565c77",
"b7 c #56628e",
"cr c #57464d",
"ch c #575c73",
"cx c #584547",
"cD c #584548",
"cs c #5a484f",
"cy c #5b4749",
"cE c #5b474a",
"cc c #5b648e",
"#q c #5c4536",
"co c #5c5659",
"cn c #5c6388",
"a9 c #5c7d7a",
"#J c #5d4636",
"cu c #5d5656",
"cA c #5d5657",
"bN c #5e6e79",
"a0 c #5e716f",
"#B c #614939",
"cz c #655b5c",
"ct c #655b5f",
"#n c #6a503e",
"#I c #6b513f",
"bu c #6c8d7c",
"by c #6d8e7c",
"aq c #6d9088",
"bo c #6d9c8b",
"bb c #6da08e",
"#A c #6f5441",
".p c #727170",
"Qt c #727272",
"ak c #72837b",
".R c #736e6b",
".f c #736f6c",
".i c #73706e",
"#O c #744c2f",
"#S c #745743",
"#V c #745744",
".c c #746a63",
".e c #746a64",
".# c #746c67",
".d c #746d68",
".h c #75685e",
".g c #756a62",
"ai c #767473",
".u c #776253",
".t c #776356",
"#6 c #777573",
".r c #784e32",
".H c #784f32",
"ar c #787573",
".W c #787674",
".B c #794f32",
".5 c #795033",
".6 c #797673",
".s c #7a5033",
".A c #7a5134",
"#R c #7a5b47",
".S c #7a716c",
"#4 c #7a7673",
".q c #7b5134",
".l c #7b5438",
".k c #7b5439",
".n c #7b553a",
".o c #7b553b",
".j c #7b573e",
"bK c #7b7672",
".b c #7c5235",
".a c #7c5336",
".I c #7c5338",
".m c #7c5438",
"bU c #7e7698",
".L c #7f5437",
"#W c #7f5f4a",
".J c #805638",
"bV c #807698",
".K c #815639",
"aa c #827a74",
".v c #83593b",
"ad c #867c75",
"bh c #8a7c72",
"ac c #8a7e75",
"b. c #8b7c72",
"aj c #8b7e76",
".C c #8c6041",
"bW c #8c7d8a",
"ah c #8d7f76",
"#U c #8f6b53",
"bL c #8f7e72",
".M c #906344",
"bM c #927e72",
"#g c #956748",
".z c #966849",
"#T c #987258",
"bX c #9b8678",
"## c #9c755a",
"#c c #9c755b",
"bg c #9d8778",
"#Z c #9e6f4f",
"bJ c #9e8878",
"#. c #9f785d",
"#d c #a37a5e",
"#i c #a47554",
"#h c #a67655",
".w c #a97958",
".x c #ab7a59",
".y c #ad7c5a",
"#b c #ad8265",
"#N c #b1805e",
"#a c #b28668",
".Q c #b3815f",
".G c #b68361",
"#7 c #b6937c",
"#P c #b88663",
"#F c #b98764",
"#v c #bc8966",
"#8 c #bd977d",
"bi c #c19272",
"#k c #c29170",
"b# c #c29272",
"#Y c #c38f6c",
"#x c #c39271",
"#9 c #c39a7e",
"a# c #c69b7e",
"#0 c #c7936f",
"bj c #c9916f",
"bt c #c99271",
"ba c #ca916f",
".T c #cb9978",
"#Q c #cd9a77",
"#t c #cd9a78",
"#M c #cd9b78",
"#E c #ce9b78",
".U c #d49e79",
".9 c #d49f7b",
"#X c #d4a07c",
".V c #d6a07a",
".7 c #d6a380",
".X c #d8a582",
"#e c #d9a37e",
"#5 c #d9a581",
"bx c #daa782",
"bk c #daa883",
"bf c #dba883",
".N c #dda680",
"ab c #dea782",
"a. c #dfa882",
".O c #e0a882",
"bF c #e0aa81",
"#o c #e1a882",
"#f c #e1a982",
"#p c #e1a983",
"ag c #e2a881",
"af c #e2a882",
".8 c #e2a983",
".D c #e2aa84",
"ae c #e3a882",
"bI c #e3aa81",
"#u c #e3aa83",
"#1 c #e3aa84",
".4 c #e3ab84",
"#3 c #e3ab85",
"#j c #e4ab84",
".Y c #e4ab85",
".P c #e4ac85",
"#2 c #e5ac85",
".E c #e5ac86",
"bH c #e6ab81",
"bG c #e7ab81",
".1 c #e7ae87",
".2 c #e8ae87",
"#w c #e8af88",
".Z c #e9af88",
".F c #e9b189",
".3 c #eaaf88",
".0 c #eab088",
"QtQtQtQtQtQtQtQtQtQtQtQtQtQtQtQtQtQtQtQtQtQtQtQtQtQtQtQtQtQtQtQtQtQtQtQtQtQtQtQtQtQtQtQtQtQtQtQtQtQtQtQtQtQtQtQtQtQtQtQtQtQtQtQt",
"QtQtQtQtQtQtQtQtQtQtQtQtQtQtQtQtQtQtQtQtQtQtQtQtQtQtQtQtQtQtQtQtQtQtQtQtQtQtQtQtQtQtQtQtQtQtQtQtQtQtQtQtQtQtQtQtQtQtQtQtQtQtQtQt",
"QtQtQtQtQtQtQtQtQtQtQtQtQtQtQtQtQtQtQtQtQtQtQtQtQtQtQtQtQtQtQtQtQtQtQtQtQtQtQtQtQtQtQtQtQtQtQtQtQtQtQtQtQtQtQtQtQtQtQtQtQtQtQtQt",
"QtQtQtQtQtQtQtQtQtQtQtQtQtQtQtQtQtQtQtQtQtQtQtQtQtQtQtQtQtQtQtQtQtQtQtQtQtQtQtQtQtQtQtQtQtQtQtQtQtQtQtQtQtQtQtQtQtQtQtQtQtQtQtQt",
"QtQtQtQtQtQtQtQtQtQtQtQtQtQtQtQtQtQtQtQtQtQtQtQtQtQtQtQtQtQtQtQtQtQtQtQtQtQtQtQtQtQtQtQtQtQtQtQtQtQtQtQtQtQtQtQtQtQtQtQtQtQtQtQt",
"QtQtQtQtQtQtQtQtQtQtQtQtQtQtQtQtQtQtQtQtQtQtQtQtQtQtQtQtQtQtQtQtQtQtQtQtQtQtQtQtQtQtQtQtQtQtQtQtQtQtQtQtQtQtQtQtQtQtQtQtQtQtQtQt",
"QtQtQtQtQtQtQtQtQtQtQtQtQtQtQtQtQtQtQtQtQtQtQtQtQtQtQtQtQtQtQtQtQtQtQtQtQtQtQtQtQtQtQtQtQtQtQtQtQtQtQtQtQtQtQtQtQtQtQtQtQtQtQtQt",
"QtQtQtQtQtQtQtQtQtQtQtQtQtQtQtQtQtQtQtQtQtQtQtQtQtQtQtQtQtQtQtQtQtQtQtQtQtQtQtQtQtQtQtQtQtQtQtQtQtQtQtQtQtQtQtQtQtQtQtQtQtQtQtQt",
"QtQtQtQtQtQtQtQtQtQtQtQtQtQtQtQtQt.#.a.b.b.b.b.b.b.b.b.b.b.b.b.b.b.b.b.b.b.b.b.b.b.b.b.b.b.b.cQtQtQtQtQtQtQtQtQtQtQtQtQtQtQtQtQt",
"QtQtQtQtQtQtQtQtQtQtQtQtQtQtQtQtQt.d.a.b.b.b.b.b.b.b.b.b.b.b.b.b.b.b.b.b.b.b.b.b.b.b.b.b.b.b.eQtQtQtQtQtQtQtQtQtQtQtQtQtQtQtQtQt",
"QtQtQtQtQtQtQtQtQtQtQtQtQtQtQt.f.f.g.a.b.b.b.b.b.b.b.b.b.b.b.b.b.b.b.b.b.b.b.b.b.b.b.b.b.b.b.h.f.fQtQtQtQtQtQtQtQtQtQtQtQtQtQtQt",
"QtQtQtQtQtQtQtQtQtQtQtQtQtQt.i.j.k.l.b.b.b.b.b.b.b.b.b.b.b.b.b.b.b.b.b.b.b.b.b.b.b.b.b.b.b.b.m.k.kQtQtQtQtQtQtQtQtQtQtQtQtQtQtQt",
"QtQtQtQtQtQtQtQtQtQtQtQtQtQt.i.n.b.b.b.b.b.b.b.b.b.b.b.b.b.b.b.b.b.b.b.b.b.b.b.b.b.b.b.b.b.b.b.b.bQtQtQtQtQtQtQtQtQtQtQtQtQtQtQt",
"QtQtQtQtQtQtQtQtQtQtQtQtQtQt.i.o.b.b.b.b.b.b.b.b.b.b.b.b.b.b.b.b.b.b.b.b.b.b.b.b.b.b.b.b.b.b.b.b.bQtQtQtQtQtQtQtQtQtQtQtQtQtQtQt",
"QtQtQtQtQtQtQtQtQtQtQtQtQtQt.i.o.b.b.b.b.b.b.b.b.b.b.b.b.b.b.b.b.b.b.b.b.b.b.b.b.b.b.b.b.b.b.b.b.bQtQtQtQtQtQtQtQtQtQtQtQtQtQtQt",
"QtQtQtQtQtQtQtQtQtQtQtQtQtQt.i.o.b.b.b.b.b.b.b.b.b.b.b.b.b.b.b.b.b.b.b.b.b.b.b.b.b.b.b.b.b.b.b.b.bQtQtQtQtQtQtQtQtQtQtQtQtQtQtQt",
"QtQtQtQtQtQtQtQtQtQtQtQtQtQt.i.o.b.b.b.b.b.b.b.b.b.b.b.b.b.b.b.b.b.b.b.b.b.b.b.b.b.b.b.b.b.b.b.b.bQtQtQtQtQtQtQtQtQtQtQtQtQtQtQt",
"QtQtQtQtQtQtQtQtQtQtQtQtQtQt.p.o.b.b.b.b.b.b.b.b.b.b.b.b.b.b.b.b.b.b.q.r.r.r.r.r.s.b.b.b.b.b.b.b.bQtQtQtQtQtQtQtQtQtQtQtQtQtQtQt",
"QtQtQtQtQtQtQtQtQtQtQtQt.t.t.u.l.b.b.b.b.b.b.b.b.b.b.b.b.b.b.b.b.b.q.v.w.x.x.x.y.z.A.b.b.b.b.b.b.bQtQtQtQtQtQtQtQtQtQtQtQtQtQtQt",
"QtQtQtQtQtQtQtQtQtQtQtQt.b.b.b.q.q.q.q.q.q.q.q.q.q.q.q.q.q.q.q.q.q.B.C.D.E.E.E.F.G.H.b.b.b.b.b.b.bQtQtQtQtQtQtQtQtQtQtQtQtQtQtQt",
"QtQtQtQtQtQtQtQtQtQtQtQt.m.m.I.J.K.K.K.K.K.K.K.K.K.K.K.K.K.K.K.K.K.L.M.N.O.O.O.P.Q.H.b.b.b.b.b.b.bQtQtQtQtQtQtQtQtQtQtQtQtQtQtQt",
"QtQtQtQtQtQtQtQtQtQtQtQt.R.R.S.T.U.U.U.U.U.U.U.U.U.U.U.U.U.U.U.U.U.U.V.O.O.O.O.P.Q.H.b.b.b.b.b.b.bQtQtQtQtQtQtQtQtQtQtQtQtQtQtQt",
"QtQtQtQtQtQtQtQtQtQtQtQtQtQt.W.X.D.Y.Z.0.1.D.D.D.D.D.D.D.D.2.3.Z.4.D.D.O.O.O.O.P.Q.H.b.5.r.r.r.r.rQtQtQtQtQtQtQtQtQtQtQtQtQtQtQt",
"QtQtQtQtQtQtQtQtQtQtQtQtQtQt.6.7.8.9#.###a.8.O.O.O.O.O.O.O#b#c#d#e#f.O.O.O.O.O.P.Q.H.A#g#h#i#i#i#iQtQtQtQtQtQtQtQtQtQtQtQtQtQtQt",
"QtQtQtQtQtQtQtQtQtQtQtQtQtQt.6.7#j#k#l#m#n#j.O.O.O.O.O#o#p#q#r#s#t#u.O.O.O.O.O.P.Q.H.H#v#w.P.P.P.PQtQtQtQtQtQtQtQtQtQtQtQtQtQtQt",
"QtQtQtQtQtQtQtQtQtQtQtQtQtQt.6.7#j#x#y#z#A#j.O.O.O.O.O#o#p#B#C#D#E#u.O.O.O.O.O.P.Q.H.H#F.Y.O.O.O.OQtQtQtQtQtQtQtQtQtQtQtQtQtQtQt",
"QtQtQtQtQtQtQtQtQtQtQtQtQtQt.6.7#j#x#y#z#A#j.O.O.O.O.O#o#p#B#C#D#E#u.O.O.O.O.O.P.Q.H.H#F.Y.O.O.O.OQtQtQtQtQtQtQtQtQtQtQtQtQtQtQt",
"QtQtQtQtQtQtQtQtQtQtQtQtQtQt.6.7#j#k#G#H#I#j.O.O.O.O.O#o#p#J#K#L#M#u.O.O.O.O.O.P#N#O#O#P.Y.O.O.O.OQtQtQtQtQtQtQtQtQtQtQtQtQtQtQt",
"QtQtQtQtQtQtQtQtQtQtQtQtQtQt.6.7#u#Q#R#S#T#u.O.O.O.O.O#o#p#U#V#W#X.8.O.O.O.O.O.4#Y#Z#Z#0#1.O.O.O.OQtQtQtQtQtQtQtQtQtQtQtQtQtQtQt",
"QtQtQtQtQtQtQtQtQtQtQtQtQtQt.6.7.O#p#2#2#j.O.O.O.O.O.O.O.O#j#2#2#o.O.O.O.O.O.O.O#p#3#3#p.O.O.O.O.OQtQtQtQtQtQtQtQtQtQtQtQtQtQtQt",
"QtQtQtQtQtQtQtQtQtQtQtQtQtQt.6.7.O.O.O.O.O.O.O.O.O.O.O.O.O.O.O.O.O.O.O.O.O.O.O.O.O.O.O.O.O.O.O.O.OQtQtQtQtQtQtQtQtQtQtQtQtQtQtQt",
"QtQtQtQtQtQtQtQtQtQtQtQtQtQt.6.7.O.O.O.O.O.O.O.O.O.O.O.O.O.O.O.O.O.O.O.O.O.O.O.O.O.O.O.O.O.O.O.O.OQtQtQtQtQtQtQtQtQtQtQtQtQtQtQt",
"QtQtQtQtQtQtQtQtQtQtQtQtQtQt#4#5.O.O.O.O.O.O.O.O.O.O.O.O.O.O.O.O.O.O.O.O.O.O.O.O.O.O.O.O.O.O.O.O.OQtQtQtQtQtQtQtQtQtQtQtQtQtQtQt",
"QtQtQtQtQtQtQtQtQtQtQtQtQtQt#6#7#8#9a..O.O.O.O.O.O.O.O.O.O.O.O.O.O.O.O.O.O.O.O.O.O.O.O.O.O.Oa##8#8QtQtQtQtQtQtQtQtQtQtQtQtQtQtQt",
"QtQtQtQtQtQtQtQtQtQtQtQtQtQtQtQtQtaaab.O.O#o#o#o#o#o#o#o#o#o#o#o#o#o#o#o#o#o#o#o#o#o#o.O.O.OacQtQtQtQtQtQtQtQtQtQtQtQtQtQtQtQtQt",
"QtQtQtQtQtQtQtQtQtQtQtQtQtQtQtQtQtada..O#oaeaeafagagagagagagagagagagagagagagagagagagag#o.O.OahQtQtQtQtQtQtQtQtQtQtQtQtQtQtQtQtQt",
"QtQtQtQtQtQtQtQtQtQtQtQtQtQtQtQtQtaiajajakalamanaoapapapapapapapapapapapapapapapapapapaqajajarQtQtQtQtQtQtQtQtQtQtQtQtQtQtQtQtQt",
"QtQtQtQtQtQtQtQtQtQtQtQtQtQtQtQtQtQtQtQtasatauavawaxaxaxaxaxaxaxaxaxaxaxaxaxaxaxaxaxaxayQtQtQtQtQtQtQtQtQtQtQtQtQtQtQtQtQtQtQtQt",
"QtQtQtQtQtQtQtQtQtQtQtQtQtQtQtQtQtQtQtQtazaAaBaCaDaEaEaEaEaEaEaEaEaEaEaEaEaEaEaEaEaEaEaFQtQtQtQtQtQtQtQtQtQtQtQtQtQtQtQtQtQtQtQt",
"QtQtQtQtQtQtQtQtQtQtQtQtQtQtQtQtQtQtQtQtazaAaBaCaDaEaEaEaEaEaEaEaEaEaEaEaEaEaEaEaEaEaEaFQtQtQtQtQtQtQtQtQtQtQtQtQtQtQtQtQtQtQtQt",
"QtQtQtQtQtQtQtQtQtQtQtQtQtQtQtQtQtQtQtQtazaGaHaCaDaEaEaEaEaEaEaEaEaEaEaIaIaIaIaIaIaIaIaFQtQtQtQtQtQtQtQtQtQtQtQtQtQtQtQtQtQtQtQt",
"QtQtQtQtQtQtQtQtQtQtQtQtQtQtQtQtQtQtQtQtaJaKaLaMaNaEaEaEaEaEaEaEaEaIaOaPaQaQaQaQaQaQaQaRQtQtQtQtQtQtQtQtQtQtQtQtQtQtQtQtQtQtQtQt",
"QtQtQtQtQtQtQtQtQtQtQtQtQtQtQtQtQtQtQtQtaSaTaUaVaNaEaEaEaEaEaEaEaEaIaWaXaYaYaYaYaYaYaYaZQtQtQtQtQtQtQtQtQtQtQtQtQtQtQtQtQtQtQtQt",
"QtQtQtQtQtQtQtQtQtQtQtQtQtQtQtQtQtQtQtQta0a1a2a3a4aEaEaEaEaEaEaEaEa5a6a7a8a8a8a8a8a8a8a9QtQtQtQtQtQtQtQtQtQtQtQtQtQtQtQtQtQtQtQt",
"QtQtQtQtQtQtQtQtQtQtQtQtQtQtQtQtQtQtQtQtb.b#babbbcaEaEaEaEaEaEaEaEbdbebfaf#o#o#o#o#o#obgQtQtQtQtQtQtQtQtQtQtQtQtQtQtQtQtQtQtQtQt",
"QtQtQtQtQtQtQtQtQtQtQtQtQtQtQtQtQtQtQtQtb.b#babbbcaEaEaEaEaEaEaEaEbdbebfaf#o#o#o#o#o#obgQtQtQtQtQtQtQtQtQtQtQtQtQtQtQtQtQtQtQtQt",
"QtQtQtQtQtQtQtQtQtQtQtQtQtQtQtQtQtQtQtQtbhbibjbbbcaEaEaEaEaEaEaEaEbdbebk#o.O.O.O.O.O.ObgQtQtQtQtQtQtQtQtQtQtQtQtQtQtQtQtQtQtQtQt",
"QtQtQtQtQtQtQtQtQtQtQtQtQtQtQtQtQtQtQtQtbhbibjbbblaIaIaIaIaIaIaIaIbmbnbk#o.O.O.O.O.O.ObgQtQtQtQtQtQtQtQtQtQtQtQtQtQtQtQtQtQtQtQt",
"QtQtQtQtQtQtQtQtQtQtQtQtQtQtQtQtQtQtQtQtbhbibjbobpbqbqbqbqbqbqbqbqbrbsbk#o.O.O.O.O.O.ObgQtQtQtQtQtQtQtQtQtQtQtQtQtQtQtQtQtQtQtQt",
"QtQtQtQtQtQtQtQtQtQtQtQtQtQtQtQtQtQtQtQtbhbibtbubvaAaAaAaAaAaAaAaAaXbwbx#o.O.O.O.O.O.ObgQtQtQtQtQtQtQtQtQtQtQtQtQtQtQtQtQtQtQtQt",
"QtQtQtQtQtQtQtQtQtQtQtQtQtQtQtQtQtQtQtQtb.bibtbybzbAbAbAbAbAbAbBbCbDbEbFbGbHbHbHbI.O.ObJQtQtQtQtQtQtQtQtQtQtQtQtQtQtQtQtQtQtQtQt",
"QtQtQtQtQtQtQtQtQtQtQtQtQtQtQtQtQtQtQtQtbKbLbMbNbObPbPbPbPbPbPbQbRbSbTbUbVbVbVbVbWbXbXaaQtQtQtQtQtQtQtQtQtQtQtQtQtQtQtQtQtQtQtQt",
"QtQtQtQtQtQtQtQtQtQtQtQtQtQtQtQtQtQtQtQtQtQtQtbYbZb0b0b0b0b0b0b1b2b3b4b5b6b6b6b6b7QtQtQtQtQtQtQtQtQtQtQtQtQtQtQtQtQtQtQtQtQtQtQt",
"QtQtQtQtQtQtQtQtQtQtQtQtQtQtQtQtQtQtQtQtQtQtQtb8b9b9b9b9b9b9b9c.c#cacbcbcbcbcbcbccQtQtQtQtQtQtQtQtQtQtQtQtQtQtQtQtQtQtQtQtQtQtQt",
"QtQtQtQtQtQtQtQtQtQtQtQtQtQtQtQtQtQtQtQtQtQtQtb8b9b9b9b9b9b9b9c.c#cacbcbcbcbcbcbccQtQtQtQtQtQtQtQtQtQtQtQtQtQtQtQtQtQtQtQtQtQtQt",
"QtQtQtQtQtQtQtQtQtQtQtQtQtQtQtQtQtQtQtQtQtQtQtb8b9b9b9b9b9b9b9c.c#cacbcbcbcbcbcbccQtQtQtQtQtQtQtQtQtQtQtQtQtQtQtQtQtQtQtQtQtQtQt",
"QtQtQtQtQtQtQtQtQtQtQtQtQtQtQtQtQtQtQtQtQtQtQtb8b9b9b9b9b9b9b9c.c#cacbcbcbcbcbcbccQtQtQtQtQtQtQtQtQtQtQtQtQtQtQtQtQtQtQtQtQtQtQt",
"QtQtQtQtQtQtQtQtQtQtQtQtQtQtQtQtQtQtQtQtQtQtQtb8cdcdcdcdcdcdcdcecfcgcacacacacacaccQtQtQtQtQtQtQtQtQtQtQtQtQtQtQtQtQtQtQtQtQtQtQt",
"QtQtQtQtQtQtQtQtQtQtQtQtQtQtQtQtQtQtQtQtQtQtQtchcicicicicicicicjckclcmcmcmcmcmcmcnQtQtQtQtQtQtQtQtQtQtQtQtQtQtQtQtQtQtQtQtQtQtQt",
"QtQtQtQtQtQtQtQtQtQtQtQtQtQtQtQtQtQtQtQtQtQtQtcocpcpcpcpcpcpcpcqcrcscscscscscscsctQtQtQtQtQtQtQtQtQtQtQtQtQtQtQtQtQtQtQtQtQtQtQt",
"QtQtQtQtQtQtQtQtQtQtQtQtQtQtQtQtQtQtQtQtQtQtQtcucvcvcvcvcvcvcvcwcxcycycycycycycyczQtQtQtQtQtQtQtQtQtQtQtQtQtQtQtQtQtQtQtQtQtQtQt",
"QtQtQtQtQtQtQtQtQtQtQtQtQtQtQtQtQtQtQtQtQtQtQtcAcBcBcBcBcBcBcBcCcDcEcEcEcEcEcEcEczQtQtQtQtQtQtQtQtQtQtQtQtQtQtQtQtQtQtQtQtQtQtQt",
"QtQtQtQtQtQtQtQtQtQtQtQtQtQtQtQtQtQtQtQtQtQtQtcAcBcBcBcBcBcBcBcCcDcEcEcEcEcEcEcEczQtQtQtQtQtQtQtQtQtQtQtQtQtQtQtQtQtQtQtQtQtQtQt",
"QtQtQtQtQtQtQtQtQtQtQtQtQtQtQtQtQtQtQtQtQtQtQtcAcBcBcBcBcBcBcBcCcDcEcEcEcEcEcEcEczQtQtQtQtQtQtQtQtQtQtQtQtQtQtQtQtQtQtQtQtQtQtQt"};
