/* XPM */
static char *dummy[]={
"64 64 387 2",
"a9 c #008384",
"cA c #038583",
"a8 c #039899",
"cE c #058786",
"a6 c #05afb1",
"a7 c #05b0b2",
"bA c #066667",
"b. c #068586",
"cD c #078785",
"cB c #088684",
"cC c #088785",
"bw c #088d8d",
"cp c #089d9e",
"bI c #096161",
"cs c #099e9e",
"br c #0a8181",
"bj c #0a8585",
"bz c #0a8888",
"b2 c #0aafb0",
"ci c #0ab0b1",
"bf c #0b8484",
"cr c #0b9e9e",
"b4 c #0bafb0",
"ck c #0bb0b1",
"bB c #0c6a6b",
"bH c #0c8484",
"bF c #0c8585",
"bq c #0c9595",
"be c #0c9898",
"cq c #0c9e9e",
"bx c #0ca8a8",
"bQ c #0cb0b0",
"bR c #0cb1b0",
"cV c #0d7d86",
"bG c #0da6a7",
"b3 c #0dafaf",
"cj c #0db0b0",
"a5 c #0ea9ab",
"bo c #0eaaaa",
"bp c #0eaeae",
"bc c #0eafaf",
"bd c #0eb0b0",
"by c #0eb1b1",
"bJ c #0f6666",
"cR c #0f808c",
"bs c #0f8282",
"bk c #0f8787",
"cU c #107d85",
"cT c #107d86",
"bg c #108686",
"bv c #128a8a",
"cS c #13808b",
"bE c #168383",
"bn c #18a5a5",
"bi c #18aaaa",
"bb c #19a9a9",
"bP c #22aaa7",
"aY c #258984",
"aX c #279a96",
"#E c #281e17",
"aV c #29aeaa",
"aW c #29afaa",
"aZ c #2a8b85",
"#A c #2c221a",
"d# c #2e507e",
"da c #2e517e",
"d. c #2e5182",
"aU c #31a9a4",
"#Y c #33261d",
"#P c #34271e",
"#V c #362920",
"dw c #36437c",
"dF c #36437d",
"#L c #372a21",
"dx c #37447c",
"dG c #37447d",
"dv c #384580",
"dE c #384581",
"cz c #388e83",
"dm c #393f7c",
"bS c #399087",
"dn c #3a407b",
"dl c #3b4180",
"c9 c #3b609c",
"cQ c #3b868b",
"co c #3ba098",
"dO c #3c3e5f",
"c8 c #3c62a0",
"dP c #3d3f5f",
"cb c #3daea5",
"ch c #3dafa5",
"dN c #3f4062",
"dh c #3f55a7",
"b1 c #40aea5",
"dg c #4156a5",
"#z c #423227",
"dW c #443636",
"d4 c #443637",
"e# c #443638",
"#F c #453429",
"dX c #453737",
"d5 c #453738",
"ea c #453739",
"c7 c #45649f",
"du c #4657a1",
"dD c #4657a2",
"dV c #473838",
"d3 c #473839",
"e. c #47383a",
"di c #4856a7",
"ds c #4859a5",
"dt c #4859a6",
"dC c #4859a7",
"dr c #4959a5",
"dk c #4a54a2",
"dz c #4a5aa2",
"dB c #4a5aa3",
"dq c #4b5aa2",
"#U c #4c392c",
"dj c #4c56a8",
"#K c #4d3a2d",
"#Z c #4e3a2e",
"#4 c #4e3b2f",
"dM c #4e4f7b",
"#Q c #4f3b2f",
"dK c #50517e",
"dL c #50517f",
"dJ c #52537d",
"bu c #557979",
"bD c #567777",
"a4 c #568183",
"do c #575b76",
"bC c #577070",
"bm c #578181",
"ba c #578383",
"#B c #584234",
"d2 c #584547",
"d9 c #584548",
"dy c #585e76",
"dH c #585e77",
"bK c #586f6f",
"bt c #587676",
"bh c #587777",
"bl c #587878",
"bU c #58796b",
"dU c #594445",
"df c #596489",
"b# c #597577",
"d1 c #5b4749",
"d8 c #5b474a",
"dQ c #5b5c6a",
"#D c #5c4636",
"dT c #5c4647",
"d0 c #5c494b",
"d7 c #5c494c",
"bT c #5c7667",
"dS c #5d4849",
"dY c #5e5858",
"d6 c #5e5859",
"db c #5e6777",
"#W c #5f4838",
"#M c #604939",
"dp c #606788",
"dA c #606789",
"#2 c #614839",
"dI c #636477",
"#X c #644b3a",
"#3 c #644c3b",
"#O c #654c3b",
"c5 c #65689e",
"c6 c #66689e",
"c4 c #66699c",
"bN c #669585",
"bM c #679283",
"bO c #679585",
"dR c #685f5f",
"dZ c #685f60",
"aT c #698783",
"a0 c #6a7e79",
"bV c #6b7470",
"bL c #6f7b77",
"cW c #70867a",
"#T c #724a2d",
".Z c #726f6d",
".u c #727171",
"Qt c #727272",
"#w c #734b2e",
".# c #736e6a",
".d c #736e6b",
".e c #736f6c",
".0 c #73706d",
".Y c #73706e",
"a3 c #737372",
"#d c #744c2f",
".f c #746b64",
".i c #746b65",
"aR c #747372",
".C c #754c30",
"cF c #758d7a",
"ct c #759785",
"cn c #759e8b",
"cc c #759f8b",
"de c #767472",
".B c #776253",
"aE c #777573",
"c0 c #787573",
".v c #795033",
".m c #795b46",
"c3 c #797487",
".I c #7a5033",
".q c #7a5034",
".a c #7a573f",
".n c #7a5943",
".o c #7a5a43",
".t c #7a5a44",
".r c #7b5034",
".p c #7b5134",
".S c #7b5135",
".j c #7b5438",
".h c #7b553b",
".c c #7b563c",
".g c #7b563d",
"ax c #7b7673",
"b5 c #7ba08b",
".s c #7c5134",
".b c #7c5235",
".l c #7c5236",
".k c #7c5438",
"aQ c #7d7874",
"#c c #7f5537",
"aF c #7f7874",
"a2 c #7f7974",
"#S c #815739",
"dd c #817872",
"#I c #82583a",
"a1 c #827974",
"#v c #83583a",
"aS c #837873",
"cZ c #837972",
".R c #845a3c",
"ag c #84624c",
"ac c #85644e",
"dc c #857972",
".P c #865a3c",
"cf c #867a72",
".Q c #875b3e",
".A c #875c3e",
"cI c #877a72",
"c1 c #877c75",
"b8 c #897b72",
"c2 c #8a7e75",
"cJ c #8c7f76",
"#n c #8e6a51",
"#i c #8f6b53",
"b9 c #908176",
"ab c #916d55",
"cv c #918177",
".H c #926546",
"ah c #926d55",
".w c #936547",
"bW c #938176",
"#h c #997358",
"#o c #9a7459",
".O c #9b6c4c",
"ad c #9c755b",
"af c #9e775b",
"#b c #a07050",
"aw c #a18979",
"#j c #a37a5f",
"#m c #a47c60",
"#8 c #a67656",
".J c #a77756",
"#0 c #a77857",
"#e c #a87756",
".D c #ab7a58",
"## c #ac7c5a",
"#7 c #af7d5c",
"#a c #af7e5c",
"ar c #af907b",
".x c #b07e5c",
".z c #b07e5d",
"cY c #b08b72",
".y c #b17f5d",
"av c #b4927c",
"as c #b5937c",
"cX c #bc8c71",
"cm c #bd9072",
"ce c #be9072",
"cH c #bf9172",
".X c #c09678",
"#9 c #c28e6a",
"aG c #c39a7e",
"cK c #c49a7e",
"#H c #c6926e",
"#r c #c69b7e",
"aL c #c6a685",
"aK c #c6a987",
"b7 c #c79273",
"an c #c79c7e",
"aM c #c7a382",
"aN c #c7a483",
"aP c #c89c7f",
"#. c #c89c80",
"aJ c #c8a886",
"cO c #ca9c87",
"cN c #ca9d87",
"cl c #cb916e",
"cu c #cb916f",
"cG c #cb9271",
"#u c #cb9672",
"cP c #cb9c87",
"cM c #cb9e82",
"cd c #cc916e",
"cL c #cd9f7f",
"#G c #ce9a77",
"#5 c #ce9b77",
"#R c #cf9b78",
"ay c #cfa07f",
"aO c #cfa280",
"aI c #cfa382",
"#y c #d19d7a",
"#1 c #d19e7a",
"#6 c #d29c77",
"#J c #d29e7a",
"aH c #d2a180",
"aD c #d5a380",
"ai c #d6a17c",
"c. c #d6a380",
"b6 c #d7946f",
"#p c #d8a17d",
".U c #d8a27c",
"aa c #d8a37e",
"at c #d8a481",
".V c #d9a27d",
"#g c #d9a37e",
".W c #daa37d",
".T c #daa47e",
"au c #daa581",
"#C c #dba47f",
"#N c #dba57f",
"ao c #dca681",
"aq c #dda681",
"ap c #dda782",
"ae c #dea680",
"#l c #dea681",
".K c #dfa781",
"a. c #e0a881",
".M c #e0a882",
".N c #e0a983",
"bX c #e1a580",
"cg c #e1a881",
"#k c #e1a882",
"#f c #e1a982",
".L c #e1a983",
"ca c #e2a881",
"c# c #e2a882",
"a# c #e2a983",
"cw c #e2aa81",
".1 c #e2aa84",
"#q c #e3a983",
"#x c #e3aa83",
".9 c #e3aa84",
".2 c #e3ab84",
".8 c #e3ab85",
"az c #e4a881",
"aA c #e4a882",
".6 c #e4ac85",
".7 c #e4ac86",
"aC c #e5a882",
"aB c #e5a982",
".5 c #e5ab85",
".4 c #e5ac85",
".3 c #e5ac86",
".E c #e5ad86",
"cx c #e6ab81",
".G c #e6ad87",
"aj c #e6ae87",
"cy c #e7ab81",
"#s c #e7ae87",
".F c #e7ae88",
"am c #e8ae86",
"ak c #eab088",
"al c #ebb088",
"bY c #edaa82",
"#t c #edb38c",
"b0 c #eeaa81",
"bZ c #eeaa82",
"QtQtQtQtQtQtQtQtQtQtQtQtQtQtQtQtQtQtQtQtQtQtQtQtQtQtQtQtQtQtQtQtQtQtQtQtQtQtQtQtQtQtQtQtQtQtQtQtQtQtQtQtQtQtQtQtQtQtQtQtQtQtQtQt",
"QtQtQtQtQtQtQtQtQtQtQtQtQtQtQtQtQtQtQtQtQtQtQtQtQtQtQtQtQtQtQtQtQtQtQtQtQtQtQtQtQtQtQtQtQtQtQtQtQtQtQtQtQtQtQtQtQtQtQtQtQtQtQtQt",
"QtQtQtQtQtQtQtQtQtQtQtQtQtQtQtQtQtQtQtQtQtQtQtQtQtQtQtQtQtQtQtQtQtQtQtQtQtQtQtQtQtQtQtQtQtQtQtQtQtQtQtQtQtQtQtQtQtQtQtQtQtQtQtQt",
"QtQtQtQtQtQtQtQtQtQtQtQtQtQtQtQtQtQtQtQtQtQtQtQtQtQtQtQtQtQtQtQtQtQtQtQtQtQtQtQtQtQtQtQtQtQtQtQtQtQtQtQtQtQtQtQtQtQtQtQtQtQtQtQt",
"QtQtQtQtQtQtQtQtQtQtQtQtQtQtQtQtQtQtQtQtQtQtQtQtQtQtQtQtQtQtQtQtQtQtQtQtQtQtQtQtQtQtQtQtQtQtQtQtQtQtQtQtQtQtQtQtQtQtQtQtQtQtQtQt",
"QtQtQtQtQtQtQtQtQtQtQtQtQtQtQtQtQtQtQtQtQtQtQtQtQtQtQtQtQtQtQtQtQtQtQtQtQtQtQtQtQtQtQtQtQtQtQtQtQtQtQtQtQtQtQtQtQtQtQtQtQtQtQtQt",
"QtQtQtQtQtQtQtQtQtQtQtQtQtQtQtQtQtQtQtQtQtQtQtQtQtQtQtQtQtQtQtQtQtQtQtQtQtQtQtQtQtQtQtQtQtQtQtQtQtQtQtQtQtQtQtQtQtQtQtQtQtQtQtQt",
"QtQtQtQtQtQtQtQtQtQtQtQtQtQtQtQtQtQtQtQtQtQtQtQtQtQtQtQtQtQtQtQtQtQtQtQtQtQtQtQtQtQtQtQtQtQtQtQtQtQtQtQtQtQtQtQtQtQtQtQtQtQtQtQt",
"QtQtQtQtQtQtQtQtQtQtQtQtQtQtQtQtQt.#.a.b.b.b.b.b.b.b.b.b.b.b.b.b.b.b.b.b.b.b.b.b.b.b.b.b.b.c.dQtQtQtQtQtQtQtQtQtQtQtQtQtQtQtQtQt",
"QtQtQtQtQtQtQtQtQtQtQtQtQtQtQtQtQt.#.a.b.b.b.b.b.b.b.b.b.b.b.b.b.b.b.b.b.b.b.b.b.b.b.b.b.b.c.eQtQtQtQtQtQtQtQtQtQtQtQtQtQtQtQtQt",
"QtQtQtQtQtQtQtQtQtQtQtQtQtQtQt.d.e.f.g.b.b.b.b.b.b.b.b.b.b.b.b.b.b.b.b.b.b.b.b.b.b.b.b.b.b.h.i.e.eQtQtQtQtQtQtQtQtQtQtQtQtQtQtQt",
"QtQtQtQtQtQtQtQtQtQtQtQtQtQtQt.j.j.k.l.b.b.b.b.b.b.b.b.b.b.b.b.b.b.b.b.b.b.b.b.b.b.b.b.b.b.b.k.j.mQtQtQtQtQtQtQtQtQtQtQtQtQtQtQt",
"QtQtQtQtQtQtQtQtQtQtQtQtQtQtQt.b.b.b.b.b.b.b.b.b.b.b.b.b.b.b.b.b.b.b.b.b.b.b.b.b.b.b.b.b.b.b.b.b.nQtQtQtQtQtQtQtQtQtQtQtQtQtQtQt",
"QtQtQtQtQtQtQtQtQtQtQtQtQtQtQt.b.b.b.b.b.b.b.b.b.b.b.b.b.b.b.b.b.b.b.b.b.b.b.b.b.b.b.b.b.b.b.b.b.oQtQtQtQtQtQtQtQtQtQtQtQtQtQtQt",
"QtQtQtQtQtQtQtQtQtQtQtQtQtQtQt.b.b.b.b.b.b.b.b.b.b.b.b.b.b.b.b.b.b.b.b.b.b.b.b.b.b.b.b.b.b.b.b.b.oQtQtQtQtQtQtQtQtQtQtQtQtQtQtQt",
"QtQtQtQtQtQtQtQtQtQtQtQtQtQtQt.b.b.b.b.b.b.b.b.b.b.b.b.b.b.b.b.b.b.b.b.b.b.b.b.b.b.b.b.b.b.b.b.b.oQtQtQtQtQtQtQtQtQtQtQtQtQtQtQt",
"QtQtQtQtQtQtQtQtQtQtQtQtQtQtQt.b.b.b.b.b.b.b.b.b.b.b.b.b.b.b.b.b.b.b.b.b.b.b.b.b.b.b.b.b.b.b.b.b.oQtQtQtQtQtQtQtQtQtQtQtQtQtQtQt",
"QtQtQtQtQtQtQtQtQtQtQtQtQtQtQt.b.b.b.b.b.b.b.b.p.q.r.q.q.q.s.b.b.b.b.b.b.b.b.b.b.b.b.b.b.b.b.b.b.t.u.u.uQtQtQtQtQtQtQtQtQtQtQtQt",
"QtQtQtQtQtQtQtQtQtQtQtQtQtQtQt.b.b.b.b.b.b.b.v.w.x.y.z.z.z.A.p.b.b.b.b.b.b.b.b.b.b.b.b.b.b.b.b.b.c.B.B.BQtQtQtQtQtQtQtQtQtQtQtQt",
"QtQtQtQtQtQtQtQtQtQtQtQtQtQtQt.b.b.b.b.b.b.b.C.D.E.F.G.G.F.H.I.p.p.p.p.p.p.p.p.p.p.p.p.p.p.p.p.p.p.b.b.bQtQtQtQtQtQtQtQtQtQtQtQt",
"QtQtQtQtQtQtQtQtQtQtQtQtQtQtQt.b.b.b.b.b.b.b.C.J.K.L.M.M.N.O.P.Q.Q.Q.Q.Q.Q.Q.Q.Q.Q.Q.Q.Q.Q.Q.Q.Q.R.h.h.hQtQtQtQtQtQtQtQtQtQtQtQt",
"QtQtQtQtQtQtQtQtQtQtQtQtQtQtQt.S.S.S.S.p.b.b.C.J.K.L.M.M.M.T.U.U.V.W.V.U.U.U.U.U.U.U.U.V.W.V.U.U.X.Y.Z.0QtQtQtQtQtQtQtQtQtQtQtQt",
"QtQtQtQtQtQtQtQtQtQtQtQtQtQtQt.p.p.p.p.p.S.b.C.J.K.L.M.M.M.1.1.2.3.4.5.1.1.1.1.1.1.1.1.6.4.7.8.9#.QtQtQtQtQtQtQtQtQtQtQtQtQtQtQt",
"QtQtQtQtQtQtQtQtQtQtQtQtQtQtQt#########a#b#c#d#e.K.L.M.M.M.M#f#g#h#i#j.M.M.M.M.M.M#k#l#m#n#o#p#q#rQtQtQtQtQtQtQtQtQtQtQtQtQtQtQt",
"QtQtQtQtQtQtQtQtQtQtQtQtQtQtQt#s#s#s#s#t#u#v#w#e.K.L.M.M.M.M#x#y#z#A#B.M#k.M.M.M.M.L#C#D#E#F#G.4#rQtQtQtQtQtQtQtQtQtQtQtQtQtQtQt",
"QtQtQtQtQtQtQtQtQtQtQtQtQtQtQt.M.M.M.M.G#H#I#w#e.K.L.M.M.M.M#x#J#K#L#M.M#k.M.M.M.M.L#N#O#P#Q#R.4#rQtQtQtQtQtQtQtQtQtQtQtQtQtQtQt",
"QtQtQtQtQtQtQtQtQtQtQtQtQtQtQt.M.M.M.M.G#H#S#T.J.K.L.M.M.M.M#x#J#U#V#W.M#k.M.M.M.M.L#N#X#Y#Z#R.4#rQtQtQtQtQtQtQtQtQtQtQtQtQtQtQt",
"QtQtQtQtQtQtQtQtQtQtQtQtQtQtQt.M.M.M.M.G#H#I#w#0.K.L.M.M.M.M#x#1#K#L#2.M#k.M.M.M.M.L#C#3#P#4#5.4#rQtQtQtQtQtQtQtQtQtQtQtQtQtQtQt",
"QtQtQtQtQtQtQtQtQtQtQtQtQtQtQt.M.M.M.M.8#6#7#8#9a..L.M.M.M.Ma#aaabacad.N#k.M.M.M.M#faeafagahai.2#rQtQtQtQtQtQtQtQtQtQtQtQtQtQtQt",
"QtQtQtQtQtQtQtQtQtQtQtQtQtQtQt.M.M.M.M.M.1aj.F.2.M.M.M.M.M.M.M#kakalam.M.M.M.M.M.M.M.Mamalaka#.M#rQtQtQtQtQtQtQtQtQtQtQtQtQtQtQt",
"QtQtQtQtQtQtQtQtQtQtQtQtQtQtQt.M.M.M.M.M.M.M.M.M.M.M.M.M.M.M.M.M.M.M.M.M.M.M.M.M.M.M.M.M.M.M.M.M#rQtQtQtQtQtQtQtQtQtQtQtQtQtQtQt",
"QtQtQtQtQtQtQtQtQtQtQtQtQtQtQt.M.M.M.M.M.M.M.M.M.M.M.M.M.M.M.M.M.M.M.M.M.M.M.M.M.M.M.M.M.M.M.M.ManQtQtQtQtQtQtQtQtQtQtQtQtQtQtQt",
"QtQtQtQtQtQtQtQtQtQtQtQtQtQtQtaoaoap.M.M.M.M.M.M.M.M.M.M.M.M.M.M.M.M.M.M.M.M.M.M.M.M.M.M.M.MaqaoanQtQtQtQtQtQtQtQtQtQtQtQtQtQtQt",
"QtQtQtQtQtQtQtQtQtQtQtQtQtQtQtararasat.M.M.M.M.M.M.M.M.M.M.M.M.M.M.M.M.M.M.M.M.M.M.M.M.M.MauavarawQtQtQtQtQtQtQtQtQtQtQtQtQtQtQt",
"QtQtQtQtQtQtQtQtQtQtQtQtQtQtQtQtQtaxay.M#kazazazazazazazazazazazazazazazazazazazaAaBaC#k.MaDaEQtQtQtQtQtQtQtQtQtQtQtQtQtQtQtQtQt",
"QtQtQtQtQtQtQtQtQtQtQtQtQtQtQtQtQtaFaGaHaIaJaKaKaKaKaKaKaKaKaKaKaKaKaKaKaKaKaKaKaLaMaNaOaHaPaQQtQtQtQtQtQtQtQtQtQtQtQtQtQtQtQtQt",
"QtQtQtQtQtQtQtQtQtQtQtQtQtQtQtQtQtaRaFaSaTaUaVaVaVaVaVaVaVaVaVaVaVaVaVaVaVaVaVaWaXaYaZa0a1a2a3QtQtQtQtQtQtQtQtQtQtQtQtQtQtQtQtQt",
"QtQtQtQtQtQtQtQtQtQtQtQtQtQtQtQtQtQtQtQta4a5a6a6a6a6a6a6a6a6a6a6a6a6a6a6a6a6a6a7a8a9b.b#QtQtQtQtQtQtQtQtQtQtQtQtQtQtQtQtQtQtQtQt",
"QtQtQtQtQtQtQtQtQtQtQtQtQtQtQtQtQtQtQtQtbabbbcbcbcbcbcbcbcbcbcbcbcbcbcbcbcbcbcbdbebfbgbhQtQtQtQtQtQtQtQtQtQtQtQtQtQtQtQtQtQtQtQt",
"QtQtQtQtQtQtQtQtQtQtQtQtQtQtQtQtQtQtQtQtbabibdbdbdbdbdbdbdbcbcbcbcbcbcbcbcbcbcbdbebjbkblQtQtQtQtQtQtQtQtQtQtQtQtQtQtQtQtQtQtQtQt",
"QtQtQtQtQtQtQtQtQtQtQtQtQtQtQtQtQtQtQtQtbmbnbobobobobobobobpbcbcbcbcbcbcbcbcbcbdbqbrbsbtQtQtQtQtQtQtQtQtQtQtQtQtQtQtQtQtQtQtQtQt",
"QtQtQtQtQtQtQtQtQtQtQtQtQtQtQtQtQtQtQtQtbubvbwbwbwbwbwbwbwbxbdbcbcbcbcbcbcbcbcbybzbAbBbCQtQtQtQtQtQtQtQtQtQtQtQtQtQtQtQtQtQtQtQt",
"QtQtQtQtQtQtQtQtQtQtQtQtQtQtQtQtQtQtQtQtbDbEbFbFbFbFbFbFbFbGbdbcbcbcbcbcbcbcbcbdbHbIbJbKQtQtQtQtQtQtQtQtQtQtQtQtQtQtQtQtQtQtQtQt",
"QtQtQtQtQtQtQtQtQtQtQtQtQtQtQtQtQtQtQtQtbLbMbNbNbNbNbNbObObPbQbcbcbcbcbcbcbcbcbRbSbTbUbVQtQtQtQtQtQtQtQtQtQtQtQtQtQtQtQtQtQtQtQt",
"QtQtQtQtQtQtQtQtQtQtQtQtQtQtQtQtQtQtQtQtbWbXbYbYbYbYbYbZb0b1b2bcbcbcbcbcbcbcb3b4b5b6b7b8QtQtQtQtQtQtQtQtQtQtQtQtQtQtQtQtQtQtQtQt",
"QtQtQtQtQtQtQtQtQtQtQtQtQtQtQtQtQtQtQtQtb9c.#k#k#k#k#kc#cacbb2bcbcbcbcbcbcbcb3b4cccdcecfQtQtQtQtQtQtQtQtQtQtQtQtQtQtQtQtQtQtQtQt",
"QtQtQtQtQtQtQtQtQtQtQtQtQtQtQtQtQtQtQtQtb9aD.M.M.M.M.M#kcgchcibdbdbdbdbdbdbdcjckccclcmcfQtQtQtQtQtQtQtQtQtQtQtQtQtQtQtQtQtQtQtQt",
"QtQtQtQtQtQtQtQtQtQtQtQtQtQtQtQtQtQtQtQtb9aD.M.M.M.M.M#kcgcbb2bcbcbcbcbcbcbcb3b4cnclcmcfQtQtQtQtQtQtQtQtQtQtQtQtQtQtQtQtQtQtQtQt",
"QtQtQtQtQtQtQtQtQtQtQtQtQtQtQtQtQtQtQtQtb9aD.M.M.M.M.M#k#kcocpcqcqcqcqcqcqcqcrcsctcucmcfQtQtQtQtQtQtQtQtQtQtQtQtQtQtQtQtQtQtQtQt",
"QtQtQtQtQtQtQtQtQtQtQtQtQtQtQtQtQtQtQtQtcvat.McwcxcxcxcycyczcAcBcCcCcCcCcCcCcDcEcFcGcHcIQtQtQtQtQtQtQtQtQtQtQtQtQtQtQtQtQtQtQtQt",
"QtQtQtQtQtQtQtQtQtQtQtQtQtQtQtQtQtQtQtQtcJcKcLcMcNcOcOcOcPcQcRcScTcUcUcUcUcUcUcVcWcXcYcZQtQtQtQtQtQtQtQtQtQtQtQtQtQtQtQtQtQtQtQt",
"QtQtQtQtQtQtQtQtQtQtQtQtQtQtQtQtQtQtQtQtc0c1c2c3c4c5c5c5c6c7c8c9d.d#d#d#d#d#d#dadbdcdddeQtQtQtQtQtQtQtQtQtQtQtQtQtQtQtQtQtQtQtQt",
"QtQtQtQtQtQtQtQtQtQtQtQtQtQtQtQtQtQtQtQtQtQtQtdfdgdhdhdhdhdidjdkdldmdmdmdmdmdmdndoQtQtQtQtQtQtQtQtQtQtQtQtQtQtQtQtQtQtQtQtQtQtQt",
"QtQtQtQtQtQtQtQtQtQtQtQtQtQtQtQtQtQtQtQtQtQtQtdpdqdrdrdrdsdsdtdudvdwdwdwdwdwdwdxdyQtQtQtQtQtQtQtQtQtQtQtQtQtQtQtQtQtQtQtQtQtQtQt",
"QtQtQtQtQtQtQtQtQtQtQtQtQtQtQtQtQtQtQtQtQtQtQtdpdzdsdsdsdsdsdtdudvdwdwdwdwdwdwdxdyQtQtQtQtQtQtQtQtQtQtQtQtQtQtQtQtQtQtQtQtQtQtQt",
"QtQtQtQtQtQtQtQtQtQtQtQtQtQtQtQtQtQtQtQtQtQtQtdpdzdsdsdsdsdsdtdudvdwdwdwdwdwdwdxdyQtQtQtQtQtQtQtQtQtQtQtQtQtQtQtQtQtQtQtQtQtQtQt",
"QtQtQtQtQtQtQtQtQtQtQtQtQtQtQtQtQtQtQtQtQtQtQtdAdBdtdtdtdtdtdCdDdEdFdFdFdFdFdFdGdHQtQtQtQtQtQtQtQtQtQtQtQtQtQtQtQtQtQtQtQtQtQtQt",
"QtQtQtQtQtQtQtQtQtQtQtQtQtQtQtQtQtQtQtQtQtQtQtdAdBdtdtdtdtdtdCdDdEdFdFdFdFdFdFdGdHQtQtQtQtQtQtQtQtQtQtQtQtQtQtQtQtQtQtQtQtQtQtQt",
"QtQtQtQtQtQtQtQtQtQtQtQtQtQtQtQtQtQtQtQtQtQtQtdIdJdKdKdKdKdKdLdMdNdOdOdOdOdOdOdPdQQtQtQtQtQtQtQtQtQtQtQtQtQtQtQtQtQtQtQtQtQtQtQt",
"QtQtQtQtQtQtQtQtQtQtQtQtQtQtQtQtQtQtQtQtQtQtQtdRdSdTdTdTdTdTdTdUdVdWdWdWdWdWdWdXdYQtQtQtQtQtQtQtQtQtQtQtQtQtQtQtQtQtQtQtQtQtQtQt",
"QtQtQtQtQtQtQtQtQtQtQtQtQtQtQtQtQtQtQtQtQtQtQtdZd0d1d1d1d1d1d1d2d3d4d4d4d4d4d4d5d6QtQtQtQtQtQtQtQtQtQtQtQtQtQtQtQtQtQtQtQtQtQtQt",
"QtQtQtQtQtQtQtQtQtQtQtQtQtQtQtQtQtQtQtQtQtQtQtdZd7d8d8d8d8d8d8d9e.e#e#e#e#e#e#ead6QtQtQtQtQtQtQtQtQtQtQtQtQtQtQtQtQtQtQtQtQtQtQt",
"QtQtQtQtQtQtQtQtQtQtQtQtQtQtQtQtQtQtQtQtQtQtQtdZd7d8d8d8d8d8d8d9e.e#e#e#e#e#e#ead6QtQtQtQtQtQtQtQtQtQtQtQtQtQtQtQtQtQtQtQtQtQtQt",
"QtQtQtQtQtQtQtQtQtQtQtQtQtQtQtQtQtQtQtQtQtQtQtdZd7d8d8d8d8d8d8d9e.e#e#e#e#e#e#ead6QtQtQtQtQtQtQtQtQtQtQtQtQtQtQtQtQtQtQtQtQtQtQt"};
