/* XPM */
static char *dummy[]={
"64 64 287 2",
"#8 c #008384",
"b. c #038583",
"#7 c #039899",
"bc c #058786",
"#5 c #05afb1",
"#6 c #05b0b2",
"ar c #066667",
"#9 c #068586",
"bb c #078785",
"b# c #088684",
"ba c #088785",
"ao c #088d8d",
"aw c #096161",
"a6 c #099e9e",
"#S c #0a8181",
"ae c #0a8585",
"aq c #0a8888",
"aM c #0aafb0",
"aY c #0ab0b1",
"ab c #0b8484",
"a5 c #0b9e9e",
"aO c #0bafb0",
"a0 c #0bb0b1",
"an c #0c6a6b",
"av c #0c8484",
"au c #0c8585",
"aj c #0c9595",
"#T c #0c9898",
"a4 c #0c9e9e",
"aD c #0cb0b0",
"aE c #0cb1b0",
"bp c #0d7d86",
"aN c #0dafaf",
"aZ c #0db0b0",
"ai c #0eaeae",
"#4 c #0eafaf",
"aa c #0eb0b0",
"ap c #0eb1b1",
"ax c #0f6666",
"bl c #0f808c",
"ak c #0f8282",
"af c #0f8787",
"bo c #107d85",
"bn c #107d86",
"ac c #108686",
"bm c #13808b",
"#X c #258984",
"#W c #279a96",
"#b c #281e17",
"#U c #29aeaa",
"#V c #29afaa",
"#Y c #2a8b85",
"bB c #2e507e",
"bC c #2e517e",
"bA c #2e5182",
"bY c #36437c",
"b7 c #36437d",
"bZ c #37447c",
"b8 c #37447d",
"bX c #384580",
"b6 c #384581",
"bO c #393f7c",
"aC c #399087",
"bP c #3a407b",
"bN c #3b4180",
"bz c #3b609c",
"ce c #3c3e5f",
"by c #3c62a0",
"cf c #3d3f5f",
"cd c #3f4062",
"bJ c #3f55a7",
"bI c #4156a5",
"cm c #443636",
"cu c #443637",
"cB c #443638",
"cn c #453737",
"cv c #453738",
"cC c #453739",
"bk c #45649f",
"bW c #4657a1",
"b5 c #4657a2",
"cl c #473838",
"ct c #473839",
"cA c #47383a",
"bK c #4856a7",
"bU c #4859a5",
"bV c #4859a6",
"b4 c #4859a7",
"bT c #4959a5",
"bM c #4a54a2",
"b1 c #4a5aa2",
"b3 c #4a5aa3",
"bS c #4b5aa2",
"bL c #4c56a8",
"#a c #4d3a2d",
"cc c #4e4f7b",
"ca c #50517e",
"cb c #50517f",
"c# c #52537d",
"am c #557979",
"at c #567777",
"#3 c #568183",
"bQ c #575b76",
"as c #577070",
"ah c #578181",
"a# c #578383",
"cs c #584547",
"cz c #584548",
"b0 c #585e76",
"b9 c #585e77",
"ay c #586f6f",
"al c #587676",
"ad c #587777",
"ag c #587878",
"aG c #58796b",
"ck c #594445",
"bH c #596489",
"a. c #597577",
"cr c #5b4749",
"cy c #5b474a",
"cg c #5b5c6a",
"cj c #5c4647",
"cq c #5c494b",
"cx c #5c494c",
"aF c #5c7667",
"ci c #5d4849",
"co c #5e5858",
"cw c #5e5859",
"bD c #5e6777",
"bR c #606788",
"b2 c #606789",
"c. c #636477",
"aB c #669585",
"aA c #679283",
"ch c #685f5f",
"cp c #685f60",
"#R c #698783",
"#Z c #6a7e79",
"aH c #6b7470",
"az c #6f7b77",
"bq c #70867a",
".X c #726f6d",
".u c #727171",
"Qt c #727272",
".# c #736e6a",
".d c #736e6b",
".e c #736f6c",
".Y c #73706d",
".W c #73706e",
"#2 c #737372",
".f c #746b64",
".i c #746b65",
"#P c #747372",
".B c #754c30",
"bd c #758d7a",
"a7 c #759785",
"a3 c #759e8b",
"aU c #759f8b",
"bG c #767472",
"#C c #777573",
"bu c #787573",
".v c #795033",
".m c #795b46",
"bx c #797487",
".H c #7a5033",
".q c #7a5034",
".a c #7a573f",
".n c #7a5943",
".o c #7a5a43",
".t c #7a5a44",
".r c #7b5034",
".p c #7b5134",
".j c #7b5438",
".h c #7b553b",
".c c #7b563c",
".g c #7b563d",
"#v c #7b7673",
"aL c #7ba08b",
".s c #7c5134",
".b c #7c5235",
".l c #7c5236",
".k c #7c5438",
"#O c #7d7874",
"#D c #7f7874",
"#1 c #7f7974",
"bF c #817872",
"#0 c #827974",
"#Q c #837873",
"bt c #837972",
".Q c #845a3c",
"bE c #857972",
".O c #865a3c",
"aX c #867a72",
".P c #875b3e",
".A c #875c3e",
"bg c #877a72",
"bv c #877c75",
"aR c #897b72",
"bw c #8a7e75",
"bh c #8c7f76",
".8 c #8e6a51",
"aS c #908176",
"a9 c #918177",
".G c #926546",
".w c #936547",
"aI c #938176",
".N c #9b6c4c",
".7 c #9c755b",
"#u c #a18979",
".I c #a77756",
".C c #ab7a58",
"#p c #af907b",
".x c #b07e5c",
".z c #b07e5d",
"bs c #b08b72",
".y c #b17f5d",
"#t c #b4927c",
"#q c #b5937c",
"br c #bc8c71",
"a2 c #bd9072",
"aW c #be9072",
"bf c #bf9172",
".V c #c09678",
"#E c #c39a7e",
"bi c #c49a7e",
".Z c #c69b7e",
"#J c #c6a685",
"#I c #c6a987",
"aQ c #c79273",
"#l c #c79c7e",
"#K c #c7a382",
"#L c #c7a483",
"#N c #c89c7f",
".6 c #c89c80",
"#H c #c8a886",
"a1 c #cb916e",
"a8 c #cb916f",
"be c #cb9271",
"aV c #cc916e",
"bj c #cd9f7f",
"#w c #cfa07f",
"#M c #cfa280",
"#G c #cfa382",
"#F c #d2a180",
"#B c #d5a380",
"aT c #d6a380",
"aP c #d7946f",
".S c #d8a27c",
"#r c #d8a481",
".T c #d9a27d",
".U c #daa37d",
".R c #daa47e",
"#s c #daa581",
"#c c #dba47f",
"#f c #dba57f",
"#m c #dca681",
"#o c #dda681",
"#n c #dda782",
"#j c #dea680",
"#. c #dea681",
".J c #dfa781",
"#g c #e0a881",
".L c #e0a882",
".M c #e0a983",
"aJ c #e1a580",
".9 c #e1a882",
"#i c #e1a982",
".K c #e1a983",
"#h c #e2a983",
".0 c #e2aa84",
"## c #e3a983",
"#e c #e3aa83",
".5 c #e3aa84",
".1 c #e3ab84",
".4 c #e3ab85",
"#x c #e4a881",
"#y c #e4a882",
".3 c #e4ac86",
"#A c #e5a882",
"#z c #e5a982",
".2 c #e5ab85",
"#d c #e5ac85",
".D c #e5ad86",
".F c #e6ad87",
".E c #e7ae88",
"#k c #eab088",
"aK c #edaa82",
"QtQtQtQtQtQtQtQtQtQtQtQtQtQtQtQtQtQtQtQtQtQtQtQtQtQtQtQtQtQtQtQtQtQtQtQtQtQtQtQtQtQtQtQtQtQtQtQtQtQtQtQtQtQtQtQtQtQtQtQtQtQtQtQt",
"QtQtQtQtQtQtQtQtQtQtQtQtQtQtQtQtQtQtQtQtQtQtQtQtQtQtQtQtQtQtQtQtQtQtQtQtQtQtQtQtQtQtQtQtQtQtQtQtQtQtQtQtQtQtQtQtQtQtQtQtQtQtQtQt",
"QtQtQtQtQtQtQtQtQtQtQtQtQtQtQtQtQtQtQtQtQtQtQtQtQtQtQtQtQtQtQtQtQtQtQtQtQtQtQtQtQtQtQtQtQtQtQtQtQtQtQtQtQtQtQtQtQtQtQtQtQtQtQtQt",
"QtQtQtQtQtQtQtQtQtQtQtQtQtQtQtQtQtQtQtQtQtQtQtQtQtQtQtQtQtQtQtQtQtQtQtQtQtQtQtQtQtQtQtQtQtQtQtQtQtQtQtQtQtQtQtQtQtQtQtQtQtQtQtQt",
"QtQtQtQtQtQtQtQtQtQtQtQtQtQtQtQtQtQtQtQtQtQtQtQtQtQtQtQtQtQtQtQtQtQtQtQtQtQtQtQtQtQtQtQtQtQtQtQtQtQtQtQtQtQtQtQtQtQtQtQtQtQtQtQt",
"QtQtQtQtQtQtQtQtQtQtQtQtQtQtQtQtQtQtQtQtQtQtQtQtQtQtQtQtQtQtQtQtQtQtQtQtQtQtQtQtQtQtQtQtQtQtQtQtQtQtQtQtQtQtQtQtQtQtQtQtQtQtQtQt",
"QtQtQtQtQtQtQtQtQtQtQtQtQtQtQtQtQtQtQtQtQtQtQtQtQtQtQtQtQtQtQtQtQtQtQtQtQtQtQtQtQtQtQtQtQtQtQtQtQtQtQtQtQtQtQtQtQtQtQtQtQtQtQtQt",
"QtQtQtQtQtQtQtQtQtQtQtQtQtQtQtQtQtQtQtQtQtQtQtQtQtQtQtQtQtQtQtQtQtQtQtQtQtQtQtQtQtQtQtQtQtQtQtQtQtQtQtQtQtQtQtQtQtQtQtQtQtQtQtQt",
"QtQtQtQtQtQtQtQtQtQtQtQtQtQtQtQtQt.#.a.b.b.b.b.b.b.b.b.b.b.b.b.b.b.b.b.b.b.b.b.b.b.b.b.b.b.c.dQtQtQtQtQtQtQtQtQtQtQtQtQtQtQtQtQt",
"QtQtQtQtQtQtQtQtQtQtQtQtQtQtQtQtQt.#.a.b.b.b.b.b.b.b.b.b.b.b.b.b.b.b.b.b.b.b.b.b.b.b.b.b.b.c.eQtQtQtQtQtQtQtQtQtQtQtQtQtQtQtQtQt",
"QtQtQtQtQtQtQtQtQtQtQtQtQtQtQt.d.e.f.g.b.b.b.b.b.b.b.b.b.b.b.b.b.b.b.b.b.b.b.b.b.b.b.b.b.b.h.i.e.eQtQtQtQtQtQtQtQtQtQtQtQtQtQtQt",
"QtQtQtQtQtQtQtQtQtQtQtQtQtQtQt.j.j.k.l.b.b.b.b.b.b.b.b.b.b.b.b.b.b.b.b.b.b.b.b.b.b.b.b.b.b.b.k.j.mQtQtQtQtQtQtQtQtQtQtQtQtQtQtQt",
"QtQtQtQtQtQtQtQtQtQtQtQtQtQtQt.b.b.b.b.b.b.b.b.b.b.b.b.b.b.b.b.b.b.b.b.b.b.b.b.b.b.b.b.b.b.b.b.b.nQtQtQtQtQtQtQtQtQtQtQtQtQtQtQt",
"QtQtQtQtQtQtQtQtQtQtQtQtQtQtQt.b.b.b.b.b.b.b.b.b.b.b.b.b.b.b.b.b.b.b.b.b.b.b.b.b.b.b.b.b.b.b.b.b.oQtQtQtQtQtQtQtQtQtQtQtQtQtQtQt",
"QtQtQtQtQtQtQtQtQtQtQtQtQtQtQt.b.b.b.b.b.b.b.b.b.b.b.b.b.b.b.b.b.b.b.b.b.b.b.b.b.b.b.b.b.b.b.b.b.oQtQtQtQtQtQtQtQtQtQtQtQtQtQtQt",
"QtQtQtQtQtQtQtQtQtQtQtQtQtQtQt.b.b.b.b.b.b.b.b.b.b.b.b.b.b.b.b.b.b.b.b.b.b.b.b.b.b.b.b.b.b.b.b.b.oQtQtQtQtQtQtQtQtQtQtQtQtQtQtQt",
"QtQtQtQtQtQtQtQtQtQtQtQtQtQtQt.b.b.b.b.b.b.b.b.b.b.b.b.b.b.b.b.b.b.b.b.b.b.b.b.b.b.b.b.b.b.b.b.b.oQtQtQtQtQtQtQtQtQtQtQtQtQtQtQt",
"QtQtQtQtQtQtQtQtQtQtQtQtQtQtQt.b.b.b.b.b.b.b.b.p.q.r.q.q.q.s.b.b.b.b.b.b.b.b.b.b.b.b.b.b.b.b.b.b.t.u.u.uQtQtQtQtQtQtQtQtQtQtQtQt",
"QtQtQtQtQtQtQtQtQtQtQtQtQtQtQt.b.b.b.b.b.b.b.v.w.x.y.z.z.z.A.p.b.b.b.b.b.b.b.b.b.b.b.b.b.b.b.b.b.cQtQtQtQtQtQtQtQtQtQtQtQtQtQtQt",
"QtQtQtQtQtQtQtQtQtQtQtQtQtQtQt.b.b.b.b.b.b.b.B.C.D.E.F.F.E.G.H.p.p.p.p.p.p.p.p.p.p.p.p.p.p.p.p.p.pQtQtQtQtQtQtQtQtQtQtQtQtQtQtQt",
"QtQtQtQtQtQtQtQtQtQtQtQtQtQtQt.b.b.b.b.b.b.b.B.I.J.K.L.L.M.N.O.P.P.P.P.P.P.P.P.P.P.P.P.P.P.P.P.P.QQtQtQtQtQtQtQtQtQtQtQtQtQtQtQt",
"QtQtQtQtQtQtQtQtQtQtQtQtQtQtQt.C.C.C.C.C.C.C.C.C.L.K.L.L.L.R.S.S.T.U.T.S.S.S.S.S.S.S.S.T.U.T.S.S.V.W.X.YQtQtQtQtQtQtQtQtQtQtQtQt",
"QtQtQtQtQtQtQtQtQtQtQtQtQtQtQt.Z.L.L.L.L.L.L.L.L.J.K.L.L.L.0.0.1.L.L.2.0.0.0.0.0.0.0.0.L.L.3.4.5.6QtQtQtQtQtQtQtQtQtQtQtQtQtQtQt",
"QtQtQtQtQtQtQtQtQtQtQtQtQtQtQt.Z.L.L.L.L.L.L.L.L.J.7.8.7.L.L.L.L.L.L.L.L.L.L.7.8.7.9#..L.L.L.L##.ZQtQtQtQtQtQtQtQtQtQtQtQtQtQtQt",
"QtQtQtQtQtQtQtQtQtQtQtQtQtQtQt.Z.L.L.L.L.L.L.L.L.J#a#b#a.L.L.L.L.L.L.L.L.9.L#a#b#a.K#c.L.L.L.L#d.ZQtQtQtQtQtQtQtQtQtQtQtQtQtQtQt",
"QtQtQtQtQtQtQtQtQtQtQtQtQtQtQt.Z.L.L.L.L.L.L.L.L.J#a#b#a.L.L#e.L.L.L.L.L.9.L#a#b#a.K#f.L.L.L.L#d.ZQtQtQtQtQtQtQtQtQtQtQtQtQtQtQt",
"QtQtQtQtQtQtQtQtQtQtQtQtQtQtQt.Z.L.L.L.L.L.L.L.L.J#a#b#a.L.L#e.L.L.L.L.L.9.L#a#b#a.K#f.L.L.L.L#d.ZQtQtQtQtQtQtQtQtQtQtQtQtQtQtQt",
"QtQtQtQtQtQtQtQtQtQtQtQtQtQtQt.Z.L.L.L.L.L.L.L.L.J#a#b#a.L.L#e.L.L.L.L.L.9.L#a#b#a.K#c.L.L.L.L#d.ZQtQtQtQtQtQtQtQtQtQtQtQtQtQtQt",
"QtQtQtQtQtQtQtQtQtQtQtQtQtQtQt.Z.L.L.L.4.L.L.L.L#g.7.8.7.L.L#h.L.L.L.L.L.9.L.7.8.7#i#j.L.L.L.L.1.ZQtQtQtQtQtQtQtQtQtQtQtQtQtQtQt",
"QtQtQtQtQtQtQtQtQtQtQtQtQtQtQt.Z.L.L.L.L.L.L.L.L.L#k#k#k.L.L.L.L.L.L.L.L.L.L#k#k#k.L.L.L.L.L#h.L.ZQtQtQtQtQtQtQtQtQtQtQtQtQtQtQt",
"QtQtQtQtQtQtQtQtQtQtQtQtQtQtQt.Z.L.L.L.L.L.L.L.L.L.L.L.L.L.L.L.L.L.L.L.L.L.L.L.L.L.L.L.L.L.L.L.L.ZQtQtQtQtQtQtQtQtQtQtQtQtQtQtQt",
"QtQtQtQtQtQtQtQtQtQtQtQtQtQtQt.Z.L.L.L.L.L.L.L.L.L.L.L.L.L.L.L.L.L.L.L.L.L.L.L.L.L.L.L.L.L.L.L.L#lQtQtQtQtQtQtQtQtQtQtQtQtQtQtQt",
"QtQtQtQtQtQtQtQtQtQtQtQtQtQtQt.Z#m#n.L.L.L.L.L.L.L.L.L.L.L.L.L.L.L.L.L.L.L.L.L.L.L.L.L.L.L.L#o#m#lQtQtQtQtQtQtQtQtQtQtQtQtQtQtQt",
"QtQtQtQtQtQtQtQtQtQtQtQtQtQtQt#p#p#q#r.L.L.L.L.L.L.L.L.L.L.L.L.L.L.L.L.L.L.L.L.L.L.L.L.L.L#s#t#p#uQtQtQtQtQtQtQtQtQtQtQtQtQtQtQt",
"QtQtQtQtQtQtQtQtQtQtQtQtQtQtQtQtQt#v#w.L.9#x#x#x#x#x#x#x#x#x#x#x#x#x#x#x#x#x#x#x#y#z#A.9.L#B#CQtQtQtQtQtQtQtQtQtQtQtQtQtQtQtQtQt",
"QtQtQtQtQtQtQtQtQtQtQtQtQtQtQtQtQt#D#E#F#G#H#I#I#I#I#I#I#I#I#I#I#I#I#I#I#I#I#I#I#J#K#L#M#F#N#OQtQtQtQtQtQtQtQtQtQtQtQtQtQtQtQtQt",
"QtQtQtQtQtQtQtQtQtQtQtQtQtQtQtQtQt#P#D#Q#R#S#S#T#U#U#U#U#U#U#U#U#U#U#U#U#U#U#U#V#W#X#Y#Z#0#1#2QtQtQtQtQtQtQtQtQtQtQtQtQtQtQtQtQt",
"QtQtQtQtQtQtQtQtQtQtQtQtQtQtQtQtQtQtQtQt#3#S#S#T#4#5#5#5#5#5#5#5#5#5#5#5#5#5#5#6#7#8#9a.QtQtQtQtQtQtQtQtQtQtQtQtQtQtQtQtQtQtQtQt",
"QtQtQtQtQtQtQtQtQtQtQtQtQtQtQtQtQtQtQtQta##S#S#T#4#4#4#4#4#4#4#4#4#4#4#4#4#4#4aa#TabacadQtQtQtQtQtQtQtQtQtQtQtQtQtQtQtQtQtQtQtQt",
"QtQtQtQtQtQtQtQtQtQtQtQtQtQtQtQtQtQtQtQta##S#S#T#4#4aaaaaa#4#4#4#4#4#4#4#4#4#4aa#TaeafagQtQtQtQtQtQtQtQtQtQtQtQtQtQtQtQtQtQtQtQt",
"QtQtQtQtQtQtQtQtQtQtQtQtQtQtQtQtQtQtQtQtah#S#S#T#4#4#4#4#4ai#4#4#4#4#4#4#4#4#4aaaj#SakalQtQtQtQtQtQtQtQtQtQtQtQtQtQtQtQtQtQtQtQt",
"QtQtQtQtQtQtQtQtQtQtQtQtQtQtQtQtQtQtQtQtamananao#4#4#4#4#4#4aa#4#4#4#4#4#4#4#4apaqaranasQtQtQtQtQtQtQtQtQtQtQtQtQtQtQtQtQtQtQtQt",
"QtQtQtQtQtQtQtQtQtQtQtQtQtQtQtQtQtQtQtQtatananau#4#4#4#4#4#4aa#4#4#4#4#4#4#4#4aaavawaxayQtQtQtQtQtQtQtQtQtQtQtQtQtQtQtQtQtQtQtQt",
"QtQtQtQtQtQtQtQtQtQtQtQtQtQtQtQtQtQtQtQtazaAaBaC#4#4#4#4#4#4aD#4#4#4#4#4#4#4#4aEaCaFaGaHQtQtQtQtQtQtQtQtQtQtQtQtQtQtQtQtQtQtQtQt",
"QtQtQtQtQtQtQtQtQtQtQtQtQtQtQtQtQtQtQtQtaIaJaKaL#4#4#4#4#4#4aM#4#4#4#4#4#4#4aNaOaLaPaQaRQtQtQtQtQtQtQtQtQtQtQtQtQtQtQtQtQtQtQtQt",
"QtQtQtQtQtQtQtQtQtQtQtQtQtQtQtQtQtQtQtQtaSaT.9aL#4#4#4#4#4#4aM#4#4#4#4#4#4#4aNaOaUaVaWaXQtQtQtQtQtQtQtQtQtQtQtQtQtQtQtQtQtQtQtQt",
"QtQtQtQtQtQtQtQtQtQtQtQtQtQtQtQtQtQtQtQtaS#B.LaL#4#4#4#4#4#4aYaaaaaaaaaaaaaaaZa0aUa1a2aXQtQtQtQtQtQtQtQtQtQtQtQtQtQtQtQtQtQtQtQt",
"QtQtQtQtQtQtQtQtQtQtQtQtQtQtQtQtQtQtQtQtaS#B.LaL#4#4#4#4#4#4aM#4#4#4#4#4#4#4aNaOa3a1a2aXQtQtQtQtQtQtQtQtQtQtQtQtQtQtQtQtQtQtQtQt",
"QtQtQtQtQtQtQtQtQtQtQtQtQtQtQtQtQtQtQtQtaS#B.LaLa4a4a4a4a4a4a4a4a4a4a4a4a4a4a5a6a7a8a2aXQtQtQtQtQtQtQtQtQtQtQtQtQtQtQtQtQtQtQtQt",
"QtQtQtQtQtQtQtQtQtQtQtQtQtQtQtQtQtQtQtQta9#r.LaLb.b.b.b.b.b.b.b#bababababababbbcbdbebfbgQtQtQtQtQtQtQtQtQtQtQtQtQtQtQtQtQtQtQtQt",
"QtQtQtQtQtQtQtQtQtQtQtQtQtQtQtQtQtQtQtQtbhbibjaLb.bkbkbkb.b.blbmbnbobobobobobobpbqbrbsbtQtQtQtQtQtQtQtQtQtQtQtQtQtQtQtQtQtQtQtQt",
"QtQtQtQtQtQtQtQtQtQtQtQtQtQtQtQtQtQtQtQtbubvbwbxbkbkbkbkbkbkbybzbAbBbBbBbBbBbBbCbDbEbFbGQtQtQtQtQtQtQtQtQtQtQtQtQtQtQtQtQtQtQtQt",
"QtQtQtQtQtQtQtQtQtQtQtQtQtQtQtQtQtQtQtQtQtQtQtbHbIbJbJbJbJbKbLbMbNbObObObObObObPbQQtQtQtQtQtQtQtQtQtQtQtQtQtQtQtQtQtQtQtQtQtQtQt",
"QtQtQtQtQtQtQtQtQtQtQtQtQtQtQtQtQtQtQtQtQtQtQtbRbSbTbTbTbUbUbVbWbXbYbYbYbYbYbYbZb0QtQtQtQtQtQtQtQtQtQtQtQtQtQtQtQtQtQtQtQtQtQtQt",
"QtQtQtQtQtQtQtQtQtQtQtQtQtQtQtQtQtQtQtQtQtQtQtbRb1bUbUbUbUbUbVbWbXbYbYbYbYbYbYbZb0QtQtQtQtQtQtQtQtQtQtQtQtQtQtQtQtQtQtQtQtQtQtQt",
"QtQtQtQtQtQtQtQtQtQtQtQtQtQtQtQtQtQtQtQtQtQtQtbRb1bUbUbUbUbUbVbWbXbYbYbYbYbYbYbZb0QtQtQtQtQtQtQtQtQtQtQtQtQtQtQtQtQtQtQtQtQtQtQt",
"QtQtQtQtQtQtQtQtQtQtQtQtQtQtQtQtQtQtQtQtQtQtQtb2b3bVbVbVbVbVb4b5b6b7b7b7b7b7b7b8b9QtQtQtQtQtQtQtQtQtQtQtQtQtQtQtQtQtQtQtQtQtQtQt",
"QtQtQtQtQtQtQtQtQtQtQtQtQtQtQtQtQtQtQtQtQtQtQtb2b3bVbVbVbVbVb4b5b6b7b7b7b7b7b7b8b9QtQtQtQtQtQtQtQtQtQtQtQtQtQtQtQtQtQtQtQtQtQtQt",
"QtQtQtQtQtQtQtQtQtQtQtQtQtQtQtQtQtQtQtQtQtQtQtc.c#cacacacacacbcccdcececececececfcgQtQtQtQtQtQtQtQtQtQtQtQtQtQtQtQtQtQtQtQtQtQtQt",
"QtQtQtQtQtQtQtQtQtQtQtQtQtQtQtQtQtQtQtQtQtQtQtchcicjcjcjcjcjcjckclcmcmcmcmcmcmcncoQtQtQtQtQtQtQtQtQtQtQtQtQtQtQtQtQtQtQtQtQtQtQt",
"QtQtQtQtQtQtQtQtQtQtQtQtQtQtQtQtQtQtQtQtQtQtQtcpcqcrcrcrcrcrcrcsctcucucucucucucvcwQtQtQtQtQtQtQtQtQtQtQtQtQtQtQtQtQtQtQtQtQtQtQt",
"QtQtQtQtQtQtQtQtQtQtQtQtQtQtQtQtQtQtQtQtQtQtQtcpcxcycycycycycyczcAcBcBcBcBcBcBcCcwQtQtQtQtQtQtQtQtQtQtQtQtQtQtQtQtQtQtQtQtQtQtQt",
"QtQtQtQtQtQtQtQtQtQtQtQtQtQtQtQtQtQtQtQtQtQtQtcpcxcycycycycycyczcAcBcBcBcBcBcBcCcwQtQtQtQtQtQtQtQtQtQtQtQtQtQtQtQtQtQtQtQtQtQtQt",
"QtQtQtQtQtQtQtQtQtQtQtQtQtQtQtQtQtQtQtQtQtQtQtcpcxcycycycycycyczcAcBcBcBcBcBcBcCcwQtQtQtQtQtQtQtQtQtQtQtQtQtQtQtQtQtQtQtQtQtQtQt"};
