/* XPM */
static char *dummy[]={
"64 64 242 2",
"#p c #008384",
"ar c #038583",
"#o c #039899",
"av c #058786",
"#m c #05afb1",
"#n c #05b0b2",
"#K c #066667",
"#q c #068586",
"au c #078785",
"as c #088684",
"at c #088785",
"#H c #088d8d",
"#P c #096161",
"an c #099e9e",
"## c #0a8181",
"#x c #0a8585",
"#J c #0a8888",
"#5 c #0aafb0",
"af c #0ab0b1",
"#u c #0b8484",
"am c #0b9e9e",
"#7 c #0bafb0",
"ah c #0bb0b1",
"#G c #0c6a6b",
"#O c #0c8484",
"#N c #0c8585",
"#C c #0c9595",
"#a c #0c9898",
"al c #0c9e9e",
"#W c #0cb0b0",
"#X c #0cb1b0",
"aI c #0d7d86",
"#6 c #0dafaf",
"ag c #0db0b0",
"#B c #0eaeae",
"#l c #0eafaf",
"#t c #0eb0b0",
"#I c #0eb1b1",
"#Q c #0f6666",
"aD c #0f808c",
"#D c #0f8282",
"#y c #0f8787",
"aG c #107d85",
"aF c #107d86",
"#v c #108686",
"aE c #13808b",
"#e c #258984",
"#d c #279a96",
"#b c #29aeaa",
"#c c #29afaa",
"#f c #2a8b85",
"aU c #2e507e",
"aV c #2e517e",
"aT c #2e5182",
"bf c #36437c",
"bo c #36437d",
"bg c #37447c",
"bp c #37447d",
"be c #384580",
"bn c #384581",
"a7 c #393f7c",
"#V c #399087",
"a8 c #3a407b",
"a6 c #3b4180",
"aS c #3b609c",
"bx c #3c3e5f",
"aR c #3c62a0",
"by c #3d3f5f",
"bw c #3f4062",
"a2 c #3f55a7",
"a1 c #4156a5",
"bF c #443636",
"bN c #443637",
"bU c #443638",
"bG c #453737",
"bO c #453738",
"bV c #453739",
"aH c #45649f",
"bd c #4657a1",
"bm c #4657a2",
"bE c #473838",
"bM c #473839",
"bT c #47383a",
"a3 c #4856a7",
"bb c #4859a5",
"bc c #4859a6",
"bl c #4859a7",
"ba c #4959a5",
"a5 c #4a54a2",
"bi c #4a5aa2",
"bk c #4a5aa3",
"b# c #4b5aa2",
"a4 c #4c56a8",
"bv c #4e4f7b",
"bt c #50517e",
"bu c #50517f",
"bs c #52537d",
"#F c #557979",
"#M c #567777",
"#k c #568183",
"a9 c #575b76",
"#L c #577070",
"#A c #578181",
"#s c #578383",
"bL c #584547",
"bS c #584548",
"bh c #585e76",
"bq c #585e77",
"#R c #586f6f",
"#E c #587676",
"#w c #587777",
"#z c #587878",
"#Z c #58796b",
"bD c #594445",
"a0 c #596489",
"#r c #597577",
"bK c #5b4749",
"bR c #5b474a",
"bz c #5b5c6a",
"bC c #5c4647",
"bJ c #5c494b",
"bQ c #5c494c",
"#Y c #5c7667",
"bB c #5d4849",
"bH c #5e5858",
"bP c #5e5859",
"aW c #5e6777",
"b. c #606788",
"bj c #606789",
"br c #636477",
"#U c #669585",
"#T c #679283",
"bA c #685f5f",
"bI c #685f60",
"#. c #698783",
"#g c #6a7e79",
"#0 c #6b7470",
"#S c #6f7b77",
"aJ c #70867a",
".v c #726f6d",
".t c #727171",
"Qt c #727272",
".# c #736e6a",
".d c #736e6b",
".e c #736f6c",
".w c #73706d",
"#j c #737372",
".f c #746b64",
".i c #746b65",
".8 c #747372",
"aw c #758d7a",
"ao c #759785",
"ak c #759e8b",
"ab c #759f8b",
"aZ c #767472",
".V c #777573",
"aN c #787573",
".n c #795b46",
"aQ c #797487",
".q c #7a5034",
".a c #7a573f",
".o c #7a5943",
".j c #7a5a43",
".s c #7a5a44",
".p c #7b5134",
".k c #7b5438",
".h c #7b553b",
".c c #7b563c",
".g c #7b563d",
".N c #7b7673",
"#4 c #7ba08b",
".r c #7c5134",
".b c #7c5235",
".m c #7c5236",
".l c #7c5438",
".7 c #7d7874",
".W c #7f7874",
"#i c #7f7974",
"aY c #817872",
"#h c #827974",
".9 c #837873",
"aM c #837972",
"aX c #857972",
"ae c #867a72",
".u c #875b3e",
"az c #877a72",
"aO c #877c75",
"a. c #897b72",
"aP c #8a7e75",
"aA c #8c7f76",
"a# c #908176",
"aq c #918177",
"#1 c #938176",
".M c #a18979",
".H c #af907b",
"aL c #b08b72",
".L c #b4927c",
".I c #b5937c",
"aK c #bc8c71",
"aj c #bd9072",
"ad c #be9072",
"ay c #bf9172",
".X c #c39a7e",
"aB c #c49a7e",
".x c #c69b7e",
".2 c #c6a685",
".1 c #c6a987",
"#9 c #c79273",
".D c #c79c7e",
".3 c #c7a382",
".4 c #c7a483",
".6 c #c89c7f",
".y c #c89c80",
".0 c #c8a886",
"ai c #cb916e",
"ap c #cb916f",
"ax c #cb9271",
"ac c #cc916e",
"aC c #cd9f7f",
".O c #cfa07f",
".5 c #cfa280",
".Z c #cfa382",
".Y c #d2a180",
".U c #d5a380",
"aa c #d6a380",
"#8 c #d7946f",
".J c #d8a481",
".K c #daa581",
".E c #dca681",
".G c #dda681",
".F c #dda782",
".z c #e0a882",
"#2 c #e1a580",
".P c #e1a882",
".A c #e3a983",
".C c #e3ab84",
".Q c #e4a881",
".R c #e4a882",
".T c #e5a882",
".S c #e5a982",
".B c #e5ac85",
"#3 c #edaa82",
"QtQtQtQtQtQtQtQtQtQtQtQtQtQtQtQtQtQtQtQtQtQtQtQtQtQtQtQtQtQtQtQtQtQtQtQtQtQtQtQtQtQtQtQtQtQtQtQtQtQtQtQtQtQtQtQtQtQtQtQtQtQtQtQt",
"QtQtQtQtQtQtQtQtQtQtQtQtQtQtQtQtQtQtQtQtQtQtQtQtQtQtQtQtQtQtQtQtQtQtQtQtQtQtQtQtQtQtQtQtQtQtQtQtQtQtQtQtQtQtQtQtQtQtQtQtQtQtQtQt",
"QtQtQtQtQtQtQtQtQtQtQtQtQtQtQtQtQtQtQtQtQtQtQtQtQtQtQtQtQtQtQtQtQtQtQtQtQtQtQtQtQtQtQtQtQtQtQtQtQtQtQtQtQtQtQtQtQtQtQtQtQtQtQtQt",
"QtQtQtQtQtQtQtQtQtQtQtQtQtQtQtQtQtQtQtQtQtQtQtQtQtQtQtQtQtQtQtQtQtQtQtQtQtQtQtQtQtQtQtQtQtQtQtQtQtQtQtQtQtQtQtQtQtQtQtQtQtQtQtQt",
"QtQtQtQtQtQtQtQtQtQtQtQtQtQtQtQtQtQtQtQtQtQtQtQtQtQtQtQtQtQtQtQtQtQtQtQtQtQtQtQtQtQtQtQtQtQtQtQtQtQtQtQtQtQtQtQtQtQtQtQtQtQtQtQt",
"QtQtQtQtQtQtQtQtQtQtQtQtQtQtQtQtQtQtQtQtQtQtQtQtQtQtQtQtQtQtQtQtQtQtQtQtQtQtQtQtQtQtQtQtQtQtQtQtQtQtQtQtQtQtQtQtQtQtQtQtQtQtQtQt",
"QtQtQtQtQtQtQtQtQtQtQtQtQtQtQtQtQtQtQtQtQtQtQtQtQtQtQtQtQtQtQtQtQtQtQtQtQtQtQtQtQtQtQtQtQtQtQtQtQtQtQtQtQtQtQtQtQtQtQtQtQtQtQtQt",
"QtQtQtQtQtQtQtQtQtQtQtQtQtQtQtQtQtQtQtQtQtQtQtQtQtQtQtQtQtQtQtQtQtQtQtQtQtQtQtQtQtQtQtQtQtQtQtQtQtQtQtQtQtQtQtQtQtQtQtQtQtQtQtQt",
"QtQtQtQtQtQtQtQtQtQtQtQtQtQtQtQtQt.#.a.b.b.b.b.b.b.b.b.b.b.b.b.b.b.b.b.b.b.b.b.b.b.b.b.b.b.c.dQtQtQtQtQtQtQtQtQtQtQtQtQtQtQtQtQt",
"QtQtQtQtQtQtQtQtQtQtQtQtQtQtQtQtQt.#.a.b.b.b.b.b.b.b.b.b.b.b.b.b.b.b.b.b.b.b.b.b.b.b.b.b.b.c.eQtQtQtQtQtQtQtQtQtQtQtQtQtQtQtQtQt",
"QtQtQtQtQtQtQtQtQtQtQtQtQtQtQt.d.e.f.g.b.b.b.b.b.b.b.b.b.b.b.b.b.b.b.b.b.b.b.b.b.b.b.b.b.b.h.i.e.eQtQtQtQtQtQtQtQtQtQtQtQtQtQtQt",
"QtQtQtQtQtQtQtQtQtQtQtQtQtQtQt.j.k.l.m.b.b.b.b.b.b.b.b.b.b.b.b.b.b.b.b.b.b.b.b.b.b.b.b.b.b.b.l.k.nQtQtQtQtQtQtQtQtQtQtQtQtQtQtQt",
"QtQtQtQtQtQtQtQtQtQtQtQtQtQtQt.j.b.b.b.b.b.b.b.b.b.b.b.b.b.b.b.b.b.b.b.b.b.b.b.b.b.b.b.b.b.b.b.b.oQtQtQtQtQtQtQtQtQtQtQtQtQtQtQt",
"QtQtQtQtQtQtQtQtQtQtQtQtQtQtQt.j.b.b.b.b.b.b.b.b.b.b.b.b.b.b.b.b.b.b.b.b.b.b.b.b.b.b.b.b.b.b.b.b.jQtQtQtQtQtQtQtQtQtQtQtQtQtQtQt",
"QtQtQtQtQtQtQtQtQtQtQtQtQtQtQt.j.b.b.b.b.b.b.b.b.b.b.b.b.b.b.b.b.b.b.b.b.b.b.b.b.b.b.b.b.b.b.b.b.jQtQtQtQtQtQtQtQtQtQtQtQtQtQtQt",
"QtQtQtQtQtQtQtQtQtQtQtQtQtQtQt.j.b.b.b.b.b.b.b.b.b.b.b.b.b.b.b.b.b.b.b.b.b.b.b.b.b.b.b.b.b.b.b.b.jQtQtQtQtQtQtQtQtQtQtQtQtQtQtQt",
"QtQtQtQtQtQtQtQtQtQtQtQtQtQtQt.j.b.b.b.b.b.b.b.b.b.b.b.b.b.b.b.b.b.b.b.b.b.b.b.b.b.b.b.b.b.b.b.b.jQtQtQtQtQtQtQtQtQtQtQtQtQtQtQt",
"QtQtQtQtQtQtQtQtQtQtQtQtQtQtQt.j.b.b.b.b.b.b.b.p.b.b.q.b.b.r.b.b.b.b.b.b.b.b.b.b.b.b.b.b.b.b.b.b.s.t.t.tQtQtQtQtQtQtQtQtQtQtQtQt",
"QtQtQtQtQtQtQtQtQtQtQtQtQtQtQt.j.b.b.b.b.b.b.b.b.b.b.b.b.b.b.p.b.b.b.b.b.b.b.b.b.b.b.b.b.b.b.b.b.cQtQtQtQtQtQtQtQtQtQtQtQtQtQtQt",
"QtQtQtQtQtQtQtQtQtQtQtQtQtQtQt.u.b.b.b.b.b.b.b.b.b.b.b.b.b.b.b.b.b.b.b.b.b.b.b.b.b.b.b.p.p.p.p.p.uQtQtQtQtQtQtQtQtQtQtQtQtQtQtQt",
"QtQtQtQtQtQtQtQtQtQtQtQtQtQtQt.u.b.b.b.b.b.b.b.b.b.b.b.b.b.b.b.b.b.b.b.b.b.b.b.b.b.b.b.b.b.b.b.b.uQtQtQtQtQtQtQtQtQtQtQtQtQtQtQt",
"QtQtQtQtQtQtQtQtQtQtQtQtQtQtQt.u.b.b.b.b.b.b.b.b.b.b.b.b.b.b.b.b.b.b.b.b.b.b.b.b.b.b.b.b.b.b.b.b.uQt.v.wQtQtQtQtQtQtQtQtQtQtQtQt",
"QtQtQtQtQtQtQtQtQtQtQtQtQtQtQt.x.u.b.b.b.b.b.b.b.b.b.b.b.b.b.b.b.b.b.b.b.b.b.b.b.b.b.b.b.b.b.b.u.yQtQtQtQtQtQtQtQtQtQtQtQtQtQtQt",
"QtQtQtQtQtQtQtQtQtQtQtQtQtQtQt.x.z.u.b.b.b.b.b.b.b.b.b.b.b.b.b.b.b.b.b.b.b.b.b.b.b.b.b.b.b.b.u.A.xQtQtQtQtQtQtQtQtQtQtQtQtQtQtQt",
"QtQtQtQtQtQtQtQtQtQtQtQtQtQtQt.x.z.u.b.b.b.b.b.b.b.b.b.b.b.b.b.b.b.b.b.b.b.b.b.b.b.b.b.b.b.b.u.B.xQtQtQtQtQtQtQtQtQtQtQtQtQtQtQt",
"QtQtQtQtQtQtQtQtQtQtQtQtQtQtQt.x.z.u.b.b.b.b.b.b.b.b.b.b.b.b.b.b.b.b.b.b.b.b.b.b.b.b.b.b.b.b.u.B.xQtQtQtQtQtQtQtQtQtQtQtQtQtQtQt",
"QtQtQtQtQtQtQtQtQtQtQtQtQtQtQt.x.z.u.b.b.b.b.b.b.b.b.b.b.b.b.b.b.b.b.b.b.b.b.b.b.b.b.b.b.b.b.u.B.xQtQtQtQtQtQtQtQtQtQtQtQtQtQtQt",
"QtQtQtQtQtQtQtQtQtQtQtQtQtQtQt.x.z.u.b.b.b.b.b.b.b.b.b.b.b.b.b.b.b.b.b.b.b.b.b.b.b.b.b.b.b.b.u.B.xQtQtQtQtQtQtQtQtQtQtQtQtQtQtQt",
"QtQtQtQtQtQtQtQtQtQtQtQtQtQtQt.x.z.u.b.b.b.b.b.b.b.b.b.b.b.b.b.b.b.b.b.b.b.b.b.b.b.b.b.b.b.b.u.C.xQtQtQtQtQtQtQtQtQtQtQtQtQtQtQt",
"QtQtQtQtQtQtQtQtQtQtQtQtQtQtQt.x.z.u.b.b.b.b.b.b.b.b.b.b.b.b.b.b.b.b.b.b.b.b.b.b.b.b.b.b.b.b.u.z.xQtQtQtQtQtQtQtQtQtQtQtQtQtQtQt",
"QtQtQtQtQtQtQtQtQtQtQtQtQtQtQt.x.z.z.u.b.b.b.b.b.b.b.b.b.b.b.b.b.b.b.b.b.b.b.b.b.b.b.b.b.b.u.z.z.xQtQtQtQtQtQtQtQtQtQtQtQtQtQtQt",
"QtQtQtQtQtQtQtQtQtQtQtQtQtQtQt.x.z.z.u.b.b.b.b.b.b.b.b.b.b.b.b.b.b.b.b.b.b.b.b.b.b.b.b.b.b.u.z.z.DQtQtQtQtQtQtQtQtQtQtQtQtQtQtQt",
"QtQtQtQtQtQtQtQtQtQtQtQtQtQtQt.x.E.F.u.u.b.b.b.b.b.b.b.b.b.b.b.b.b.b.b.b.b.b.b.b.b.b.b.b.u.u.G.E.DQtQtQtQtQtQtQtQtQtQtQtQtQtQtQt",
"QtQtQtQtQtQtQtQtQtQtQtQtQtQtQt.H.H.I.J.z.u.u.u.u.u.u.u.u.u.u.u.u.u.u.u.u.u.u.u.u.u.u.u.u.z.K.L.H.MQtQtQtQtQtQtQtQtQtQtQtQtQtQtQt",
"QtQtQtQtQtQtQtQtQtQtQtQtQtQtQtQtQt.N.O.z.P.Q.Q.Q.Q.Q.Q.Q.Q.Q.Q.Q.Q.Q.Q.Q.Q.Q.Q.Q.R.S.T.P.z.U.VQtQtQtQtQtQtQtQtQtQtQtQtQtQtQtQtQt",
"QtQtQtQtQtQtQtQtQtQtQtQtQtQtQtQtQt.W.X.Y.Z.0.1.1.1.1.1.1.1.1.1.1.1.1.1.1.1.1.1.1.2.3.4.5.Y.6.7QtQtQtQtQtQtQtQtQtQtQtQtQtQtQtQtQt",
"QtQtQtQtQtQtQtQtQtQtQtQtQtQtQtQtQt.8.W.9#.#####a#b#b#b#b#b#b#b#b#b#b#b#b#b#b#b#c#d#e#f#g#h#i#jQtQtQtQtQtQtQtQtQtQtQtQtQtQtQtQtQt",
"QtQtQtQtQtQtQtQtQtQtQtQtQtQtQtQtQtQtQtQt#k#####a#l#m#m#m#m#m#m#m#m#m#m#m#m#m#m#n#o#p#q#rQtQtQtQtQtQtQtQtQtQtQtQtQtQtQtQtQtQtQtQt",
"QtQtQtQtQtQtQtQtQtQtQtQtQtQtQtQtQtQtQtQt#s#####a#l#l#l#l#l#l#l#l#l#l#l#l#l#l#l#t#a#u#v#wQtQtQtQtQtQtQtQtQtQtQtQtQtQtQtQtQtQtQtQt",
"QtQtQtQtQtQtQtQtQtQtQtQtQtQtQtQtQtQtQtQt#s#####a#l#l#t#t#t#l#l#l#l#l#l#l#l#l#l#t#a#x#y#zQtQtQtQtQtQtQtQtQtQtQtQtQtQtQtQtQtQtQtQt",
"QtQtQtQtQtQtQtQtQtQtQtQtQtQtQtQtQtQtQtQt#A#####a#l#l#l#l#l#B#l#l#l#l#l#l#l#l#l#t#C###D#EQtQtQtQtQtQtQtQtQtQtQtQtQtQtQtQtQtQtQtQt",
"QtQtQtQtQtQtQtQtQtQtQtQtQtQtQtQtQtQtQtQt#F#G#G#H#l#l#l#l#l#l#t#l#l#l#l#l#l#l#l#I#J#K#G#LQtQtQtQtQtQtQtQtQtQtQtQtQtQtQtQtQtQtQtQt",
"QtQtQtQtQtQtQtQtQtQtQtQtQtQtQtQtQtQtQtQt#M#G#G#N#l#l#l#l#l#l#t#l#l#l#l#l#l#l#l#t#O#P#Q#RQtQtQtQtQtQtQtQtQtQtQtQtQtQtQtQtQtQtQtQt",
"QtQtQtQtQtQtQtQtQtQtQtQtQtQtQtQtQtQtQtQt#S#T#U#V#l#l#l#l#l#l#W#l#l#l#l#l#l#l#l#X#V#Y#Z#0QtQtQtQtQtQtQtQtQtQtQtQtQtQtQtQtQtQtQtQt",
"QtQtQtQtQtQtQtQtQtQtQtQtQtQtQtQtQtQtQtQt#1#2#3#4#l#l#l#l#l#l#5#l#l#l#l#l#l#l#6#7#4#8#9a.QtQtQtQtQtQtQtQtQtQtQtQtQtQtQtQtQtQtQtQt",
"QtQtQtQtQtQtQtQtQtQtQtQtQtQtQtQtQtQtQtQta#aa.P#4#l#l#l#l#l#l#5#l#l#l#l#l#l#l#6#7abacadaeQtQtQtQtQtQtQtQtQtQtQtQtQtQtQtQtQtQtQtQt",
"QtQtQtQtQtQtQtQtQtQtQtQtQtQtQtQtQtQtQtQta#.U.z#4#l#l#l#l#l#laf#t#t#t#t#t#t#tagahabaiajaeQtQtQtQtQtQtQtQtQtQtQtQtQtQtQtQtQtQtQtQt",
"QtQtQtQtQtQtQtQtQtQtQtQtQtQtQtQtQtQtQtQta#.U.z#4#l#l#l#l#l#l#5#l#l#l#l#l#l#l#6#7akaiajaeQtQtQtQtQtQtQtQtQtQtQtQtQtQtQtQtQtQtQtQt",
"QtQtQtQtQtQtQtQtQtQtQtQtQtQtQtQtQtQtQtQta#.U.z#4alalalalalalalalalalalalalalamanaoapajaeQtQtQtQtQtQtQtQtQtQtQtQtQtQtQtQtQtQtQtQt",
"QtQtQtQtQtQtQtQtQtQtQtQtQtQtQtQtQtQtQtQtaq.J.z#4arararararararasatatatatatatauavawaxayazQtQtQtQtQtQtQtQtQtQtQtQtQtQtQtQtQtQtQtQt",
"QtQtQtQtQtQtQtQtQtQtQtQtQtQtQtQtQtQtQtQtaAaBaC#4ararararararaDaEaFaGaGaGaHaHaHaIaJaKaLaMQtQtQtQtQtQtQtQtQtQtQtQtQtQtQtQtQtQtQtQt",
"QtQtQtQtQtQtQtQtQtQtQtQtQtQtQtQtQtQtQtQtaNaOaPaQaHaHaHaHaHaHaRaSaTaUaUaUaUaUaUaVaWaXaYaZQtQtQtQtQtQtQtQtQtQtQtQtQtQtQtQtQtQtQtQt",
"QtQtQtQtQtQtQtQtQtQtQtQtQtQtQtQtQtQtQtQtQtQtQta0a1a2a2a2a2a3a4a5a6a7a7a7a7a7a7a8a9QtQtQtQtQtQtQtQtQtQtQtQtQtQtQtQtQtQtQtQtQtQtQt",
"QtQtQtQtQtQtQtQtQtQtQtQtQtQtQtQtQtQtQtQtQtQtQtb.b#babababbbbbcbdbebfbfbfbfbfbfbgbhQtQtQtQtQtQtQtQtQtQtQtQtQtQtQtQtQtQtQtQtQtQtQt",
"QtQtQtQtQtQtQtQtQtQtQtQtQtQtQtQtQtQtQtQtQtQtQtb.bibbbbbbbbbbbcbdbebfbfbfbfbfbfbgbhQtQtQtQtQtQtQtQtQtQtQtQtQtQtQtQtQtQtQtQtQtQtQt",
"QtQtQtQtQtQtQtQtQtQtQtQtQtQtQtQtQtQtQtQtQtQtQtb.bibbbbbbbbbbbcbdbebfbfbfbfbfbfbgbhQtQtQtQtQtQtQtQtQtQtQtQtQtQtQtQtQtQtQtQtQtQtQt",
"QtQtQtQtQtQtQtQtQtQtQtQtQtQtQtQtQtQtQtQtQtQtQtbjbkbcbcbcbcbcblbmbnbobobobobobobpbqQtQtQtQtQtQtQtQtQtQtQtQtQtQtQtQtQtQtQtQtQtQtQt",
"QtQtQtQtQtQtQtQtQtQtQtQtQtQtQtQtQtQtQtQtQtQtQtbjbkbcbcbcbcbcblbmbnbobobobobobobpbqQtQtQtQtQtQtQtQtQtQtQtQtQtQtQtQtQtQtQtQtQtQtQt",
"QtQtQtQtQtQtQtQtQtQtQtQtQtQtQtQtQtQtQtQtQtQtQtbrbsbtbtbtbtbtbubvbwbxbxbxbxbxbxbybzQtQtQtQtQtQtQtQtQtQtQtQtQtQtQtQtQtQtQtQtQtQtQt",
"QtQtQtQtQtQtQtQtQtQtQtQtQtQtQtQtQtQtQtQtQtQtQtbAbBbCbCbCbCbCbCbDbEbFbFbFbFbFbFbGbHQtQtQtQtQtQtQtQtQtQtQtQtQtQtQtQtQtQtQtQtQtQtQt",
"QtQtQtQtQtQtQtQtQtQtQtQtQtQtQtQtQtQtQtQtQtQtQtbIbJbKbKbKbKbKbKbLbMbNbNbNbNbNbNbObPQtQtQtQtQtQtQtQtQtQtQtQtQtQtQtQtQtQtQtQtQtQtQt",
"QtQtQtQtQtQtQtQtQtQtQtQtQtQtQtQtQtQtQtQtQtQtQtbIbQbRbRbRbRbRbRbSbTbUbUbUbUbUbUbVbPQtQtQtQtQtQtQtQtQtQtQtQtQtQtQtQtQtQtQtQtQtQtQt",
"QtQtQtQtQtQtQtQtQtQtQtQtQtQtQtQtQtQtQtQtQtQtQtbIbQbRbRbRbRbRbRbSbTbUbUbUbUbUbUbVbPQtQtQtQtQtQtQtQtQtQtQtQtQtQtQtQtQtQtQtQtQtQtQt",
"QtQtQtQtQtQtQtQtQtQtQtQtQtQtQtQtQtQtQtQtQtQtQtbIbQbRbRbRbRbRbRbSbTbUbUbUbUbUbUbVbPQtQtQtQtQtQtQtQtQtQtQtQtQtQtQtQtQtQtQtQtQtQtQt"};
