/* XPM */
static char *dummy[]={
"64 64 296 2",
"aG c #016263",
"aH c #016566",
"aL c #018486",
"ah c #018687",
"ai c #018788",
"aK c #028688",
"aj c #04a9ab",
"bz c #058585",
"bv c #058785",
"al c #05afb1",
"ak c #05b0b2",
"by c #088685",
"bn c #089b9b",
"ax c #096e6e",
"ay c #097070",
"bx c #098785",
"bw c #098786",
"bp c #099a9b",
"ap c #0a8787",
"aq c #0a8888",
"a5 c #0ab0b0",
"bi c #0ab2b2",
"aD c #0b9191",
"aC c #0b9393",
"a6 c #0bafb0",
"bj c #0bb1b2",
"bo c #0c9a9a",
"aI c #0ca4a4",
"bL c #0d7d85",
"az c #0da5a5",
"ar c #0da9a9",
"aJ c #0dabab",
"aT c #0db0b0",
"aS c #0db1b1",
"aB c #0eacac",
"at c #0eafaf",
"as c #0eb0b0",
"aA c #0eb1b1",
"bM c #107d85",
"bP c #107f8b",
"bN c #117d86",
"bO c #13808b",
"aF c #156666",
"aM c #158182",
"ag c #158183",
"aU c #16acab",
"aR c #17a6a5",
"am c #18a4a5",
"aw c #1c6f6f",
"ao c #1c8383",
"aE c #1e8b8b",
"bA c #208a84",
"au c #20a4a4",
"bq c #229b97",
"bu c #248983",
"be c #24aeaa",
"bk c #24b0ac",
"a7 c #25aeaa",
"bQ c #27838a",
"bm c #279994",
"bK c #298083",
"bd c #29aba6",
"bh c #29aca7",
"a4 c #2aaba6",
"#b c #33271e",
"bY c #34457c",
"b9 c #36427c",
"cm c #36437b",
"ch c #36437c",
"bZ c #364780",
"#w c #382b21",
"c. c #384480",
"cn c #38457f",
"ci c #384580",
"#o c #392b21",
"#c c #3a2c22",
"#B c #3b2c22",
"bX c #3e4c7b",
"#x c #3f3025",
"b8 c #3f497b",
"cl c #3f4a7a",
"cg c #3f4a7b",
"#p c #403025",
"ct c #413844",
"#C c #423126",
"cu c #433a47",
"cB c #443636",
"cH c #443638",
"b0 c #4459a0",
"#h c #463529",
"cC c #463738",
"cI c #46373a",
"co c #4657a0",
"c# c #4657a1",
"b1 c #465ba4",
"aQ c #46776c",
"cc c #4758a5",
"b2 c #475ba4",
"#g c #48362a",
"cs c #48414b",
"cp c #4859a4",
"cb c #4859a5",
"aP c #487569",
"ca c #4959a5",
"#z c #4a392c",
"#s c #4b392c",
"cA c #4b3f3f",
"cG c #4b3f41",
"#y c #4c3a2d",
"#r c #4d3a2d",
"b3 c #4d5ca4",
"cd c #4e5c9d",
"#D c #4f3b2e",
"cq c #4f5d9c",
"cj c #4f5d9d",
"aO c #4f746b",
"aV c #509488",
"b4 c #545f9c",
"aX c #549285",
"aW c #559285",
"cv c #564958",
"cw c #584a5a",
"#a c #594434",
"cD c #594646",
"cJ c #594648",
"aY c #598c82",
"cE c #5b4748",
"cK c #5b474a",
"cx c #5c505e",
"#v c #5d4737",
"#n c #5e4737",
"cF c #5f4e4f",
"cL c #5f4e50",
"#A c #604838",
"aa c #609485",
"ab c #609586",
"ac c #61a999",
"ae c #62ac9d",
"ad c #62ad9e",
"a# c #6b9283",
"af c #6da696",
".1 c #705441",
"cr c #707071",
"b7 c #707072",
"cf c #707172",
"ce c #707173",
"an c #707272",
"av c #707373",
"cz c #717070",
"cy c #717171",
"ck c #717174",
"aN c #717272",
".M c #727170",
"Qt c #727272",
"aZ c #727372",
"bG c #737272",
"a0 c #737372",
"b# c #747372",
".2 c #755844",
"bW c #757372",
"b5 c #757374",
"b6 c #767473",
".k c #776253",
".j c #784e32",
".i c #784f32",
".c c #78604f",
"#X c #787573",
".W c #794f32",
"#j c #794f33",
".d c #795a45",
".u c #7a5033",
".t c #7a5034",
".f c #7a5841",
".# c #7a5941",
".b c #7a5942",
".g c #7a5943",
".h c #7a5a44",
"#Y c #7a7673",
".m c #7b5134",
".V c #7b5135",
".e c #7b5438",
".l c #7b563c",
".C c #7b573e",
"#Z c #7b7673",
".a c #7c5235",
".7 c #7c5e48",
".6 c #7d5e49",
".s c #7e5436",
".B c #7f5537",
"#E c #805638",
".n c #825739",
".v c #855a3c",
".D c #865d40",
".9 c #885d3e",
".F c #885d3f",
".0 c #896750",
".E c #8a5e40",
"#t c #8e6243",
"#k c #8f6343",
"#F c #8f6344",
".G c #946647",
"#8 c #958377",
"a. c #9d8879",
"#9 c #9e8878",
".r c #a67756",
"bH c #aa8972",
".o c #ac7b59",
".p c #af7e5c",
".q c #b07f5d",
"bJ c #b08d73",
"ba c #b38c72",
"bt c #b58d72",
"bI c #b68d72",
"a1 c #b98e72",
"bl c #bb9273",
"bc c #bb9374",
"#. c #be8b68",
"## c #bf8c69",
"#U c #bf987d",
"bR c #bf9b87",
"#H c #c19070",
"a3 c #c19574",
"#d c #c29170",
"bb c #c29272",
"#q c #c39271",
"#L c #c49372",
".N c #c4997b",
".X c #c79c7e",
"#G c #c89674",
"#T c #c89c7e",
".Q c #c89c7f",
"a2 c #c99472",
"#1 c #ca9d7f",
"bT c #ca9d87",
"bU c #cb9d86",
"#0 c #cb9e7f",
"#7 c #cc9e7f",
"#O c #cd9773",
".3 c #cd9977",
"bS c #cd9d87",
"#2 c #cd9e7f",
"#N c #ce9874",
"bF c #ce9f7f",
".L c #d09b76",
"bV c #d0a080",
"#P c #d19b76",
"#i c #d29d7a",
"b. c #d39f7f",
"br c #d3a783",
".A c #d49e79",
"bf c #d4a885",
"#f c #d5a07c",
"#V c #d6a381",
"bB c #d6a881",
".8 c #d7a17d",
".5 c #d9a37e",
".H c #dba47e",
"#I c #dba47f",
"a8 c #dba985",
".O c #dca57f",
".P c #dda57f",
"#M c #dda680",
".w c #dea680",
"#K c #dea681",
"#u c #dea781",
"#W c #dea782",
".Z c #dfa882",
".J c #e0a882",
".Y c #e1a882",
"#J c #e1a982",
".I c #e1a983",
"#l c #e1aa84",
"bg c #e2a881",
".T c #e2a983",
"#S c #e2aa83",
".K c #e2aa84",
"bs c #e3a882",
"bE c #e3aa81",
".4 c #e3aa83",
"#Q c #e3aa84",
"#R c #e3ab84",
"bD c #e4aa81",
"#e c #e4ab84",
"#m c #e4ab85",
".y c #e4ac85",
".x c #e5ad86",
".R c #e6ac86",
".U c #e6ad86",
".z c #e6ae87",
"#6 c #e7a881",
"#3 c #e7a982",
"bC c #e7aa81",
".S c #e7ad86",
"#5 c #e8a880",
"#4 c #e8a982",
"a9 c #eaa981",
"QtQtQtQtQtQtQtQtQtQtQtQtQtQtQtQtQtQtQtQtQtQtQtQtQtQtQtQtQtQtQtQtQtQtQtQtQtQtQtQtQtQtQtQtQtQtQtQtQtQtQtQtQtQtQtQtQtQtQtQtQtQtQtQt",
"QtQtQtQtQtQtQtQtQtQtQtQtQtQtQtQtQtQtQtQtQtQtQtQtQtQtQtQtQtQtQtQtQtQtQtQtQtQtQtQtQtQtQtQtQtQtQtQtQtQtQtQtQtQtQtQtQtQtQtQtQtQtQtQt",
"QtQtQtQtQtQtQtQtQtQtQtQtQtQtQtQtQtQtQtQtQtQtQtQtQtQtQtQtQtQtQtQtQtQtQtQtQtQtQtQtQtQtQtQtQtQtQtQtQtQtQtQtQtQtQtQtQtQtQtQtQtQtQtQt",
"QtQtQtQtQtQtQtQtQtQtQtQtQtQtQtQtQtQtQtQtQtQtQtQtQtQtQtQtQtQtQtQtQtQtQtQtQtQtQtQtQtQtQtQtQtQtQtQtQtQtQtQtQtQtQtQtQtQtQtQtQtQtQtQt",
"QtQtQtQtQtQtQtQtQtQtQtQtQtQtQtQtQtQtQtQtQtQtQtQtQtQtQtQtQtQtQtQtQtQtQtQtQtQtQtQtQtQtQtQtQtQtQtQtQtQtQtQtQtQtQtQtQtQtQtQtQtQtQtQt",
"QtQtQtQtQtQtQtQtQtQtQtQtQtQtQtQtQtQtQtQtQtQtQtQtQtQtQtQtQtQtQtQtQtQtQtQtQtQtQtQtQtQtQtQtQtQtQtQtQtQtQtQtQtQtQtQtQtQtQtQtQtQtQtQt",
"QtQtQtQtQtQtQtQtQtQtQtQtQtQtQtQtQtQtQtQtQtQtQtQtQtQtQtQtQtQtQtQtQtQtQtQtQtQtQtQtQtQtQtQtQtQtQtQtQtQtQtQtQtQtQtQtQtQtQtQtQtQtQtQt",
"QtQtQtQtQtQtQtQtQtQtQtQtQtQtQtQtQtQtQtQtQtQtQtQtQtQtQtQtQtQtQtQtQtQtQtQtQtQtQtQtQtQtQtQtQtQtQtQtQtQtQtQtQtQtQtQtQtQtQtQtQtQtQtQt",
"QtQtQtQtQtQtQtQtQtQtQtQtQtQtQtQtQtQtQtQtQtQtQtQtQtQtQtQtQtQtQtQtQtQtQtQtQtQtQtQtQtQtQtQtQtQtQtQtQtQtQtQtQtQtQtQtQtQtQtQtQtQtQtQt",
"QtQtQtQtQtQtQtQtQtQtQtQtQtQtQtQtQtQtQtQtQtQtQtQtQtQtQtQtQtQtQtQtQtQtQtQtQtQtQtQtQtQtQtQtQtQtQtQtQtQtQtQtQtQtQtQtQtQtQtQtQtQtQtQt",
"QtQtQtQtQtQtQtQtQtQtQtQtQtQtQtQtQtQtQtQtQtQtQtQtQtQtQtQtQtQtQtQtQtQtQtQtQtQtQtQtQtQtQtQtQtQtQtQtQtQtQtQtQtQtQtQtQtQtQtQtQtQtQtQt",
"QtQtQtQtQtQtQtQtQtQtQtQtQtQtQtQtQt.#.a.a.a.a.a.a.a.a.a.a.a.a.a.a.a.a.a.a.a.a.a.a.a.a.a.a.a.a.bQtQtQtQtQtQtQtQtQtQtQtQtQtQtQtQtQt",
"QtQtQtQtQtQtQtQtQtQtQtQtQtQtQtQtQt.b.a.a.a.a.a.a.a.a.a.a.a.a.a.a.a.a.a.a.a.a.a.a.a.a.a.a.a.a.bQtQtQtQtQtQtQtQtQtQtQtQtQtQtQtQtQt",
"QtQtQtQtQtQtQtQtQtQtQtQtQtQt.c.d.d.e.a.a.a.a.a.a.a.a.a.a.a.a.a.a.a.a.a.a.a.a.a.a.a.a.a.a.a.a.e.d.d.dQtQtQtQtQtQtQtQtQtQtQtQtQtQt",
"QtQtQtQtQtQtQtQtQtQtQtQtQtQt.f.a.a.a.a.a.a.a.a.a.a.a.a.a.a.a.a.a.a.a.a.a.a.a.a.a.a.a.a.a.a.a.a.a.a.aQtQtQtQtQtQtQtQtQtQtQtQtQtQt",
"QtQtQtQtQtQtQtQtQtQtQtQtQtQt.g.a.a.a.a.a.a.a.a.a.a.a.a.a.a.a.a.a.a.a.a.a.a.a.a.a.a.a.a.a.a.a.a.a.a.aQtQtQtQtQtQtQtQtQtQtQtQtQtQt",
"QtQtQtQtQtQtQtQtQtQtQtQtQtQt.g.a.a.a.a.a.a.a.a.a.a.a.a.a.a.a.a.a.a.a.a.a.a.a.a.a.a.a.a.a.a.a.a.a.a.aQtQtQtQtQtQtQtQtQtQtQtQtQtQt",
"QtQtQtQtQtQtQtQtQtQtQtQtQtQt.g.a.a.a.a.a.a.a.a.a.a.a.a.a.a.a.a.a.a.a.a.a.a.a.a.a.a.a.a.a.a.a.a.a.a.aQtQtQtQtQtQtQtQtQtQtQtQtQtQt",
"QtQtQtQtQtQtQtQtQtQtQtQtQtQt.g.a.a.a.a.a.a.a.a.a.a.a.a.a.a.a.a.a.a.a.a.a.a.a.a.a.a.a.a.a.a.a.a.a.a.aQtQtQtQtQtQtQtQtQtQtQtQtQtQt",
"QtQtQtQtQtQtQtQtQtQtQtQtQtQt.h.a.a.a.a.a.a.a.a.a.a.a.a.a.a.a.a.a.a.a.a.i.j.j.j.j.i.a.a.a.a.a.a.a.a.aQtQtQtQtQtQtQtQtQtQtQtQtQtQt",
"QtQtQtQtQtQtQtQtQtQtQt.k.k.k.l.a.a.a.a.a.a.a.a.a.a.a.a.a.a.a.a.a.a.m.n.o.p.p.p.q.r.s.m.a.a.a.a.a.a.aQtQtQtQtQtQtQtQtQtQtQtQtQtQt",
"QtQtQtQtQtQtQtQtQtQtQt.a.a.a.t.u.u.u.u.u.u.u.u.u.u.u.u.u.u.u.u.u.u.i.v.w.x.y.y.z.A.B.m.a.a.a.a.a.a.aQtQtQtQtQtQtQtQtQtQtQtQtQtQt",
"QtQtQtQtQtQtQtQtQtQtQt.C.C.C.D.E.E.E.E.E.E.E.E.E.E.E.E.E.E.E.E.E.E.F.G.H.I.J.J.K.L.B.m.a.a.a.a.a.a.aQtQtQtQtQtQtQtQtQtQtQtQtQtQt",
"QtQtQtQtQtQtQtQtQtQtQt.M.M.M.N.O.O.O.O.O.O.O.O.O.O.O.O.O.O.O.O.O.O.O.P.J.J.J.J.K.L.B.m.a.a.a.a.a.a.aQtQtQtQtQtQtQtQtQtQtQtQtQtQt",
"QtQtQtQtQtQtQtQtQtQtQtQtQtQt.Q.I.I.R.S.S.K.I.I.I.I.I.I.I.T.U.S.U.T.I.I.J.J.J.J.K.L.B.m.V.W.i.i.i.i.iQtQtQtQtQtQtQtQtQtQtQtQtQtQt",
"QtQtQtQtQtQtQtQtQtQtQtQtQtQt.X.Y.Z.0.1.2.3.4.J.J.J.J.J.I.5.6.1.7.8.I.J.J.J.J.J.K.L.B.u.9#.##########QtQtQtQtQtQtQtQtQtQtQtQtQtQt",
"QtQtQtQtQtQtQtQtQtQtQtQtQtQt.X.Y.Z#a#b#c#d#e.J.J.J.J.J.T#f#g#b#h#i.T.J.J.J.J.J.K.L.B#j#k#l#m#m#m#m#mQtQtQtQtQtQtQtQtQtQtQtQtQtQt",
"QtQtQtQtQtQtQtQtQtQtQtQtQtQt.X.Y.Z#n#o#p#q#e.J.J.J.J.J.T#f#r#o#s#i.T.J.J.J.J.J.K.L.B#j#t#u.J.J.J.J.JQtQtQtQtQtQtQtQtQtQtQtQtQtQt",
"QtQtQtQtQtQtQtQtQtQtQtQtQtQt.X.Y.Z#v#w#x#q#e.J.J.J.J.J.T#f#y#w#z#i.T.J.J.J.J.J.K.L.B#j#t#u.J.J.J.J.JQtQtQtQtQtQtQtQtQtQtQtQtQtQt",
"QtQtQtQtQtQtQtQtQtQtQtQtQtQt.X.Y.Z#A#B#C#q#e.J.J.J.J.J.T#f#D#B#r#i.T.J.J.J.J.J.K.L#E.t#F#u.J.J.J.J.JQtQtQtQtQtQtQtQtQtQtQtQtQtQt",
"QtQtQtQtQtQtQtQtQtQtQtQtQtQt.X.J.J#G#H#d#I#J.J.J.J.J.J.J#K#L#H#L#M.J.J.J.J.J.J.J#M#N#O#P.J.J.J.J.J.JQtQtQtQtQtQtQtQtQtQtQtQtQtQt",
"QtQtQtQtQtQtQtQtQtQtQtQtQtQt.X.J.J#Q#e#e#J.J.J.J.J.J.J.J.J#R#e#e.J.J.J.J.J.J.J.J.J.K.K#S.J.J.J.J.J.JQtQtQtQtQtQtQtQtQtQtQtQtQtQt",
"QtQtQtQtQtQtQtQtQtQtQtQtQtQt.X.J.J.J.J.J.J.J.J.J.J.J.J.J.J.J.J.J.J.J.J.J.J.J.J.J.J.J.J.J.J.J.J.J.J.JQtQtQtQtQtQtQtQtQtQtQtQtQtQt",
"QtQtQtQtQtQtQtQtQtQtQtQtQtQt#T.J.J.J.J.J.J.J.J.J.J.J.J.J.J.J.J.J.J.J.J.J.J.J.J.J.J.J.J.J.J.J.J.J.J.JQtQtQtQtQtQtQtQtQtQtQtQtQtQt",
"QtQtQtQtQtQtQtQtQtQtQtQtQtQt#U#V#V#W.J.J.J.J.J.J.J.J.J.J.J.J.J.J.J.J.J.J.J.J.J.J.J.J.J.J.J.J#W#V#V#VQtQtQtQtQtQtQtQtQtQtQtQtQtQt",
"QtQtQtQtQtQtQtQtQtQtQtQtQtQt#X#Y#Z#0.J.J.J.J.J.J.J.J.J.J.J.J.J.J.J.J.J.J.J.J.J.J.J.J.J.J.J.J#1#Z#Y#YQtQtQtQtQtQtQtQtQtQtQtQtQtQt",
"QtQtQtQtQtQtQtQtQtQtQtQtQtQtQtQtQt#2.J.J#3#4#4#5#5#5#5#5#5#5#5#5#5#5#5#5#5#5#5#5#5#5#5#6.J.J#7QtQtQtQtQtQtQtQtQtQtQtQtQtQtQtQtQt",
"QtQtQtQtQtQtQtQtQtQtQtQtQtQtQtQtQt#8#9a.a#aaabacadaeaeaeaeaeaeaeaeaeaeaeaeaeaeaeaeaeaeafa.#9#8QtQtQtQtQtQtQtQtQtQtQtQtQtQtQtQtQt",
"QtQtQtQtQtQtQtQtQtQtQtQtQtQtQtQtQtQtQtQtagahaiajakalalalalalalalalalalalalalalalalalalamQtQtQtQtQtQtQtQtQtQtQtQtQtQtQtQtQtQtQtQt",
"QtQtQtQtQtQtQtQtQtQtQtQtQtQtQtQtQtQtQtanaoapaqarasatatatatatatatatatatatatatatatatatatauavQtQtQtQtQtQtQtQtQtQtQtQtQtQtQtQtQtQtQt",
"QtQtQtQtQtQtQtQtQtQtQtQtQtQtQtQtQtQtQtanaoapaqarasatatatatatatatatatatatatatatatatatatauavQtQtQtQtQtQtQtQtQtQtQtQtQtQtQtQtQtQtQt",
"QtQtQtQtQtQtQtQtQtQtQtQtQtQtQtQtQtQtQtanaoapaqarasatatatatatatatatatatatatatatatatatatauavQtQtQtQtQtQtQtQtQtQtQtQtQtQtQtQtQtQtQt",
"QtQtQtQtQtQtQtQtQtQtQtQtQtQtQtQtQtQtQtanawaxayazaAatatatatatatatatasaBaCaDaDaDaDaDaDaDaEanQtQtQtQtQtQtQtQtQtQtQtQtQtQtQtQtQtQtQt",
"QtQtQtQtQtQtQtQtQtQtQtQtQtQtQtQtQtQtQtanaFaGaHaIaAatatatatatatatatasaJaKaLaLaLaLaLaLaLaManQtQtQtQtQtQtQtQtQtQtQtQtQtQtQtQtQtQtQt",
"QtQtQtQtQtQtQtQtQtQtQtQtQtQtQtQtQtQtQtaNaOaPaQaRaSatatatatatatatataTaUaVaWaXaXaXaXaXaXaYaZQtQtQtQtQtQtQtQtQtQtQtQtQtQtQtQtQtQtQt",
"QtQtQtQtQtQtQtQtQtQtQtQtQtQtQtQtQtQtQta0a1a2a3a4a5atatatatatatatata6a7a8a9#4#4#4#4#4#4b.b#QtQtQtQtQtQtQtQtQtQtQtQtQtQtQtQtQtQtQt",
"QtQtQtQtQtQtQtQtQtQtQtQtQtQtQtQtQtQtQta0babbbcbda5atatatatatatatata6bebfbg.J.J.J.J.J.J#7b#QtQtQtQtQtQtQtQtQtQtQtQtQtQtQtQtQtQtQt",
"QtQtQtQtQtQtQtQtQtQtQtQtQtQtQtQtQtQtQta0babbbcbda5atatatatatatatata6bebfbg.J.J.J.J.J.J#7b#QtQtQtQtQtQtQtQtQtQtQtQtQtQtQtQtQtQtQt",
"QtQtQtQtQtQtQtQtQtQtQtQtQtQtQtQtQtQtQta0babbbcbhbiaAaAaAaAaAaAaAaAbjbkbfbg.J.J.J.J.J.J#7b#QtQtQtQtQtQtQtQtQtQtQtQtQtQtQtQtQtQtQt",
"QtQtQtQtQtQtQtQtQtQtQtQtQtQtQtQtQtQtQta0babbblbmbnbobobobobobobobobpbqbrbs.J.J.J.J.J.J#7b#QtQtQtQtQtQtQtQtQtQtQtQtQtQtQtQtQtQtQt",
"QtQtQtQtQtQtQtQtQtQtQtQtQtQtQtQtQtQtQta0btbbblbubvbwbwbwbwbwbwbxbybzbAbBbCbDbDbDbE.J.JbFb#QtQtQtQtQtQtQtQtQtQtQtQtQtQtQtQtQtQtQt",
"QtQtQtQtQtQtQtQtQtQtQtQtQtQtQtQtQtQtQtbGbHbIbJbKbLbMbMbMbMbMbMbNbObPbQbRbSbTbTbTbUbVbV#Ua0QtQtQtQtQtQtQtQtQtQtQtQtQtQtQtQtQtQtQt",
"QtQtQtQtQtQtQtQtQtQtQtQtQtQtQtQtQtQtQtQtb#bWbGbXbYbYbYbYbYbYbYbZb0b1b2b3b3b3b3b3b4b5b6bWQtQtQtQtQtQtQtQtQtQtQtQtQtQtQtQtQtQtQtQt",
"QtQtQtQtQtQtQtQtQtQtQtQtQtQtQtQtQtQtQtQtQtQtb7b8b9b9b9b9b9b9b9c.c#cacbcccccccccccdceQtQtQtQtQtQtQtQtQtQtQtQtQtQtQtQtQtQtQtQtQtQt",
"QtQtQtQtQtQtQtQtQtQtQtQtQtQtQtQtQtQtQtQtQtQtcfcgchchchchchchchcic#cbcbcbcbcbcbcbcjckQtQtQtQtQtQtQtQtQtQtQtQtQtQtQtQtQtQtQtQtQtQt",
"QtQtQtQtQtQtQtQtQtQtQtQtQtQtQtQtQtQtQtQtQtQtcfcgchchchchchchchcic#cbcbcbcbcbcbcbcjckQtQtQtQtQtQtQtQtQtQtQtQtQtQtQtQtQtQtQtQtQtQt",
"QtQtQtQtQtQtQtQtQtQtQtQtQtQtQtQtQtQtQtQtQtQtcfcgchchchchchchchcic#cbcbcbcbcbcbcbcjckQtQtQtQtQtQtQtQtQtQtQtQtQtQtQtQtQtQtQtQtQtQt",
"QtQtQtQtQtQtQtQtQtQtQtQtQtQtQtQtQtQtQtQtQtQtcfcgchchchchchchchcic#cbcbcbcbcbcbcbcjckQtQtQtQtQtQtQtQtQtQtQtQtQtQtQtQtQtQtQtQtQtQt",
"QtQtQtQtQtQtQtQtQtQtQtQtQtQtQtQtQtQtQtQtQtQtcfclcmcmcmcmcmcmcmcncocpcpcpcpcpcpcpcqckQtQtQtQtQtQtQtQtQtQtQtQtQtQtQtQtQtQtQtQtQtQt",
"QtQtQtQtQtQtQtQtQtQtQtQtQtQtQtQtQtQtQtQtQtQtcrcsctctctctctctctcucvcwcwcwcwcwcwcwcxcyQtQtQtQtQtQtQtQtQtQtQtQtQtQtQtQtQtQtQtQtQtQt",
"QtQtQtQtQtQtQtQtQtQtQtQtQtQtQtQtQtQtQtQtQtQtczcAcBcBcBcBcBcBcBcCcDcEcEcEcEcEcEcEcFcyQtQtQtQtQtQtQtQtQtQtQtQtQtQtQtQtQtQtQtQtQtQt",
"QtQtQtQtQtQtQtQtQtQtQtQtQtQtQtQtQtQtQtQtQtQtczcGcHcHcHcHcHcHcHcIcJcKcKcKcKcKcKcKcLcyQtQtQtQtQtQtQtQtQtQtQtQtQtQtQtQtQtQtQtQtQtQt",
"QtQtQtQtQtQtQtQtQtQtQtQtQtQtQtQtQtQtQtQtQtQtczcGcHcHcHcHcHcHcHcIcJcKcKcKcKcKcKcKcLcyQtQtQtQtQtQtQtQtQtQtQtQtQtQtQtQtQtQtQtQtQtQt",
"QtQtQtQtQtQtQtQtQtQtQtQtQtQtQtQtQtQtQtQtQtQtczcGcHcHcHcHcHcHcHcIcJcKcKcKcKcKcKcKcLcyQtQtQtQtQtQtQtQtQtQtQtQtQtQtQtQtQtQtQtQtQtQt"};
