/* XPM */
static char *dummy[]={
"64 64 83 2",
".s c #545454",
"#m c #565656",
".q c #575757",
"#i c #585858",
"#d c #595959",
".r c #5a5a5a",
".Q c #5b5b5b",
".Y c #5c5c5c",
".B c #5d5d5d",
".G c #5e5e5e",
".O c #5f5f5f",
".C c #606060",
".P c #616161",
"#l c #626262",
"#n c #636363",
"#k c #646464",
"#. c #656565",
"## c #666666",
"#j c #676767",
"#c c #686868",
"#f c #696969",
"#h c #6a6a6a",
".9 c #6b6b6b",
"#a c #6c6c6c",
"#b c #6d6d6d",
".7 c #6e6e6e",
"#e c #6f6f6f",
".T c #707070",
".U c #717171",
".Z c #727272",
".8 c #737373",
"#g c #747474",
".6 c #757575",
".5 c #767676",
".S c #777777",
".N c #787878",
".p c #797979",
".X c #7a7a7a",
".W c #7b7b7b",
".1 c #7c7c7c",
".V c #7d7d7d",
".A c #7e7e7e",
".0 c #7f7f7f",
".2 c #808080",
".4 c #818181",
".3 c #828282",
".L c #838383",
".J c #848484",
".I c #858585",
".K c #868686",
".M c #878787",
".m c #888888",
".n c #898989",
".o c #8a8a8a",
".i c #8b8b8b",
".j c #8c8c8c",
".x c #8d8d8d",
".z c #8e8e8e",
".y c #8f8f8f",
".l c #909090",
".E c #919191",
".F c #929292",
".k c #939393",
".c c #949494",
".d c #959595",
".h c #969696",
".w c #979797",
".g c #989898",
".b c #999999",
".# c #9a9a9a",
".a c #9b9b9b",
".f c #9c9c9c",
".e c #9d9d9d",
".u c #9e9e9e",
".v c #9f9f9f",
"Qt c #a0a0a0",
".D c #a1a1a1",
".R c #a2a2a2",
".H c #a3a3a3",
".t c #a4a4a4",
"#q c #a5a5a5",
"#o c #a6a6a6",
"#p c #a7a7a7",
"Qt.#.a.b.c.c.c.d.e.f.f.f.b.g.g.h.i.i.i.j.h.g.g.g.c.k.k.k.l.l.l.l.l.l.l.l.l.l.l.l.l.l.l.l.k.h.h.h.l.m.m.m.n.i.i.i.o.o.o.i.p.q.r.s",
".t.u.v.e.g.b.w.bQtQtQtQt.f.f.f.#.l.l.l.l.#.f.f.f.g.w.w.w.c.d.c.c.c.c.c.c.c.c.c.c.c.c.c.c.w.#.#.a.d.x.x.x.x.y.y.y.y.z.z.l.A.B.C.r",
".t.u.v.e.b.b.g.#.D.D.D.D.e.f.e.a.E.E.E.F.a.e.e.u.b.g.g.g.d.d.d.d.h.d.d.d.d.d.d.d.d.d.d.d.g.a.a.f.h.z.z.z.z.l.l.l.y.y.y.l.A.G.C.r",
".H.e.v.a.l.E.l.l.k.k.k.c.F.F.F.l.I.J.J.I.E.F.k.F.l.l.l.l.y.y.z.z.K.L.L.J.m.n.n.o.o.o.o.o.o.n.n.n.M.M.M.K.M.M.m.M.K.I.I.M.N.O.P.Q",
".R.a.e.w.K.m.m.M.m.m.m.M.M.M.m.I.p.p.p.p.K.M.M.M.M.M.M.M.M.M.M.m.S.T.U.U.p.A.V.A.A.A.A.A.W.N.S.S.W.A.A.A.A.A.A.A.V.X.X.W.U.O.P.Y",
".D.a.e.h.M.m.m.m.m.m.m.m.m.m.m.K.p.p.p.X.M.m.m.m.m.m.m.m.m.m.m.n.p.Z.Z.Z.W.0.0.0.0.0.0.0.1.p.p.N.1.0.0.0.0.0.0.2.A.W.W.1.U.O.P.Y",
".R.f.e.w.M.m.m.m.m.m.m.m.m.m.n.M.X.N.N.N.M.m.m.m.m.m.m.m.m.m.m.n.p.U.Z.Z.W.0.A.A.0.0.0.0.1.p.p.N.1.0.0.0.0.0.0.2.A.W.W.1.Z.C.P.Y",
".e.w.b.F.3.L.L.L.L.L.L.L.L.L.L.4.A.0.0.0.3.L.L.L.J.I.I.I.I.I.I.K.W.5.S.5.0.L.3.L.2.0.0.0.V.W.1.W.V.0.0.0.V.W.1.W.p.6.6.5.7.O.C.r",
".h.y.l.n.S.N.N.N.N.N.N.N.N.N.N.X.m.n.n.n.X.N.N.N.V.0.0.0.0.0.0.A.0.0.0.0.I.o.n.o.3.0.0.0.0.0.2.0.0.0.0.2.X.U.Z.8.U.9.9.9#..Y.B.q",
".h.y.E.o.p.p.p.p.p.p.p.p.p.p.p.W.m.m.m.m.W.p.p.p.V.0.0.0.0.0.0.0.0.0.0.0.I.m.m.n.3.0.0.0.0.0.0.0.0.0.0.0.p.Z.8.8.U.9.9.9##.Y.B.q",
".h.z.E.o.p.p.p.p.p.p.p.p.p.N.N.X.m.m.n.m.W.p.p.p.V.0.0.0.0.0.0.0.0.0.0.0.I.n.n.n.L.0.0.0.0.0.0.0.0.0.0.0.p.U.Z.Z.T.9.9.9##.Y.B.q",
".b.F.c.o.5.5.5.N.1.1.W.1.A.A.0.0.J.J.J.J.1.W.W.W.1.V.V.V.V.V.V.V.V.V.V.V.2.3.3.3.0.V.1.V.A.A.0.0.0.0.0.0.A.1.W.1.S#a#b#b#c.B.G#d",
".f.h.g.x.Z.8.8.6.0.0.0.2.M.m.m.m.0.0.A.A.2.0.0.0.W.p.p.p.p.p.p.p.p.p.p.p.p.N.N.N.p.p.p.p.1.0.0.0.0.0.0.0.J.n.n.o.3#b#e#e#f.G.O.r",
".f.h.g.z.8.8.8.5.0.0.0.0.M.m.m.M.0.0.0.0.2.0.0.0.W.p.p.p.p.p.p.p.p.p.p.p.p.p.p.p.p.p.p.p.1.0.0.0.0.0.0.0.L.n.m.n.2#b.7#e#f.G.O.r",
".f.h.g.z.8.8.Z.6.0.0.0.2.m.n.m.M.0.0.0.0.0.0.0.A.W.N.p.N.N.N.N.N.N.N.N.N.p.N.N.N.N.N.N.N.1.0.0.0.2.0.0.0.L.n.m.n.2#b.7#e#f.G.O.r",
".f.d.g.z#g.6.6.S.V.V.V.V.L.J.J.L.V.V.V.V.V.V.V.V.V.V.V.A.A.A.A.A.A.A.A.A.A.A.A.A.A.A.A.V.V.W.W.W.V.0.0.0.L.n.m.n.4#e#e.T#h.G.G#d",
".b.c.d.j.p.p.p.p.p.p.N.p.N.p.N.p.p.p.N.N.N.p.N.p.I.n.m.n.n.n.n.n.n.n.n.n.n.n.n.n.n.n.n.n.V.U.8.Z.N.0.0.0.L.m.m.n.3.8#g.6#a.Y.B#i",
".b.k.c.j.p.p.p.p.p.p.p.p.p.p.p.p.p.p.p.p.p.p.p.p.I.m.m.m.m.m.m.m.m.m.m.m.m.m.m.m.m.m.m.n.A.Z.8.Z.N.0.0.0.L.m.m.n.3.8#g.6.9.Y.B.q",
".b.k.d.x.p.p.p.p.p.p.p.p.p.p.p.p.p.p.p.p.p.p.p.p.I.n.n.n.n.n.n.m.m.n.n.n.n.n.n.n.n.n.n.o.A.U.8.Z.N.0.0.0.L.n.n.o.L#g#g.6#a.Q.B.q",
".b.k.d.j.N.p.p.p.p.p.p.p.p.p.p.p.W.W.W.W.N.S.S.S.3.I.I.I.I.I.I.I.J.J.J.J.J.J.J.L.3.4.4.3.1.S.N.S.W.V.V.V.0.L.J.J.1.T.T.U.9.B.G#i",
".b.F.k.j.N.p.p.p.p.p.p.p.p.p.p.X.0.0.0.0.6.8.8.8.V.0.0.0.0.0.0.0.p.N.N.N.N.N.N.p#g.Z.Z.U.p.2.2.2.V.X.p.p.N.N.N.p#g#f#f#h#j.P.P.Y",
".b.F.c.j.p.p.p.p.p.p.p.p.p.p.p.X.A.0.0.A.6.8.8.8.1.2.0.0.0.0.0.0.X.p.p.p.p.p.p.X.6.8.8.8.p.0.0.0.1.p.p.p.p.p.p.X#g#f#h#h#j.P.P.Y",
".b.F.c.j.p.p.p.p.p.p.p.p.p.p.X.X.0.2.0.0.6.8.8.8.1.2.2.2.2.2.2.0.W.p.p.p.p.p.p.X.6.8.8.Z.p.2.0.2.V.p.X.X.p.p.p.X.6#f#h.9##.C.P.Y",
".g.E.k.o.S.N.N.N.p.p.p.p.N.N.N.N.W.1.W.W#g.Z.Z.Z.p.W.1.W.W.W.1.1.p.N.N.N.N.N.S.N#g.Z.Z.Z.6.p.N.p.N.5.5.5.5.N.N.p.6#a#b#b#f.C.P.Y",
".k.j.z.I.U.Z.Z.8.S.N.N.N.6#g#g.8.7.7.7.7.7.7#e#e.7#b.7.7.7.7.7.7.Z#g#g#g#g#g#g#g.U#e.T.T#f#k#k#k#c#a.9.9#e.6#g#g#g.Z.Z.8#b.C.P.Y",
".k.j.z.I.U.Z.Z.8.S.N.N.N#g#g#g#g#e.7.7.7.7.7.7.7.7.7.7.7.7.7.7.7.Z#g#g#g#g#g#g#g.Z#e.T.T.9#k#.#.#c#a#a#a#e.6#g#g.8.Z.Z.8#a.C.P.Y",
".c.z.l.K.Z.Z.Z#g.N.p.N.N.6.6.6.6#e#e#e#e#e#e#e#e#e#e#e#e#e.7.7.7.8.6.6.6.6.6.6.6.Z.T.U.U.9#k#.#.#c#b#b#b#e.5.6.6#g.8.8.8#b.C.P.Y",
".K.A.2.X.9#a#a.7.U.U.U.T.7.7#e#b#h#h#h#h#h#h#h#h#h#h#h#h#f#f#f#f#a.7.7.7.7.7.7.7#a#a#a#a#f#k#k#k#j#c#c#c.9#e#e#e.7#b#a#b#c.O.C.Q",
"#.#d.r.Q.Y.B.B.B.Y.Y.Y.Y.Y.Y.Y.Y.Y.Y.Y.Y.Y.Y.Y.Y.Y.Y.Y.Y.Y.B.Y.Y.r.r.r.r.Q.Y.Y.Y.G.C.C.P.P.P#l#l.C.O.O.G.O.O.O.O.O.G.G.G.G.G.B.q",
"#..Q.B.B.B.B.B.B.B.B.B.Y.Y.B.B.B.B.B.B.B.B.B.B.B.B.B.B.B.B.B.Y.B.Q.Q.Q.Q.Y.B.B.B.O.P.P.P.P#l#l#l.C.C.C.O.C.C.C.C.C.O.O.O.G.B.B.q",
"#k#d.Q.Q.Q.Q.Q.Q.Q.Q.Q.Q.Q.Q.Q.Q.Q.Q.Q.Q.Q.Q.Q.Q.Q.Q.Q.Q.B.B.B.B.r#d#d#d.Q.Q.Q.Q.G.C.C.C.C#l.P.P.C.O.O.G.O.G.G.G.O.G.G.G.B.Q.Q#m",
".7#n###.###j#j#j#j#j#j#j#j#j#j#j#j###########j#j#j######.O.B.B.Y#k#j#j#j#j#j#j###f#h#h.9#h#f#c#c#f#f#f#f#f#f#h#h#f#j###j#j#j##.P",
".#.F.c.h.w.w.w.w.w.w.w.w.w.w.w.w.f.f.f.f.f.f.f.a.w.h.h.w#f.G.O.Y.E#o.t.H.v.f.f.f.a.#.a.f.c.j.x.x.F.g.g.w.b.f.f.e.b.l.l.y.d.e.f.g",
".#.c.d.d.g.g.g.g.g.g.g.g.g.g.w.g.f.f.e.e.e.e.e.e.g.h.h.w#f.G.O.Y.F#p#q#q.D.e.u.e.f.a.f.e.c.x.x.x.F.b.b.b.#.e.e.e.b.l.l.l.c.e.e.#",
".#.d.h.w.b.g.g.g.g.g.g.g.g.g.g.g.f.e.e.e.e.u.e.u.b.w.w.g#f.G.O.Y.E#o.t#q.D.e.e.u.e.f.f.e.d.j.x.j.F.#.b.b.#.e.e.u.b.l.E.E.d.u.e.#",
".c.x.y.y.E.E.E.E.F.F.F.E.l.l.l.l.h.h.h.h.h.h.h.h.y.x.z.x#c.G.G.B.z.H.D.D.a.g.b.b.w.d.d.d.l.m.n.n.z.F.F.F.F.d.c.d.F.i.i.i.y.d.c.E",
".2.S.p.p.N.N.N.X.A.0.0.V#g.Z.Z.8.V.A.A.A.A.A.A.0.U#b#e.7.C.B.B.Q.K.h.c.c.i.M.M.m.3.A.A.A.A.A.A.A.1.N.N.N.N.p.N.N.N.p.p.p.N.N.p#g",
".2.S.p.p.p.p.p.X.0.0.0.A#g.8.8#g.A.0.0.0.0.0.0.0.Z.7#e#e.C.B.B.Q.I.h.c.d.j.m.m.n.3.0.0.0.0.0.0.0.1.p.p.p.p.p.p.p.p.p.p.p.p.p.p#g",
".2.S.p.p.p.p.p.X.0.0.0.A#g.8.8.8.A.0.0.0.0.0.0.0.Z.7#e.T.C.B.B.Q.J.h.c.d.x.m.m.n.3.0.0.0.0.0.0.0.1.p.p.p.p.p.p.p.p.p.p.p.p.p.p#g",
".3.p.X.X.X.X.W.1.A.A.A.A#g.8.8.8.V.A.A.A.2.2.2.4.8#e.T.T.C.B.B.Q.I.w.c.d.j.M.M.m.3.0.0.0.0.0.0.0.1.X.X.X.X.W.W.W.X.p.p.p.p.p.p#g",
".z.K.M.M.M.M.m.I.p.p.X.p.8.8.Z.8.p.X.X.X.K.M.M.m.X.6.5.6#k.O.C.G.M.b.w.w.n.0.2.0.0.0.0.0.0.0.0.0.A.A.A.A.3.M.M.m.L.N.p.p.p.p.p#g",
".z.M.m.m.m.m.n.I.p.p.p.N.8.Z.Z.8.N.p.p.X.M.m.m.n.W.6.5.5#k.O.C.G.m.b.g.g.o.A.0.0.0.0.0.0.0.0.0.0.0.0.0.0.L.m.m.m.L.N.p.p.p.p.p#g",
".y.M.m.m.m.m.n.I.p.p.p.N.8.Z.Z.8.N.p.N.X.M.m.m.n.W.6.5.S#k.O.C.G.m.b.w.g.n.A.0.0.0.0.0.0.0.0.0.0.0.0.0.0.L.m.m.m.L.N.p.p.p.p.p#g",
".x.I.K.K.K.K.M.J.X.X.p.X.5.S.5.S.W.1.W.W.K.K.K.M.p#g.6.6#k.C.C.G.m.#.w.g.n.0.2.4.A.1.V.V.V.V.V.V.A.0.0.0.L.M.K.M.3.X.X.X.X.p.p#g",
".K.V.A.A.A.A.A.A.0.0.0.2.M.m.n.m.m.n.m.M.0.A.A.2.Z#b.7.7#l.O.O.Y.i.u.e.e.l.m.m.n.X.Z.8.8.8.8.8.8.N.0.0.0.0.0.0.0.0.0.0.0.1.p.p#g",
".K.V.0.0.0.0.0.0.0.0.0.2.m.n.m.m.m.m.m.m.0.0.0.0.Z#b.7.7.P.O.O.G.i.u.f.e.l.M.m.n.X.8.8.8.8.8.8.8.N.2.0.0.0.0.0.0.0.0.0.0.V.p.p#g",
".K.V.0.0.0.0.0.0.0.0.0.2.m.m.m.m.m.m.m.m.0.0.0.0.Z.7.7.7.P.O.O.B.i.u.f.e.l.M.m.n.X.Z.8.8.8.8.8.Z.N.2.0.0.0.0.0.0.0.0.0.0.V.p.p#g",
".I.V.A.A.A.A.A.A.A.A.A.0.M.m.m.m.m.m.m.m.0.A.A.2.Z#b#b#b#l.O.O.B.o.e.a.f.y.K.m.m.W.8#g#g#g#g#g.8.p.0.A.A.A.A.A.A.A.A.A.A.V.p.p#g",
".4.N.p.p.p.p.p.p.p.p.p.W.M.m.m.m.m.m.m.m.W.X.X.X#b#c#f#f.C.B.B.Q.I.h.c.d.I.p.W.X.V.A.A.A.A.A.A.A.1.X.X.p.p.p.p.p.p.p.p.p.p.p.p#g",
".2.S.p.p.p.p.p.p.p.p.p.X.M.m.m.m.m.m.m.m.W.p.p.p#b#c#f#f.O.Y.B.Q.I.h.c.d.J.N.p.N.V.2.0.0.0.0.0.0.1.p.p.p.p.p.p.p.p.p.p.p.p.p.p#g",
".2.S.p.p.p.p.p.p.p.p.p.X.M.m.m.m.m.m.m.M.W.p.p.X#b#c#f#f.O.Y.B.Q.I.h.c.d.L.N.p.N.V.0.0.0.0.0.0.0.1.p.p.p.p.p.p.p.p.p.p.p.p.p.p#g",
".2.N.X.X.X.X.p.X.X.p.p.X.K.M.M.M.M.M.M.M.W.p.p.p#a#f#f#f.O.B.G.Q.I.h.c.d.J.X.X.p.A.2.2.2.0.A.0.0.1.X.W.W.X.N.p.p.X.X.X.W.p.p.p.6",
".I.V.0.0.0.0.2.V.X.p.p.p.p.X.X.X.X.X.X.p#g.8#g.8.9#f#f#f#l.P.P.O.I.d.k.k.i.M.M.M.M.M.M.m.3.A.0.A.L.M.M.m.3.N.p.N.V.M.M.m.4.Z#g#e",
".K.A.0.0.0.0.0.A.X.p.p.p.p.p.p.p.p.p.p.p#g.8.8.8#h#f#f#c#l.P.P.O.I.d.k.k.j.m.m.m.m.m.m.n.L.A.0.A.L.m.m.n.3.N.p.p.V.m.m.n.2.Z.Z.7",
".K.V.0.0.0.0.0.V.X.p.p.p.p.p.p.p.p.p.p.p#g.8.8.8.9#f#f#c#l.P.P.C.I.d.k.k.j.m.m.m.m.m.m.n.L.A.0.0.L.m.m.n.3.N.p.N.V.n.m.n.3.Z.8.7",
".K.V.0.0.0.0.0.V.p.p.p.p.p.p.p.p.p.p.p.p#g.8.8.8.9#f#f#f#l.P.P.C.I.d.k.k.j.m.m.m.m.M.m.m.L.A.0.0.L.M.m.n.3.N.p.N.V.m.M.m.4.Z.8.7",
"#g#h#a#a#a#a#a#a.9.9.9.9.7#e#e#e#a#a#a#a.8#g.8#g.6.5.5.S##.P.P.C.2.j.i.j.p#e.T#e.5.p.p.p.S.8#g#g.8.Z.U.Z.T#e#e#e#e#b#b#b.9#h#h#.",
".Z#j#f#f#f#f#f#f#f#f#f#f.7.7.7.7#h#h#h.9.8#g#g#g.S.N.N.N#j.P#l.C.A.i.o.i.5.9#a.9.8.N.S.S#g.Z.Z.Z.U.7#e#e.7.7.7.7#b#c#c#c#f#f#f#k",
".Z#j#f#f#f#f#f#f#f#f#f#f.7.7.7.7#h#h#h.9.8#g#g#g.N.N.N.N#j.P#l.C.0.j.o.i.S#h#a.9#g.N.S.S#g.Z.Z.Z.T.7.7.7.7.7.7.7#a#f#f#f#f#f#f#k",
".U#j#f#f#f#f#f#c#c#c#c#f#b.7.7#a#f#f#h#h.Z.8.Z.8.5.5.5.S###l#l.C.A.n.m.n.5.9#a.9.8.5.6.6#g.Z.U.U.T.7.7.7.7.7#b#b#a#c#c#c#c#c#c#n",
"#f.G.C.C.C.P.P.C.C.C.C.C.P.P.P.C.C.C.C.P.P.C.P.C.O.O.G.O.G.B.B.B.C.P.P.P.C.C.C.O#l#n#n#n#n.P#l#l.P.C.P.P.C.G.B.O.G.G.G.G.G.G.G#d",
"#f.G.C.C.C.C.C.C.O.O.O.O.O.O.O.O.O.O.O.O.O.O.O.O.B.Y.Y.B.B.B.B.B.B.Y.B.B.B.B.G.B.C#l#l#l.P.O.O.O.O.O.O.O.G.B.B.B.B.B.B.B.B.B.B.q",
"#f.G.C.C.C.C.C.C.O.O.O.O.O.O.O.O.O.O.O.O.O.O.O.O.B.Y.B.B.B.B.B.B.B.B.B.B.B.G.G.B.C#l#l#l.P.C.C.C.C.O.O.O.G.B.B.B.B.B.B.B.B.B.B.q",
"##.Q.B.B.B.B.B.B.B.B.B.B.B.B.B.B.B.B.B.B.B.B.B.B.Q.Q.Q.Q.Q.Q.Q.Q.Q.Q.Q.Q.Q.Y.Y.Y.G.C.C.C.O.G.B.B.B.B.B.B.Y.Q.Q.Q.Q.Q.Q.Q.Q.Q.Q#m"};
